<svg xmlns="http://www.w3.org/2000/svg" fill="none" viewBox="0 0 400 400" id="Coding--Streamline-Bruxelles.svg" height="400" width="400"><desc>Coding Streamline Illustration: https://streamlinehq.com</desc><path fill="#ffffff00" d="M213.48 244.72c0 0.56 -0.22 0.66 -0.82 0.66 -81.6 -1.58 -82.72 -0.64 -83.04 -1.58a19.07 19.07 0 0 1 -0.32 -3.2c0.12 -0.4 31.32 -25.8 32.28 -25.78 21.26 0.26 44.8 -0.82 51.18 3.86 10.76 7.88 0.74 25.7 0.72 26.04Z" stroke-width="1"></path><path fill="#24ff00" d="M205.7 186c0 0.48 2.34 36.54 2.34 36.54s28 1.56 28 1.28 2.14 -38.7 2.14 -38.7a120.808 120.808 0 0 1 -32.48 0.88Z" stroke-width="1"></path><path fill="#ffffff00" d="M134.72 278.7a73.486 73.486 0 0 0 -9.02 11.58c-2.36 4.52 -13.36 16.5 -17.68 20.22 -4.32 3.72 -12.94 14.34 -14.32 24.54 -1.38 10.2 -1.78 11 -0.78 11.78 1 0.78 6 1.58 12.56 0.98a41.618 41.618 0 0 1 12.76 0.2c2.16 0.6 9.62 0.4 23.56 0.2s27.68 0.58 32.38 0.78c4.7 0.2 9.7 2 8.76 -1.68a31.042 31.042 0 0 0 -2.22 -6.38c-0.74 -2.16 1.24 -3.58 3.16 -5.62 1.92 -2.04 2.48 -5.52 1.04 -6.2 -1.44 -0.68 -4.5 -3.08 -3.08 -3.4 1.42 -0.32 4.94 -0.3 7.42 -0.56 2.48 -0.26 11.24 -2.94 13.2 -3.4l24.24 -3.8 -5.64 -45.38s-81.48 0.28 -86.34 6.14Z" stroke-width="1"></path><path fill="#ffffff00" d="M260.2 303.44c0.26 0.44 0.14 0.56 -0.46 0.54 -15.34 -0.12 -21.24 -0.3 -23.48 -0.2 -1.5 0 -1.32 -0.26 -1.32 -0.66 0 -21.74 -0.76 -30 -0.42 -32s1.82 -2 4.2 -2.86a0.718 0.718 0 0 1 0.96 0.2c13.7 13.94 10.66 17.54 20.52 34.98Z" stroke-width="1"></path><path fill="#ffffff00" d="M300.44 303.64c0.18 5.18 0.46 6.76 -0.22 9.32 -1.18 4.48 -6.64 3.24 -6.9 0.38 -0.66 -7.3 1.08 -36.96 -2 -46 -0.26 -0.74 0.28 -0.6 6.36 -0.72 3.34 -0.06 2.42 26.64 2.76 37.02Z" stroke-width="1"></path><path fill="#ffffff00" d="M211.78 300.26c0.32 1.74 -0.72 2.64 -1.74 7.26 -1.24 5.6 -2 6.32 -3.76 6.48 -3.68 0.32 -4 -1.26 -3.84 -4.1 0.2 -7.18 3.12 -14.34 6.36 -21.42 0.7 -1.56 0.62 -1.08 2.98 11.78Z" stroke-width="1"></path><path fill="#ffffff00" d="M302.8 256.24c2.36 0.14 5.24 0.88 3.16 4.56 -1.54 2.72 -6.8 2.84 -11.78 2.84 -33.42 0 -36.54 -0.58 -40.4 -0.46a51.634 51.634 0 0 0 -17.82 4c-2 0.72 -1.36 1.3 -1.52 -7.42 0 -0.94 0.6 -0.9 2.98 -1.6a63.704 63.704 0 0 1 22.16 -2.78c26.84 -0.04 38.24 0.62 43.22 0.86Z" stroke-width="1"></path><path fill="#24ff00" d="M386.34 104.5c5.06 5.58 -1.84 20.6 -5.44 29.6 -4 9.88 -6.6 17.56 -15.5 16.44 -7.78 -0.96 -7.46 -1.32 -7.42 -4.54 0.12 -8 5.5 -25.3 12.28 -38.2 1.86 -3.56 3.88 -6.88 7.54 -6.98a13.38 13.38 0 0 1 8.54 3.68Z" stroke-width="1"></path><path fill="#24ff00" d="M373.26 167.6c2.7 13.44 -5.3 46.82 -24 113.42 -6.34 22.64 -10 40.94 -31.64 44.5 -1.58 0.26 -0.22 -0.36 1.38 -2 4 -4 6.54 -14.14 7.88 -18.7 6.88 -23.2 6 -16.82 12 -39.88 6.24 -24.24 18.82 -60.62 22.9 -84.7 0.586 -3.38 0.794 -6.814 0.62 -10.24 0 -2.88 -1.48 -4.16 -2.26 -6 2.64 -0.38 2 -1.44 2.94 -0.92a2.28 2.28 0 0 0 3.34 -0.82c0.44 -0.62 0.32 -1.48 2.6 -0.76 2.28 0.72 3.5 2.5 4.24 6.1Z" stroke-width="1"></path><path fill="#ffffff00" d="M356 69.18c6.62 11.16 17.9 14.28 17.16 25.52 -0.22 3.3 -0.12 3.18 -0.82 3.16 -8.54 -0.3 -14.42 6.6 -18 14.36 -11.68 25.32 -2.26 32.48 -11 27.5 -3.04 -1.72 -7.06 -8.46 -8.88 -9.24 -0.92 -0.38 -1.76 0.38 -1.04 1.28 3.5 4.36 6.6 7.88 6.8 8.42a8.12 8.12 0 0 1 -4.96 -0.38c-3.52 -1.5 -6.7 -2.78 -10 -2 -0.54 0.12 -1.4 0.62 -1.18 1.08 0.56 1.2 0.94 -0.64 6.9 0.88 2 0.52 3.1 2.42 7.84 2.34a14.52 14.52 0 0 1 6.6 0.82c1.72 0.56 2.7 0.54 3.44 2.48 1.32 3.48 3.52 2.84 4.72 5.4a35.07 35.07 0 0 1 2.68 10.26c0.32 1.68 -2.98 -1.06 -7.88 7.4 -0.7 1.24 -39.56 108.54 -41.5 115.7 -6.62 24.54 -4.24 20.16 -5.14 -7.48 -0.48 -15 -4.72 -10.24 1.44 -12a8.39 8.39 0 0 0 4.74 -3.56 3.986 3.986 0 0 0 0.464 -3.814 3.988 3.988 0 0 0 -2.964 -2.446 34.898 34.898 0 0 0 -3.78 -0.52c-0.94 -0.12 1.82 -1.22 4.96 -5.06 3.14 -3.84 17.74 -29.08 19.42 -32.32 4.2 -8.14 14.36 -34.84 15.8 -50.76 0.58 -6.36 -2 -14.72 -7.88 -16.84 -6.44 -2.34 -7.62 -2.76 -18.74 -1.32 -3.82 0.5 -4.64 3.58 -2.82 -1.12 1.48 -3.76 3.86 -3.38 6 -10.78 1.38 -4.64 -0.38 -10 -0.38 -14.84 0 -2.28 -1.42 -4 0 -3.54a19.32 19.32 0 0 0 8.36 1.36 17.664 17.664 0 0 0 13.52 -26.96c-2.28 -3.76 -3.74 -3.44 -3.46 -4.82 6.46 -31.86 3.04 -31.22 4.42 -31.06a26.68 26.68 0 0 1 6.7 2.76c3.14 1.74 6.6 7.06 8.46 10.14Zm-6.84 85.16a0.9 0.9 0 0 0 1.64 -0.6c-1.26 -3.42 -3.08 -3.84 -9.5 -6.26a2.12 2.12 0 0 0 -1 0c-0.52 0 -0.6 0.22 -0.58 0.76 0 1 0.48 0.7 6.18 3.26a6.004 6.004 0 0 1 3.24 2.84h0.02Z" stroke-width="1"></path><path fill="#24ff00" d="M349.7 142.44c-2.32 -12.96 9.24 -46.28 23.56 -42.44 -8.86 9.84 -18.66 40.76 -17.38 48.2 0.12 1.06 -5.28 -0.78 -6.18 -5.76Z" stroke-width="1"></path><path fill="#24ff00" d="M350 169.5c5.7 -9.58 10.98 -3.46 10.66 1.6 0 6.62 0.96 8.16 -8.32 40.3 -0.12 0.4 -29.26 101.28 -31.86 106.4 -2.1 4.12 -6 8 -10.48 8.82 -6.52 1.1 2.38 -0.22 1.02 -11.9 -1.2 -10.36 -8.54 -8.9 -8 -10.8a33.3 33.3 0 0 0 2.28 -7.68c1.04 -5.64 42.9 -123.78 44.7 -126.74Z" stroke-width="1"></path><path fill="#24ff00" d="M336.12 90.44a13.57 13.57 0 0 1 4.36 11.56 15.44 15.44 0 0 1 -9.54 14.22 15.84 15.84 0 0 1 -21.52 -11.38c-3.04 -14 12.56 -20.74 12 -18.14 -0.74 4 -0.62 4.42 -1.74 5.06a12.126 12.126 0 0 0 -6 11.82 10.954 10.954 0 0 0 4.56 7.42 12.342 12.342 0 0 0 10.96 0.92c6.98 -2.26 8.2 -10.36 5.34 -15.3a2.486 2.486 0 0 1 -0.48 -1.44c1.54 -5.3 1.52 -5.3 2.06 -4.74Z" stroke-width="1"></path><path fill="#ffffff00" d="M314.8 150.24c4 -2 26.66 -4 24.78 16.18 -0.76 8 -5.36 24.34 -8.24 32 -2.42 6.36 -5.08 12.62 -7.66 17.78a250.458 250.458 0 0 1 -15.32 26.6c-1.24 1.7 -1.24 1.4 -2.9 0.54a18.442 18.442 0 0 0 -13.7 -0.76 22.018 22.018 0 0 0 -13.56 10.12c-0.94 1.44 -1.56 1.16 -18.34 0.72 -6 -0.14 -6.86 -2 -19.52 -4.5 -9.6 -1.84 -14.5 -6.88 -22.78 -6.98a7.852 7.852 0 0 1 -4.7 -1.78 13.662 13.662 0 0 1 -1.34 -6.28c0.32 -7.66 0.32 -8.18 2.76 -12 0.98 -1.52 1.36 -1.36 12.76 -1.44 4.36 0 4.52 1.32 10.22 1.36 6.28 0 2.78 -1.38 16.7 -3.14 1.58 -0.2 1.28 3.5 1.1 4.92 -0.36 2.96 -0.76 3.86 0.24 4.14 2 0.56 2.5 -8 0.62 -11.1 -2.58 -4.38 2.18 -5.38 6 -3.66 1.2 0.56 2.1 0 2 -1.4 0 -0.94 -1.88 -5.24 2.78 -6a19.926 19.926 0 0 1 3.84 0.32c3.74 -0.3 6.7 2.18 7.38 0.74a1.336 1.336 0 0 0 -0.58 -1.4c-1.4 -0.8 -3.58 -0.5 -3.1 -1.56 10 -22.22 13.4 -20.78 20.44 -30.44a53.318 53.318 0 0 0 5.54 -10.26c4.26 -8.14 4.44 -7.9 14.58 -12.72Zm-33.26 70.1c1.52 0 1.26 -1.4 0 -2.4 -2.54 -2.12 -12.16 -9.12 -12.16 -6 0 1.1 2 1.32 3.22 2.14 8.82 5.48 7.18 5.4 8.94 6.26Zm-4 18c0.94 -0.12 0.84 -0.9 0.88 -1.56 -2.54 -10.56 -5.18 -13.62 -11.58 -21.58 -0.56 -0.7 -2.3 -0.18 -1.24 1.62 1.06 1.8 7.62 7.26 10.68 19.58 0.26 0.9 0.2 2.02 1.28 1.88l-0.02 0.06Z" stroke-width="1"></path><path fill="#24ff00" d="M338.44 55.82c1.66 7.82 -4.74 41.2 -9.32 47.36 -1.56 2 -5.28 0.98 -6.74 -0.22 -2.36 -2 -1.78 -4.58 -1.12 -7.58 10.4 -47.3 4.96 -44 1.36 -45.08 0.98 -2.3 14.58 -0.3 15.82 5.52Z" stroke-width="1"></path><path fill="#24ff00" d="M333.4 98.46c2.34 2.84 1.38 12.42 -8.52 12.66a8.664 8.664 0 0 1 -8.672 -5.06 8.648 8.648 0 0 1 -0.768 -3.46c-0.44 -6.14 4.78 -9.76 4.52 -8.58a22.734 22.734 0 0 0 -0.88 6.2c0.22 4.42 4.9 6 7.56 6 4.52 -0.02 6.34 -7.14 6.76 -7.76Z" stroke-width="1"></path><path fill="#ffffff00" d="M324.94 53.06c2 7.2 -1.22 19.52 -2.9 30.58 -0.28 1.76 -6.7 0.5 -11.64 8 -1.44 2.2 0.18 1.8 -7.36 -18.64 -2.64 -7 -6.64 -6.56 -9.04 -13 -1.86 -4.8 -0.32 -8.44 4.86 -9 4 -0.42 3.32 5.36 7.02 4 3.1 -1 18.12 -5.14 19.06 -1.94ZM317.64 82c0.36 0.72 1.58 0.58 1.6 -0.72 -5.16 -14.14 -9.44 -15.14 -14.94 -23.2 -0.44 -0.66 -1 -0.34 -1.18 0.24 -0.48 1.56 2.58 4.58 6.28 8.84 4.6 5.24 5.1 8.84 8.24 14.84Z" stroke-width="1"></path><path fill="#ffffff00" d="M315.22 116.94c2 15.76 3.44 17.54 -2.62 25.8 -0.7 0.96 -1.62 -4 -4.9 -7.5 -0.3 -0.3 -0.54 -0.5 -0.42 -1.02 0.12 -0.52 0 -0.98 -0.64 -1.08 -0.16 0 -1.32 -1.38 -1.66 0 -0.34 1.38 -0.4 -0.68 -1.56 -0.68 -0.64 0 -0.56 0.98 -0.54 1.44 0 0.78 -0.9 -0.72 -1.4 -0.22 -0.5 0.5 -0.28 1.14 0.14 2 -1.06 0.38 -1.48 -2 -2.46 -1.88a0.95 0.95 0 0 0 -0.56 0.62c-0.1 0.64 -0.84 0.68 -1 1.22 -0.46 -0.16 -0.74 -0.44 -0.6 -1.26 0.14 -0.82 -0.96 -1.22 -1.24 -0.56 -0.46 1.08 -0.44 1.48 -1.18 1.24s-0.46 1.3 -0.42 1.82c-1.3 -1.04 -1.16 -2.34 -2.12 -2.26 -0.96 0.08 -0.36 0.96 -1.06 1.18 -1.56 0.48 0 2.18 -0.74 1.88 -2.7 -1.16 -1.68 -3.24 -3.28 -2.5 -0.78 0.38 -0.66 -1.14 -0.12 -1.62 1.48 -1.3 1.5 -4.88 0.86 -6.64 -0.8 -2.24 -1.12 -1.78 -0.46 -2.6 0.98 -1.22 0.82 -1.8 0.14 -1.54 -2 0.76 -1.34 1.84 -2.96 2a0.918 0.918 0 0 1 -1.1 -0.64c-0.3 -1.16 0.46 -1.66 1.26 -2.14 0.8 -0.48 2.48 0 3.58 -0.52 0.76 -0.36 0.98 -0.56 0.94 -0.98 -0.04 -0.42 -0.66 -0.68 -1.4 -0.46a7.76 7.76 0 0 1 -5.32 -1.26c-0.32 -0.38 0 -0.78 -0.52 -2 -0.12 -0.28 -0.32 -0.54 0 -0.84 0.32 -0.3 0.48 -0.12 0.74 0 0.92 0.24 2.56 0 2.7 -1.54a0.69 0.69 0 0 0 -0.524 -0.588 0.694 0.694 0 0 0 -0.276 -0.012 4.14 4.14 0 0 1 -2.36 0.3c-1.56 -0.18 -2 2.12 -5.76 1.52 -1.72 -0.26 -1.66 -1.74 -1.84 -2.34 -0.7 -2.46 2 -3.34 3.34 -4 1 -0.52 1.2 -1 1.6 -0.34 1.72 2.84 5.2 1.42 9.14 0 2 -0.74 3.08 -2.24 2.22 -5.76 -0.32 -1.32 2.94 -2.78 3.76 -3.04 23.48 -7.52 8 -4.76 14.38 9a17.272 17.272 0 0 0 5.54 6.78 1.498 1.498 0 0 1 0.7 1.02Z" stroke-width="1"></path><path fill="#ffffff00" d="M307.68 151.3c-0.52 0 0.18 -16.2 3.44 -6.44 -1.58 3.68 -1.98 6.6 -3.44 6.44Z" stroke-width="1"></path><path fill="#62ca7d" d="M307.38 91.34c0.48 2 -1.02 2 -2.98 -2.42 -0.74 -1.74 -2.3 -0.1 -2.62 0 -2.94 1.82 -6.38 -7.48 -0.2 -14.52a131.472 131.472 0 0 1 5.8 16.94Z" stroke-width="1"></path><path fill="#ffffff00" d="M305.66 245.44c0.78 0.7 0.56 1.02 -0.18 2.22a13.056 13.056 0 0 1 -5.56 5.16 17.366 17.366 0 0 1 -6.96 1.3c-14 0 -13.44 -0.12 -12.9 -0.92a22.492 22.492 0 0 1 12.36 -8.98c6.28 -1.82 11.58 -0.22 13.24 1.22Z" stroke-width="1"></path><path fill="#ffffff00" d="M303.4 90.7c1.14 2.26 2 3.28 3.28 3.76 -0.84 0.62 -11.62 3.8 -11.76 3.84 -4.94 1.62 -4.52 2.88 -4.84 2 -0.72 -1.84 -1 -3 -3.02 -3s-2.96 0.5 -0.6 -1.36 3.42 -2.94 5.48 -2.58c2.7 0.48 2.56 -1.44 0.62 -1.9 -5.54 -1.3 -11.14 8.54 -12 5.9 -3.18 -9.42 -2.82 -15.4 0.34 -22 0.42 -0.92 1.22 -0.48 1.9 0.14a5.162 5.162 0 0 0 6.5 0.14 4.314 4.314 0 0 0 1.52 -3.4c0.16 -1.32 1.3 0.3 4.2 -0.86a4.31 4.31 0 0 0 2.42 -2.72c0.46 -1.24 2.84 2.52 3.38 3.82 -0.82 1.26 -8 10 -2 17.8a2.66 2.66 0 0 0 3.44 0.48c0.66 -0.54 0.86 -0.76 1.14 -0.06Z" stroke-width="1"></path><path fill="#24ff00" d="M302.78 306.56c9.8 3.12 8.2 19.22 -0.7 20.68 -6.92 1.12 -52.16 -0.16 -65.44 -0.12 -1.7 0 -1.36 3.34 -1.54 -20.22 0 -0.66 0 -1.14 1.16 -1.12 1.16 0.02 14.48 0.38 53.8 0.38 1.4 0 1.42 -0.12 1.42 1.1 0 0 0 6.58 0.12 6.76 1.26 5.4 10.72 5.66 10.7 -2.64 -0.02 -5.02 -0.16 -5.02 0.48 -4.82Z" stroke-width="1"></path><path fill="#ffffff00" d="M298.6 161.74a39.782 39.782 0 0 1 -5.02 9.7c-4 5.3 -6.24 6.84 -11.68 13.82 -7.84 10 -8.8 18.88 -10.78 18.66a17.68 17.68 0 0 0 -4.92 -0.38 5.622 5.622 0 0 0 -3.736 2.218 5.618 5.618 0 0 0 -1.024 4.222c0 0.7 -0.76 0.28 -1.44 0.2 -0.68 -0.08 -1.34 0 -2 -0.2a4.884 4.884 0 0 0 -3.906 1.808 4.88 4.88 0 0 0 -0.974 4.192c0.12 0.56 0.54 0.94 -0.3 1.06 -14.4 2 -15.5 4.36 -15.4 1.7 0.16 -4.72 0 -4.72 0.74 -4.56 2.56 0.58 6.24 0.4 7.14 -2 0.76 -2 2.76 -1.36 5.24 -1.26 4 0.16 1.8 -3.28 3.44 -6 1.22 -2 3.62 1.64 6.42 -1.04 6.14 -5.84 12 -6.74 17.18 -16.14 4.42 -7.88 17.84 -24.48 21.02 -26Z" stroke-width="1"></path><path fill="#62ca7d" d="M295.7 66c0.98 1.06 0.5 4.58 -4 4 -1.52 -0.18 -2.36 -1.5 -2.34 1.58a3.014 3.014 0 0 1 -1.034 2.674 2.998 2.998 0 0 1 -2.806 0.586c-2 -0.44 -1.76 -1.36 -4.86 -1.8 -3.1 -0.44 -3.4 -3.16 -2.28 -5.34a4.226 4.226 0 0 1 4.78 -2.24c1.04 0.26 1.32 0 1.3 -1.04 0.28 -1.38 -2 -0.42 -2.32 -2.78a2.534 2.534 0 0 1 0.976 -2.47 2.538 2.538 0 0 1 2.644 -0.25c0.86 0.44 1.4 0.5 1.54 -0.24 0.14 -0.74 -1.04 -2.96 1.44 -4 1.04 -0.44 3.14 0.14 3.38 3.5a12.002 12.002 0 0 0 3.58 7.82Z" stroke-width="1"></path><path fill="#ffffff00" d="M291.44 290.96c0.18 14 0.28 13.42 -0.64 13.36l-27.26 -0.32c-0.72 0 -0.46 0 -3.24 -4.8 -6.52 -11.34 -5.18 -16.6 -14.84 -27.66 -3.8 -4.34 -4.64 -3.86 -3.12 -4.42 10.88 -4 26.94 -0.76 44.78 -1.38 3.42 -0.1 4.06 6.4 4.32 25.22Z" stroke-width="1"></path><path fill="#ffffff00" d="M283.86 120.96c0.64 0.42 -1.2 0.88 -1.36 0.92 -2.88 0.32 -2.5 -3.44 1.36 -0.92Z" stroke-width="1"></path><path fill="#ffffff00" d="M235.1 249.8c22.4 4.88 15.18 2.78 2.88 6 -2.9 0.74 -3.54 1.48 -3.56 0.56 -0.08 -7.24 -0.42 -6.8 0.68 -6.56Z" stroke-width="1"></path><path fill="#ffffff00" d="M238.16 177.5c1.14 5.44 1.2 5.08 0 5.38 -13.7 3.68 -34 1.5 -33.66 -0.64 0.9 -4.82 0.58 -4.96 1.22 -4.74 8.28 2.66 21.88 2 28.62 0.64 2.74 -0.5 3.66 -1.82 3.82 -0.64Z" stroke-width="1"></path><path fill="#ffffff00" d="M237.04 175.2c1.22 2.82 -28.62 3.24 -30.46 0.32 -0.34 -0.52 1.68 -0.98 2.54 -1.2a69.36 69.36 0 0 1 17.8 -1c0.64 0 0.78 0.16 0.64 0.66s-0.34 0.78 0.3 1.26a4.18 4.18 0 0 0 3.08 0.66c0.66 0 0.78 -0.54 0.94 -0.94 0.16 -0.4 0.34 -1.16 1.22 -1.02 1.74 0.28 3.7 0.68 3.94 1.26Z" stroke-width="1"></path><path fill="#ffffff00" d="M232.62 256c0 6.78 0.18 6.2 -0.66 6.2 -5.14 0 -173.12 -0.14 -173.16 -0.14 -2.54 0 -1.38 1.32 -3.68 -6 -0.32 -0.98 173.06 -0.92 176.28 -0.92 1.24 0.16 1.22 0.12 1.22 0.86Z" stroke-width="1"></path><path fill="#ffffff00" d="M229.48 247.34c2.64 1.38 3.16 1.24 3.12 2.2 -0.24 4.58 2 3.76 -7.72 3.76 -177.02 0 -170.56 1.18 -171.46 0 -6.26 -8.48 -11.44 -4 -1.8 -7.62 6.88 -2.62 6.56 -2.84 9.86 -2.24 2.2 0.4 2.82 0.78 4.28 -0.18 1.46 -0.96 1.16 -0.8 2 0.24 2.6 3.12 11.8 2.28 10 -4.52 -0.12 -0.46 0 -0.58 0.56 -0.72 1.34 -0.36 -0.14 9.04 10.64 3.66 2.94 -1.48 1.8 -5.84 0.16 -8.68 -0.94 -1.66 1.04 -1.66 1.64 -4 0.22 -0.92 2.72 1 3.74 0.7 0.44 -0.12 0.44 -1.3 0.2 -2.18a14.44 14.44 0 0 0 -0.76 -1.82c0 -0.18 0 -0.3 0.48 -0.36 0.96 -0.14 1.66 -0.62 1.12 -1.44a34.124 34.124 0 0 0 -2.86 -3.1c-0.94 -1.34 2 -0.44 18.72 -0.56 1.2 0 0.28 0 12.72 22.54 0.34 0.856 0.916 1.596 1.66 2.14 2.52 1.38 9.02 0 88 2 2.4 0 3.86 -3.42 5.56 -3.08a33.3 33.3 0 0 1 10.14 3.26Z" stroke-width="1"></path><path fill="#ffffff00" d="M228.5 198.98c4.74 4.28 0 12.26 -6.88 11.28a6.302 6.302 0 0 1 -5.42 -6.68c0 -0.9 0.7 -0.76 3.46 -1.06 2.66 0.48 3.38 0.4 4.18 1.54 0.8 1.14 2 0.68 2.14 -0.78a7.314 7.314 0 0 1 1.88 -4.28c0.14 -0.28 0.36 -0.28 0.64 -0.02Z" stroke-width="1"></path><path fill="#ffffff00" d="M226.24 197.7a16.372 16.372 0 0 0 -2 3.44c-0.42 1.12 -1.18 -0.86 -5.06 -0.48a9.55 9.55 0 0 1 -2 0 7.38 7.38 0 0 1 9.06 -2.96Z" stroke-width="1"></path><path fill="#24ff00" d="M216 324.9c0.36 2.2 0.46 2.26 -0.14 2.26 -9.52 0 -16.88 1.82 -18.74 -2.62 -1.64 -4 -2.74 -6.94 -2.12 -10.7 0.48 -2.94 0.88 -4.76 2.96 -6.36 6 -4.66 0.22 5.38 4.54 7.66 2.54 1.34 5.88 1.14 7.24 -1.24 3.84 -6.82 1.38 -18.46 6.26 11Z" stroke-width="1"></path><path fill="#ffffff00" d="M208.3 219.72c7.82 0.52 2.76 1.1 1.8 7.48 -0.2 1.28 -0.12 4.28 -0.24 5.54 -0.64 5.9 1.86 7.14 -0.64 6.74 -3.5 -0.54 -6 -1.04 -6.8 -1.88 -1.84 -1.88 1.16 -5.22 0.38 -10.4a7.386 7.386 0 0 1 1.42 -5.44 4 4 0 0 1 4.08 -2.04Z" stroke-width="1"></path><path fill="#ffffff00" d="M232.82 264.34a53.02 53.02 0 0 1 0.8 10c0 2.44 1.74 73.86 0.86 73.86 -6.44 1.56 -6.32 -0.12 -13.02 -0.12 -1.04 0 -11.88 -70.74 -12.92 -70.74 -140.98 0.14 -152 0.46 -151.76 -0.62 1.56 -6.42 -0.68 -12.44 1.02 -12.44 2.22 0 158.54 -1.2 173.32 -1.08 1.72 0.08 1.58 0.46 1.7 1.14Z" stroke-width="1"></path><path fill="#ffffff00" d="M206.38 211.22c0.78 11.38 0.54 4.8 -2.44 8.5a0.82 0.82 0 0 1 -0.258 0.218 0.832 0.832 0 0 1 -0.322 0.102c-3.8 -0.6 -3.26 -0.64 -3.1 -1.12 0.96 -2.72 1.74 -2.84 -1.82 -4.58 -3.12 -1.54 -3.86 -2 -5.56 -1 -1.7 1 -2.34 2.16 -4 1.5 -1.24 -0.5 -2 -0.96 -2.48 -1.1 -0.48 -0.14 -0.12 -0.42 2.92 -2.1 3.48 -2 3.74 -2.16 5.14 -2.32 4.26 -0.5 8 1.14 10.74 1.24 0.8 0.02 1.16 0.18 1.18 0.66Z" stroke-width="1"></path><path fill="#ffffff00" d="M201.6 221.76c1.24 0.14 -0.6 0.48 -0.34 5.14a15.372 15.372 0 0 1 -0.34 5.74c-0.26 0.94 -0.48 0.86 -1.44 0.8 -3.78 -0.28 -3.74 1.5 -13.22 0 -5.2 -0.82 -8.16 -3 -10 -2.96 -0.96 0 -6.52 0 -6.16 1 0.8 1.88 2.78 0.32 3 1.54 0 0.34 0.28 1.42 -0.26 1.8a3.078 3.078 0 0 1 -2.42 0.44c-1.7 -0.58 -2.64 -0.64 -3.04 -1.84a13.044 13.044 0 0 1 -0.56 -4c0 -0.64 0.5 -0.7 0.84 -0.86 5.88 -2.86 6.14 -2.82 6.42 -3.2 2 -2.54 -5.28 0.76 -7.54 1.64 -2.26 0.88 -0.22 2.66 -2.7 4.74a11.35 11.35 0 0 1 -4.12 2.18 2.366 2.366 0 0 1 -2.24 -0.32 1.012 1.012 0 0 1 -0.388 -0.79 1.006 1.006 0 0 1 0.388 -0.79c1.84 -1.2 2.38 -1.58 3.48 -2.36 2.86 -2 2.88 -3.5 4.96 -6 1.28 -1.62 3.28 -0.74 7.18 -2.5 1.7 -0.76 1.4 -2 -0.38 -1.62 -7.72 2 -6.48 0.18 -11.48 7.5 -0.18 0.26 -0.54 0.5 -0.66 0.24a11.18 11.18 0 0 1 -1.22 -3.18c0.14 -0.536 0.44 -1.018 0.86 -1.38 2.28 -2 2.52 -2.54 4.76 -2.78 4 -0.44 2.18 -0.82 7.66 -2.78 2 -0.74 1 -2 0.26 -2 -5.12 0.88 -6.36 4.16 -6.22 2 0 -1.18 1.72 -2.38 3.06 -2.86a10.08 10.08 0 0 1 8 -0.38c7.44 2 4.4 0.24 9.32 2.26 11.6 4.64 12.24 5.3 14.54 5.58Z" stroke-width="1"></path><path fill="#ffffff00" d="M199.6 216.84c0 0.28 -0.46 2.14 -1.12 1.86 -4 -1.68 -7.64 -2.44 -4.14 -4.52 1.16 0 1.58 0.84 1.56 2 0 0.7 1.14 1.24 1.26 0.5 0.12 -0.74 0 -1.42 0.76 -1.08 0.22 0.1 1.54 0.88 1.68 1.24Z" stroke-width="1"></path><path fill="#ffffff00" d="M128.42 241.62a1.882 1.882 0 0 1 -0.7 2.16c-1.14 0.64 -2 -1.34 -1.28 -2.5s1.78 -0.58 1.98 0.34Z" stroke-width="1"></path><path fill="#ffffff00" d="M126 238.76c0.3 0.56 0.26 0.54 -0.28 0.96 -0.54 0.42 -0.8 1.24 -1.14 0.7 0 0 -37.26 -69.58 -44.58 -84 -0.74 -1.5 -1.14 -2 -0.46 -3.44 1.18 -2.36 0.88 -0.48 2.32 2.3S124.8 236.36 126 238.76Z" stroke-width="1"></path><path fill="#ffffff00" d="M94.18 223.86c0.2 0.2 0.42 0.62 -0.38 0.68 -0.8 0.06 -1.9 -0.18 -1.32 0.94 0.34 0.64 0.62 1.14 0.76 1.48 0.14 0.34 0.62 1.56 0.22 1.44a19.95 19.95 0 0 0 -2.68 -1.12c-2.28 -0.42 0.14 2.66 -6.26 7 -1.26 0.86 -2.24 0.68 -4.22 1.48 -2.7 1.08 -8.34 2.7 -11.02 1.6 -0.38 -0.16 -5.42 -1.16 -4.58 -4.36 0.12 -0.52 -0.24 -0.7 -0.74 -0.5 -2.16 0.82 -3.02 2.94 -3.02 0.74s0.6 -2.84 0 -3.14c-0.6 -0.3 -1.78 2.38 -2.38 2.74 -0.24 0.14 -0.86 -0.92 -0.96 -2 -0.34 -3.34 1.42 -4.54 1.44 -5.78a7.172 7.172 0 0 1 0 -2 18.004 18.004 0 0 1 3.5 -8.42c0.3 -0.42 0.42 -0.92 0.2 -1.02 -0.22 -0.1 -1.8 1.3 -2.1 1.64 -0.62 0.68 -0.74 0.68 -0.86 -0.36a25.28 25.28 0 0 1 0 -8c0.24 -1.16 3.46 0 6.58 2.26 0.7 0.52 0.68 0.76 0 1.36 -1.68 1.64 -1.14 2 -0.54 1.74a18.994 18.994 0 0 1 8.12 -2.96 12.854 12.854 0 0 1 6.48 1.06c0.66 0.22 1.02 -0.14 -0.8 -1.52 -0.54 -0.4 -0.68 -0.58 0.12 -2 0.226 -0.49 0.56 -0.92 0.98 -1.26 0.3 0 0.56 0.64 0.92 1.38 0.78 1.62 1.46 1.18 0 -2.12 -1.14 -2.4 -3.1 2.44 -3.44 3.04 -0.14 0.22 -0.24 0.3 -0.96 -0.12s-0.44 -1.02 2 -4.4c0.242 -0.366 0.502 -0.72 0.78 -1.06 0.92 -1.04 1.56 -0.8 2.12 0.38a44.594 44.594 0 0 1 2.38 8.12c0.22 1.04 -1.74 0 -1.04 1.08a35.54 35.54 0 0 1 4.48 4.78c0.34 0.456 0.652 0.93 0.94 1.42 0.3 0.862 0.754 1.662 1.34 2.36 1.38 1.06 2.696 2.202 3.94 3.42Zm-8.92 -2.72c0 -0.78 -0.5 -0.98 -0.86 0 -0.66 1.72 -1.02 2 -0.46 2.2 0.56 0.2 1.24 -1.34 1.32 -2.2Zm-2 9.38c1.82 -0.98 2.36 -3.76 1.54 -4.4 -0.82 -0.64 -0.72 0.42 -1.04 1.56a3.78 3.78 0 0 1 -1.32 2 2.698 2.698 0 0 1 -2.64 -0.74c-1.22 -1.08 -0.88 0.76 -1.78 2a1.74 1.74 0 0 1 -1.76 0.58c-1.3 -0.34 -1.34 -1.56 -1.46 -2a0.554 0.554 0 0 0 -0.462 -0.372 0.552 0.552 0 0 0 -0.538 0.252 2.48 2.48 0 0 0 0.84 2.72 2.904 2.904 0 0 0 4.8 -0.78c0.32 -0.56 0.32 -0.72 0.98 -0.5 0.468 0.158 0.964 0.212 1.456 0.158 0.49 -0.056 0.964 -0.22 1.384 -0.478Zm-1.64 -8.6c0.8 0.46 1.3 -0.34 1.18 -1.22 0 -0.52 -0.4 -1.4 -0.98 -1.44 -1.04 -0.1 -1.28 1.72 -0.2 2.74v-0.08Zm-0.9 2.86a1.086 1.086 0 0 0 -0.822 -1.284 1.076 1.076 0 0 0 -0.558 0.024c-0.512 0.242 -1 0.53 -1.46 0.86 -0.72 0.3 -1.32 0 -2 0.26 -1 0.28 -1.16 2 0.5 2.18 1.66 0.18 2 0.9 2.52 0.68 0.52 -0.22 0.36 -0.84 0.8 -1.38 0.44 -0.54 0.86 -0.66 1.02 -1.34Zm-8 -1.26c-0.2 -0.84 -0.52 -1.52 -1.26 -1.3 -0.74 0.22 -0.58 1.4 -0.28 2 0.56 1.16 2 0.94 1.62 -0.7h-0.08Zm-1.34 3.74c0.62 0 0.66 -1.04 0 -1a2.982 2.982 0 0 1 -2 -0.44c-0.5 -0.34 -0.88 -0.5 -0.74 0.16a2.172 2.172 0 0 0 1.976 1.422c0.288 0.008 0.574 -0.04 0.844 -0.142h-0.08ZM64.68 210c0.78 0.2 1.3 -0.8 -2.12 -1.68 -2 -0.46 -1.78 3.8 -1.62 4.44 0.16 0.64 0.62 0.34 0.66 0.1 0 -0.56 0.12 -1.48 0.26 -2.7 0.14 -1.22 1.16 -0.68 2.82 -0.16Z" stroke-width="1"></path><path fill="#ffffff00" d="M87.24 234c0.88 -0.72 3.02 4.36 1.4 6 -1.26 1.3 -0.26 -2.4 -1.82 -2.26 -0.32 0 -0.5 0.36 -0.36 0.8 0.1 0.63 0.1 1.27 0 1.9 0 0.84 -0.64 0.82 -1.14 1.02 -1.88 0.74 -1.14 -2.46 -2.38 -2.14 -0.76 0.2 -0.26 1.4 -0.4 2.28 0 0.16 -1.1 -0.38 -1.28 -0.82 -2 -4.76 -1.38 -2.62 3.88 -5.06 0.22 -0.08 -0.14 0.12 2.1 -1.72Z" stroke-width="1"></path><path fill="#ffffff00" d="M76.36 239.14c0.78 2 -0.76 4.44 -1.24 3.1 0 -0.26 -0.32 -1.46 -0.8 -1.38 -1.3 0.26 0 2.22 -0.9 2.42 -2.38 0.58 -1.66 -2.58 -2.54 -2.26 -1.38 0.46 0.18 2.72 -0.9 2.16a3.89 3.89 0 0 1 -1.84 -3.3c0.24 -2.28 -0.52 -0.2 5.8 -0.7 1.8 -0.16 2.18 -0.66 2.42 -0.04Z" stroke-width="1"></path><path fill="#ffffff00" d="M74.14 207.28c0.56 0.52 -0.68 0.66 -0.8 0.68 -3.14 0.14 -4.12 1.52 -5.06 0.66 -1.48 -1.34 -5.58 -4 -8.34 -3.56 -1.48 0.22 -1.32 1.08 -1.52 3.3 -0.64 7.02 0.92 8.42 0.5 10 -0.52 2 0 -0.22 -1.44 5.58 -0.22 0.94 0.38 0.6 -0.32 2.26 -0.7 1.66 -1.36 5.16 -0.2 6.78 0.44 0.62 0 0.58 -3.68 1.26 -1.74 0.32 3.16 -5.18 -1.6 -13.74a13.58 13.58 0 0 0 -5.88 -5.3 8.014 8.014 0 0 0 -8.22 -0.36c-0.64 0.2 -1.36 2.2 2.1 1.02 5.32 -1.82 16.14 6.84 11.48 18.12 -0.44 1.08 -3.9 0.98 -3.4 2.24 0.14 0.32 1.32 0.2 2.82 0 3.48 -0.4 6.76 -1.7 8.78 -1.54 0.76 0 0.66 1.3 1.12 1.84 0.46 0.54 0.66 0 2.1 -1.56 0.74 -0.8 0.36 0.62 2.36 2.12 0.404 0.244 0.762 0.554 1.06 0.92 0.8 1.24 0.7 2.78 0.28 2.34 -0.42 -0.44 -0.3 -0.38 -0.46 -0.56 -0.68 -0.82 -2.52 -1.76 -2.98 -0.72 -0.46 1.04 0.58 0.96 0.84 1.12 2.18 1.26 0.86 2.34 -1.3 1.6 -3.08 -1.04 -8 0.74 -10.92 2.12 -8.44 4 -12.8 1.86 -19.12 -3.38 -7.06 -5.84 -4.52 -6.6 -5.54 -9.68 -1.12 -3.46 -3.3 4.88 2.68 9.52 13.24 10.28 6.56 4.34 17.84 9.48 7.04 3.22 9.14 16.46 8 18.8 -0.28 0.56 -0.46 0 -1.46 -1.08s-1.2 0.16 -1.76 0.86c-1.2 1.52 -1.8 -3.22 -3.1 -0.76 -1.7 3.18 -1.4 2.42 -2.8 0.2 -0.66 -1.02 -1.48 -0.92 -1.66 0.4 -0.1 0.66 -0.2 1.12 -0.54 1.38a19.52 19.52 0 0 0 -2.6 -3.22c-0.84 -0.96 -0.66 -4.96 -6.38 -7.76a32.27 32.27 0 0 1 -4.84 -2.54c-1.72 -1.3 -7.18 -4.98 -9.54 -9.18a22.8 22.8 0 0 1 -3.42 -15.24c0.6 -3.2 1.36 -8.34 3.24 -11.02 3.78 -5.34 5.18 -12.76 17.14 -16.2 5.66 -1.64 12.22 -4.5 20.24 -2 6.92 2.1 13.56 2.14 16.3 4.8Z" stroke-width="1"></path><path fill="#ffffff00" d="M36 263.24c2.74 0.66 2.88 -0.68 3.5 1.02 0.994 3.752 1.472 7.62 1.42 11.5 0.14 3.42 -1.06 3.52 -5.48 3.22 -0.66 0 -6 71.44 -6.72 71.38 -0.18 0 -16.62 1.88 -16.56 -1.78 0.22 -17.14 -0.98 -80.76 -1.06 -85.14 8.29 -0.498 16.602 -0.564 24.9 -0.2Z" stroke-width="1"></path><path fill="#ffffff00" d="M36.52 261.76s0.28 0.4 -0.14 0.4c-27.44 0 -24.26 0.32 -24.28 -0.5 -0.28 -6.62 -0.34 -6 0.7 -6 15.52 0 12.98 -0.64 16.64 2.12 2.4 1.86 4.84 1.92 7.08 3.98Z" stroke-width="1"></path><path fill="#ffffff00" d="M19.42 248.24a42.316 42.316 0 0 0 4.7 5.54c-1.08 0.22 -5.62 0 -5.62 0.12 -5.46 0 -6.22 0.22 -5.38 -0.56 6.2 -5.8 5.88 -5.72 6.3 -5.1Z" stroke-width="1"></path><path fill="#ffffff00" d="M304 331.48c0.92 -0.28 0.88 -0.72 0.76 -1.68s-0.54 -0.42 -0.88 -0.48a4.544 4.544 0 0 0 -0.7 0c-12 1.1 -61.78 -0.66 -65.42 0a2.912 2.912 0 0 0 1.66 2.24c0.48 0.18 1.36 1.2 2.26 1.24 7.04 2 8.58 8 9.36 16.68 4.668 0.672 9.39 0.894 14.1 0.66a139.326 139.326 0 0 1 26.42 1.36c-0.02 -9.12 1.92 -15.82 12.44 -20.02Z" stroke-width="1"></path><path fill="#ffffff00" d="M250.84 142.62s2.2 1.68 1.32 3.7c0 0 -11.68 5.3 -12.28 6.62 -0.6 1.32 -8.82 22.22 -8.82 22.22 -0.14 1.04 -3.8 0.26 -3.28 -1.12 0.24 -0.66 8.76 -22.6 8.76 -22.6l14.3 -8.82Z" stroke-width="1"></path><path fill="#ffffff00" d="m361.1 150.98 6.32 0.88s0.66 9.56 -2.8 10.6l-2.34 -0.46s-2.8 2 -3.32 0 1.84 -4 2.14 -11.02Z" stroke-width="1"></path><path fill="#62ca7d" d="M368.24 153.12c0 -2 5.4 2.12 11.78 -12.18 13.6 -30.46 13.38 -38.44 -1.14 -42.24 -3.42 -0.9 -4 -0.16 -4 -1.5 1.3 -15.7 -9.74 -17.5 -17.14 -29.24 -2 -3.18 -5.84 -8.86 -9.18 -10.56 -4.5 -2.3 -6.2 -3.1 -8.24 -2.94a0.66 0.66 0 0 1 -0.78 -0.48c-2 -5.2 -12.52 -6.36 -16 -6a3.174 3.174 0 0 0 -2.58 1.76c-0.66 1.28 0.42 -0.6 -15.26 3.46a1.496 1.496 0 0 1 -2 -0.94c-2.32 -5.16 -10 -3.16 -11.84 1.32 -0.18 0.44 -0.52 0.22 -1.04 0a3.462 3.462 0 0 0 -5.04 1.62c-0.58 1.3 0 2 -1.16 2a4.326 4.326 0 0 0 -4.262 4.248c-0.012 0.744 0.168 1.48 0.522 2.132 0.5 0.96 -1.42 0 -3.48 2.56a5.574 5.574 0 0 0 0.24 7.6c1.34 1.14 2.14 0.74 1.78 1.34 -6.46 11.16 0.44 22.88 -1.14 22.54 -0.94 -0.22 -1.34 1.16 -0.4 1.68 0.94 0.52 1.2 0.32 0.5 0.92 -1.74 1.56 -1.08 3.04 -0.44 5.24 0.64 2.2 -0.66 1.64 -3.02 3.3a4.864 4.864 0 0 0 -1.668 6.456 4.86 4.86 0 0 0 6.348 2.044c0.58 -0.24 0.64 0.26 0.9 0.82 0.26 0.56 0.14 0.72 0 0.84a2.436 2.436 0 0 0 -0.398 3.768c0.344 0.344 0.782 0.58 1.258 0.672 0.76 0.16 0.76 0.18 0.72 0.92a2.134 2.134 0 0 0 0.93 1.772 2.14 2.14 0 0 0 1.99 0.228c1.28 -0.6 2.38 5.72 0.32 6 -1.04 0.16 -1.26 1.86 -1.22 2.96 0 0.46 0 0.64 -0.5 0.66a0.978 0.978 0 0 0 -0.92 1.22 4.094 4.094 0 0 0 1.74 2.64c0.74 0.66 -0.76 1.34 1.18 2.46 1.94 1.12 3.28 -0.2 5.7 0 2.78 0.18 2.48 -1.4 6.62 -2.58 1.54 -0.42 1.86 -1.52 2.88 -1.6 0.48 0 2.46 -0.88 2.48 -1.18 0 -0.7 0.52 -0.4 1.72 -0.62 1.56 -0.28 2 0.48 3.12 2s-2.38 1.24 -2.22 12.44c0 1.28 0.68 1.28 -0.36 2 -4.98 3.32 -3.22 4.66 -6.14 6a18.22 18.22 0 0 0 -5.82 4.78A156.552 156.552 0 0 0 277.32 184a49.504 49.504 0 0 1 -4.52 6.98c-2.88 3.6 -8.5 6.76 -10.56 8.52 -3.28 2.82 -4 3.52 -5.3 2.94 -1 -0.44 -2.96 -0.8 -3.86 0.18 -3.7 4 -0.8 6 -2.96 6 0 0 -1.78 -0.22 -2.84 -0.24 -5.26 0 -1.82 5.22 -9.08 3.5 -0.82 -0.2 -0.26 0.28 0.58 -19.06 0.4 -9 0 -8 1.1 -8.46 1.6 -0.56 1.32 -1.06 0.52 -4.78 -0.72 -3.28 -0.92 -5.22 -2.56 -5.8 -5.16 -1.84 -5.06 -1 -4.6 -2.22 4 -10.9 5.6 -15.18 6.44 -16.96a6.526 6.526 0 0 1 2.52 -2.6c2.26 -1.24 7.76 -3.8 7.78 -3.82 2.28 -1.14 3.48 -1.14 3.32 -2.98 -0.16 -1.84 -1.34 -4 -3.06 -3 -13 7.48 -14 7.7 -15.24 10.96 -7.64 20.64 -6.36 19.04 -7.72 18.94a86.71 86.71 0 0 0 -14.94 0.44c-4.14 0.52 -8 1.1 -8.64 4.64 -1.16 6.5 -1.52 6.4 0.3 7.4 0.82 0.44 0.36 -1.2 2.18 23.46 0 0.68 0.34 1.36 -2 0.92 -9.1 -1.72 -9.22 -2.28 -16 1.44 -7.56 4.2 -4 3.1 -11.16 2 -6.28 -1.04 -8.66 1.04 -9.68 1.84a5.424 5.424 0 0 1 -1.7 0.2c-5 0 -4.32 0.12 -4.54 -0.26 -8.2 -13.82 -33.48 -69.2 -36.42 -73.84 -0.84 -1.32 -1.02 -2.32 -4.46 -1.5 -3.9 0.94 -11.86 2.7 -30.74 7.52a41.204 41.204 0 0 0 -8.86 2.98c-0.62 0.36 -1.42 0.86 -2.64 3.62a3.66 3.66 0 0 0 0.22 3.82c0.5 0.92 31.42 59.16 32.52 61.8 -2 0.22 -14.28 0 -19.4 0.2 -1.32 0 -1.06 -1.06 -2.38 -2.76 -1.84 -2.4 -2.98 -3.24 -3.02 -3.82a29.09 29.09 0 0 0 -3 -10.44c-1.16 -2 -2.64 -1.2 -4 0.38a21.932 21.932 0 0 0 -2.5 3.66c-1.24 2.16 -0.74 -0.14 -6 -1.88 -4 -1.32 -9.18 -1.58 -11.4 -2.44 -6.94 -2.62 -13.48 -1.12 -20.48 1.24 -7.82 2.62 -14.24 6 -17.44 14.58 -0.96 2.56 -4.16 3.78 -5.58 15.24 -0.72 5.8 0.6 8.36 2.28 13.14 0.36 1.04 0.78 0.2 -4.78 5.44 -5.56 5.24 -2.3 -7.06 -1.68 98.28 0 1.16 0 1.56 1.06 1.74 0.7 0.12 1.04 -0.7 1.02 -1.42 -1.62 -91.66 -1.74 -85.38 -0.82 -85.38 20.98 0 23.4 0 23.34 0.6 -0.54 5.1 -6.92 72.7 -7.78 83.52 -0.12 1.58 -0.18 3.46 1.18 2.5 0.46 -0.32 6.84 -71.02 6.84 -71.08 0 -0.54 0.2 -0.52 2 -0.48 1.8 0.04 0.64 -0.3 1.24 3.52a8.52 8.52 0 0 0 6.98 7.1c7.84 0.1 9.22 -9.88 9.8 -10.48 0.58 -0.6 21.14 0.28 68.1 0 9.86 0 8.26 -0.86 4.84 3.26 -2.6 3.14 -8 12.16 -10.3 15.72 -5.5 8.64 -27.06 19.26 -27.46 48.68 0 0.52 0.54 0.46 0.6 0.84 0.46 -0.46 0.72 0.14 0.88 0a77.674 77.674 0 0 1 3.58 -17.24c7.52 -18.16 16.8 -21.52 23.12 -29.88s13.14 -21.86 16.88 -21.34c1.8 0.24 12.6 -0.56 11.5 0.46 -2.7 2.5 -3.84 3.16 -5.2 5.72 -3.84 7.22 -4.32 9.52 -7.22 12.96 -1.42 1.76 -3.72 4.14 -6.76 8.12 -2 2.58 -10.98 18.96 -12.66 30 -0.36 2.32 -1.32 12.6 0.66 12.48 2.42 -0.12 -0.24 -3.78 1.7 -13.66 2.72 -13.48 5.64 -14.94 8.46 -21.28 4.4 -10 9.76 -11.68 14 -20.14 4.46 -8.82 5.34 -10.86 10.26 -13.66 2.86 -1.64 6.52 -1.02 16.86 -1.02 42.82 0 40 -0.18 40 0.36 0.68 4.42 0.92 4.4 0.44 5.26 -7.1 12.74 -6.62 19.42 -8 19.46a8.154 8.154 0 0 0 -6.72 5.24c-2.6 6.42 0.92 13.26 0.2 13.44a15.052 15.052 0 0 1 -3.16 1.06c-8.12 0.34 -11.32 -0.54 -12 1.8 -0.8 3.2 6.7 2.96 5.62 6.22 -1.22 3.66 -2.96 3.34 -4.44 6.26 -2.36 4.62 2.8 4.84 2 9.36 -0.74 3.8 2.58 3.1 2.34 -0.78a7.64 7.64 0 0 0 -1.86 -4.6c-3.44 -3.7 3.4 -5.44 4 -9.06 0.96 -5.18 -2.46 -5.6 -4.28 -6.7 1.42 -0.82 8.82 0.2 11.14 -1.08 1.4 -0.78 1.44 -0.5 1.64 -0.18a7.096 7.096 0 0 0 6.54 4c15.78 0.12 14.84 -0.7 15.06 0.54 0 0 3.08 17.46 3.34 18.34a0.96 0.96 0 0 0 1.86 0c0 -0.4 -0.22 -2.26 -14.2 -82 -0.18 -1.04 -0.68 -1.62 1.44 -1.62l22.56 0c0.2 0 0.5 0 0.6 1 1 11.68 0.88 72.22 1.48 82.5 0 0.76 0.28 0.68 0.7 0.66 0.42 -0.02 0.78 0 0.78 -1.7 0 -18.58 -0.12 -16.92 0.12 -17.38 0.72 1.12 0.7 2.92 3.4 3.52 11.56 2.6 10.28 14 11.36 16.5 0.32 0.74 1.54 0.32 1.56 -0.24 0 -1.5 0.26 -0.94 -0.94 -7.48 -1 -5.42 -4.44 -7.08 -5.56 -8.3 1.52 -0.54 53.38 0.16 53.42 0.18 -0.98 1.16 -6.6 3.48 -7.82 11.34 -0.54 3.36 -0.88 4.66 -0.44 6.22a0.822 0.822 0 0 0 1.6 0.12c1.2 -3.72 -0.52 -10.24 7.14 -15.54 4.38 -3.02 7.6 -2 7.84 -5.62 0 -1.16 0.38 -1.24 0.94 -1.28 37.62 -2.84 35.54 -20.36 54.24 -88.28 3.52 -12.82 18.98 -66.88 11.26 -77.7a6.804 6.804 0 0 0 -5.24 -3.62c-1.18 -0.16 0.22 -1.66 0.24 -6.66ZM216 324.9c0.36 2.2 0.46 2.26 -0.14 2.26 -9.52 0 -16.88 1.82 -18.74 -2.62 -1.64 -4 -2.74 -6.94 -2.12 -10.7 0.48 -2.94 0.88 -4.76 2.96 -6.36 6 -4.66 0.22 5.38 4.54 7.66 2.54 1.34 5.88 1.14 7.24 -1.24 3.82 -6.82 1.38 -18.46 6.26 11Zm-4.16 -24.64c0.32 1.74 -0.72 2.64 -1.74 7.26 -1.24 5.6 -2 6.32 -3.76 6.48 -3.68 0.32 -4 -1.26 -3.84 -4.1 0.2 -7.16 3.12 -14.34 6.36 -21.42 0.64 -1.56 0.54 -1.08 2.92 11.78h0.06Zm144.1 -152c0.18 1.06 -5.28 -0.78 -6.18 -5.76 -2.32 -12.96 9.24 -46.28 23.56 -42.44 -8.92 9.78 -18.72 40.7 -17.44 48.14l0.06 0.06Zm7.64 4.84a39.21 39.21 0 0 1 -1.84 8.26c-0.34 0.84 -0.94 0.96 -1.34 0.7 -1.4 -0.92 0 -0.92 1.38 -8.62 0.22 -1.14 0.34 -1.12 0.82 -1.04 0.48 0.08 1 -0.04 0.92 0.64l0.06 0.06Zm2.4 -0.42c0.42 0 0.94 0 0.92 1.02a27.76 27.76 0 0 1 -0.9 6.5 1.988 1.988 0 0 1 -1.36 1.56c-0.6 0.16 -1.42 0 -1.18 -1.1 2.1 -8.98 0.54 -7.98 2.54 -8.04l-0.02 0.06Zm-5.62 0a39.434 39.434 0 0 1 -2 8.28c-0.78 -0.78 -0.12 -1.44 -2.7 -9.82 -0.18 -0.54 0.12 -0.3 3.26 0.46 1.22 0.4 1.48 -0.08 1.38 1.12l0.06 -0.04Zm-19.5 -96.4a26.68 26.68 0 0 1 6.7 2.76c3.18 1.7 6.64 7.02 8.48 10.1 6.62 11.16 17.9 14.28 17.16 25.52 -0.22 3.3 -0.12 3.18 -0.82 3.16 -8.54 -0.3 -14.42 6.6 -18 14.36 -11.68 25.32 -2.26 32.48 -11 27.5 -3.04 -1.74 -7.06 -8.46 -8.88 -9.24 -0.92 -0.38 -1.76 0.38 -1.04 1.28 3.52 4.36 6.6 7.88 6.8 8.42a8.12 8.12 0 0 1 -4.96 -0.38c-3.5 -1.5 -6.7 -2.78 -10 -2 -0.54 0.12 -1.42 0.62 -1.18 1.08 0.56 1.2 0.94 -0.64 6.9 0.88 2 0.52 3.1 2.42 7.84 2.34a14.48 14.48 0 0 1 6.6 0.82c1.72 0.56 2.7 0.54 3.44 2.48 1.32 3.48 3.52 2.84 4.72 5.4a35.07 35.07 0 0 1 2.68 10.26c0.32 1.68 -2.98 -1.06 -7.88 7.4 -0.7 1.24 -39.56 108.54 -41.5 115.7 -6.62 24.54 -4.24 20.16 -5.14 -7.48 -0.48 -15 -4.72 -10.24 1.44 -12a8.39 8.39 0 0 0 4.74 -3.56 3.986 3.986 0 0 0 0.464 -3.814 3.988 3.988 0 0 0 -2.964 -2.446 34.898 34.898 0 0 0 -3.78 -0.52c-0.94 -0.12 1.82 -1.22 4.96 -5.06 3.14 -3.84 17.74 -29.08 19.42 -32.32 4.2 -8.14 14.36 -34.84 15.8 -50.76 0.58 -6.36 -2 -14.72 -7.88 -16.84 -6.44 -2.34 -7.62 -2.76 -18.74 -1.32 -3.82 0.5 -4.64 3.58 -2.82 -1.12 1.48 -3.76 3.86 -3.38 6 -10.78 1.38 -4.64 -0.38 -10 -0.38 -14.84 0 -2.28 -1.42 -4 0 -3.54a19.28 19.28 0 0 0 8.36 1.36 17.664 17.664 0 0 0 13.52 -26.96c-2.28 -3.76 -3.74 -3.44 -3.46 -4.82 6.38 -31.78 2.96 -31.14 4.34 -30.98l0.06 -0.04Zm-49.64 211.08c-0.26 -0.74 0.28 -0.6 6.36 -0.72 3.44 0 2.52 26.62 2.86 37 0.18 5.18 0.46 6.76 -0.22 9.32 -1.18 4.48 -6.64 3.24 -6.9 0.38 -0.66 -7.34 1.08 -36.96 -2.1 -45.98Zm-56.78 -7.64c0 -0.94 0.6 -0.9 2.98 -1.6a63.704 63.704 0 0 1 22.16 -2.78c26.84 0 38.24 0.6 43.22 0.9 2.36 0.14 5.24 0.88 3.16 4.56 -1.54 2.72 -6.8 2.84 -11.78 2.84 -33.42 0 -36.54 -0.58 -40.4 -0.46a51.634 51.634 0 0 0 -17.82 4c-1.96 0.68 -1.36 1.26 -1.52 -7.46ZM280 253.2a22.39 22.39 0 0 1 12.36 -8.98c6.28 -1.82 11.58 -0.3 13.24 1.22 0.78 0.7 0.54 1.02 -0.18 2.22a13.306 13.306 0 0 1 -5.56 5.16 17.688 17.688 0 0 1 -6.96 1.3c-13.9 0.04 -13.38 -0.12 -12.9 -0.92Zm-37.72 14c10.88 -4 26.94 -0.76 44.78 -1.38 3.42 -0.1 4 6.4 4.32 25.22 0.18 14 0.26 13.44 -0.64 13.36l-27.2 -0.4c-0.72 0 -0.46 0 -3.24 -4.8 -6.52 -11.34 -5.18 -16.6 -14.84 -27.66 -3.8 -4.34 -4.64 -3.86 -3.12 -4.42l-0.06 0.08Zm76.74 -166.9c0.22 4.42 4.9 6 7.56 6 4.52 0 6.34 -7.12 6.76 -7.74 2.34 2.84 1.38 12.42 -8.52 12.66a8.664 8.664 0 0 1 -8.672 -5.06 8.648 8.648 0 0 1 -0.768 -3.46c-0.44 -6.14 4.78 -9.76 4.52 -8.58 -0.548 1.986 -0.824 4.04 -0.82 6.1l-0.06 0.08Zm0.68 -8.44a12.126 12.126 0 0 0 -6 11.82 10.954 10.954 0 0 0 4.56 7.42 12.342 12.342 0 0 0 10.96 0.92c6.98 -2.26 8.2 -10.36 5.34 -15.3a2.486 2.486 0 0 1 -0.48 -1.44c1.38 -5.32 1.36 -5.32 1.9 -4.76a13.588 13.588 0 0 1 4.5 11.48 15.44 15.44 0 0 1 -9.54 14.22 15.84 15.84 0 0 1 -21.52 -11.38c-3.04 -14 12.56 -20.74 12 -18.14 -0.66 4 -0.54 4.44 -1.66 5.08l-0.06 0.08Zm18.68 -36c1.66 7.82 -4.74 41.2 -9.32 47.36 -1.56 2 -5.28 0.98 -6.74 -0.22 -2.36 -2 -1.78 -4.58 -1.12 -7.58 10.4 -47.3 4.96 -44 1.36 -45.08 1.04 -2.34 14.64 -0.34 15.88 5.48l-0.06 0.04Zm-39.66 -4.78c4 -0.42 3.32 5.36 7.02 4 3.18 -0.94 18.26 -5.16 19.14 -2 2 7.2 -1.22 19.52 -2.9 30.58 -0.28 1.78 -6.7 0.5 -11.64 8 -1.44 2.2 0.18 1.8 -7.36 -18.64C300.4 66 296.4 66.44 294 60c-2 -4.76 -0.4 -8.4 4.78 -8.96l-0.06 0.04Zm5.62 37.88c-0.74 -1.74 -2.3 -0.1 -2.62 0 -2.94 1.82 -6.36 -7.5 -0.2 -14.52a131.638 131.638 0 0 1 5.8 16.86c0.54 2.02 -0.96 2.12 -2.92 -2.38l-0.06 0.04Zm-26.06 -21.18a4.226 4.226 0 0 1 4.78 -2.24c1.04 0.26 1.32 0 1.3 -1.04 0.28 -1.38 -2 -0.42 -2.32 -2.78a2.534 2.534 0 0 1 0.976 -2.47 2.538 2.538 0 0 1 2.644 -0.25c0.86 0.44 1.4 0.5 1.54 -0.24 0.14 -0.74 -1.04 -2.96 1.44 -4 1.04 -0.44 3.14 0.14 3.38 3.5a12.006 12.006 0 0 0 3.68 7.8c0.96 1.06 0.5 4.58 -4 4 -1.5 -0.2 -2.36 -1.5 -2.34 1.58a3.014 3.014 0 0 1 -1.034 2.674 2.998 2.998 0 0 1 -2.806 0.586c-2 -0.44 -1.74 -1.36 -4.86 -1.8 -3.12 -0.44 -3.5 -3.1 -2.38 -5.32Zm2.58 7.5c0.42 -0.92 1.2 -0.48 1.9 0.14a5.1 5.1 0 0 0 6.5 0.14 4.314 4.314 0 0 0 1.52 -3.4c0.14 -1.32 1.3 0.3 4.2 -0.86a4.31 4.31 0 0 0 2.42 -2.72c0.46 -1.24 2.84 2.52 3.38 3.82 -0.82 1.26 -8 10 -2 17.8a2.66 2.66 0 0 0 3.44 0.48c0.7 -0.46 0.9 -0.72 1.18 0 1.14 2.26 2 3.28 3.28 3.76 -0.84 0.62 -11.62 3.8 -11.76 3.84 -4.94 1.62 -4.52 2.88 -4.84 2 -0.72 -1.84 -1 -3 -3.02 -3s-2.96 0.5 -0.6 -1.36 3.42 -2.94 5.48 -2.58c2.7 0.48 2.56 -1.44 0.62 -1.9 -5.54 -1.3 -11.14 8.54 -12 5.9 -3.22 -9.34 -2.86 -15.34 0.3 -22.06Zm0.82 26c-0.26 -1.22 -0.26 -1.2 0.96 -1.54 3.04 -0.86 6.62 -3.86 7.16 5.8a1.996 1.996 0 0 1 -1.32 1.86c-8 3.6 -8.62 0.44 -7.88 -0.46a6.202 6.202 0 0 0 1.08 -5.72v0.06Zm-2.1 -0.36c0.28 0 0.34 0.5 0.7 2.14 -0.14 1.62 -0.86 2.98 -1.04 2.26 -0.5 -1.82 -1.42 -3.96 0.34 -4.46v0.06Zm2.92 21.02c-2.88 0.32 -2.5 -3.44 1.36 -0.92 0.64 0.36 -1.2 0.82 -1.36 0.86v0.06Zm25.2 13.36c-0.28 -0.3 -0.54 -0.5 -0.42 -1.02 0.12 -0.52 0 -0.98 -0.64 -1.08 -0.16 0 -1.32 -1.38 -1.66 0 -0.34 1.38 -0.4 -0.68 -1.56 -0.68 -0.64 0 -0.56 0.98 -0.54 1.44 0 0.78 -0.9 -0.72 -1.4 -0.22 -0.5 0.5 -0.28 1.14 0.14 2 -1.06 0.38 -1.48 -2 -2.46 -1.88a0.95 0.95 0 0 0 -0.56 0.62c-0.1 0.64 -0.84 0.68 -1 1.22 -0.46 -0.16 -0.74 -0.44 -0.6 -1.26 0.14 -0.82 -0.96 -1.22 -1.24 -0.56 -0.46 1.08 -0.44 1.48 -1.18 1.24s-0.46 1.3 -0.42 1.82c-1.3 -1.06 -1.16 -2.34 -2.12 -2.26 -0.96 0.08 -0.36 0.96 -1.06 1.18 -1.56 0.48 0 2.18 -0.74 1.88 -2.7 -1.16 -1.68 -3.24 -3.28 -2.5 -0.78 0.38 -0.66 -1.14 -0.12 -1.62 1.48 -1.3 1.5 -4.88 0.86 -6.64 -0.8 -2.24 -1.12 -1.78 -0.46 -2.6 0.98 -1.22 0.82 -1.8 0.14 -1.54 -2 0.76 -1.34 1.84 -2.96 2a0.918 0.918 0 0 1 -1.1 -0.64c-0.3 -1.16 0.46 -1.66 1.26 -2.14 0.8 -0.48 2.48 0 3.58 -0.52 0.76 -0.36 0.98 -0.56 0.94 -0.98 -0.04 -0.42 -0.66 -0.68 -1.4 -0.46a7.76 7.76 0 0 1 -5.32 -1.26c-0.32 -0.38 0 -0.78 -0.52 -2 -0.12 -0.28 -0.32 -0.54 0 -0.84 0.32 -0.3 0.48 -0.12 0.74 0 0.92 0.24 2.56 0 2.7 -1.54a0.676 0.676 0 0 0 -0.112 -0.306 0.688 0.688 0 0 0 -0.548 -0.314 0.702 0.702 0 0 0 -0.32 0.06 3.56 3.56 0 0 1 -2.18 0.26c-1.56 -0.18 -2 2.12 -5.76 1.52 -1.72 -0.26 -1.66 -1.74 -1.84 -2.34 -0.7 -2.46 2 -3.34 3.34 -4 1 -0.52 1.2 -1 1.6 -0.34 1.72 2.84 5.2 1.42 9.14 0 2 -0.74 3.08 -2.24 2.22 -5.76 -0.32 -1.32 2.94 -2.78 3.76 -3.04 23.48 -7.52 8 -4.76 14.38 9a17.272 17.272 0 0 0 5.54 6.78 1.496 1.496 0 0 1 0.74 1.14c2.14 15.76 3.44 17.54 -2.62 25.8 -0.64 0.78 -1.66 -4.18 -4.94 -7.68v0.06Zm3.42 9.62c-1.58 3.68 -2 6.6 -3.44 6.44 -0.52 -0.1 0.18 -16.26 3.44 -6.5v0.06Zm-72.98 69.28c2.58 0.58 6.24 0.4 7.14 -2 0.76 -2 2.78 -1.36 5.24 -1.26 4 0.16 1.8 -3.28 3.44 -6 1.22 -2 3.62 1.64 6.42 -1.04 6.14 -5.84 12 -6.74 17.18 -16.14 4.34 -7.84 17.86 -24.44 21.04 -26a39.782 39.782 0 0 1 -5.02 9.7c-4 5.3 -6.24 6.84 -11.68 13.82 -7.84 10 -8.8 18.88 -10.78 18.66a17.68 17.68 0 0 0 -4.92 -0.38 5.622 5.622 0 0 0 -3.736 2.218 5.618 5.618 0 0 0 -1.024 4.222c0 0.7 -0.76 0.28 -1.44 0.2 -0.68 -0.08 -1.34 0 -2 -0.2a4.884 4.884 0 0 0 -3.906 1.808 4.88 4.88 0 0 0 -0.974 4.192c0.12 0.56 0.54 0.94 -0.3 1.06 -14.4 2 -15.5 4.36 -15.4 1.7 0.14 -4.76 0 -4.76 0.72 -4.56Zm-9.44 -40c0 -0.96 6.72 -18.6 7.74 -20.8a6.486 6.486 0 0 1 2 -2.78c2.28 -1.88 6 -3.48 12.42 -7.1 0.72 -0.4 1.16 0.34 1.32 2 0 0.7 -1.36 0.72 -6 3.22 -5.56 3 -6 2.2 -7.72 5.66 -1.46 3.08 -6 16.66 -7.58 20 -0.4 0.84 -0.76 0.76 -1.02 0.72 -0.7 -0.34 -1.2 -0.58 -1.16 -1.02v0.1Zm-19.58 0.22a69.36 69.36 0 0 1 17.8 -1c0.64 0 0.78 0.16 0.64 0.66s-0.34 0.78 0.3 1.26a4.18 4.18 0 0 0 3.08 0.66c0.66 0 0.78 -0.54 0.94 -0.94 0.16 -0.4 0.34 -1.16 1.22 -1.02 1.74 0.28 3.7 0.68 4 1.26 1.22 2.84 -28.62 3.26 -30.46 0.32 -0.4 -0.62 1.62 -1.08 2.48 -1.3v0.1Zm-4.52 8c0.9 -4.82 0.58 -4.96 1.22 -4.74 8.28 2.66 21.88 2 28.62 0.64 2.64 -0.5 3.46 -1.82 3.72 -0.64 1.14 5.44 1.2 5.08 0 5.38 -13.6 3.5 -33.96 1.32 -33.56 -0.82v0.18Zm8.94 60.88c0.05 0.532 0.05 1.068 0 1.6 0 0.56 -0.22 0.66 -0.82 0.66 -81.6 -1.58 -82.72 -0.64 -83.04 -1.58a4.002 4.002 0 0 1 0 -1.74c0.1 -0.4 0 -0.94 0.94 -0.92 88.52 0.88 82.8 -0.18 82.92 1.8v0.18Zm-3.68 -10.38c-0.64 5.9 1.86 7.14 -0.64 6.74 -3.5 -0.54 -6 -1.04 -6.8 -1.88 -1.84 -1.88 1.16 -5.22 0.38 -10.4a7.386 7.386 0 0 1 1.42 -5.44c0.392 -0.694 0.982 -1.254 1.694 -1.612a4.014 4.014 0 0 1 2.306 -0.388c7.82 0.52 2.76 1.1 1.8 7.48 -0.02 1.06 -0.02 4.06 -0.16 5.32v0.18Zm1.36 -14.34c-2.12 0 -2.54 0.22 -2.58 -0.56 -1.64 -30.66 -2.98 -30.7 -1.62 -30.32 7.12 2 19.66 1.42 27.26 0.26 4 -0.6 3.16 -5.6 1.62 24.42 -0.7 13.6 2.44 4.44 -17.28 6.56 -1.8 0.18 -2.24 -0.58 -4.16 0.3 -1.2 0.38 -0.9 -0.78 -3.24 -0.84v0.18Zm-22 -6.76c3.48 -2 3.74 -2.16 5.14 -2.32 4.26 -0.5 8 1.14 10.74 1.24 0.78 0 1.16 0.18 1.18 0.66 0.82 11.38 0.46 4.74 -2.44 8.5a0.82 0.82 0 0 1 -0.258 0.218 0.832 0.832 0 0 1 -0.322 0.102c-3.8 -0.6 -3.26 -0.64 -3.1 -1.12 0.96 -2.72 1.74 -2.84 -1.82 -4.58 -3.12 -1.54 -3.86 -2 -5.56 -1 -1.7 1 -2.34 2.16 -4 1.5 -1.24 -0.5 -2 -0.96 -2.48 -1.1 -0.48 -0.14 -0.02 -0.6 3.02 -2.28l-0.1 0.18Zm5.02 2.54c1.16 0 1.58 0.84 1.56 2 0 0.7 1.14 1.24 1.26 0.5 0.12 -0.74 0 -1.42 0.76 -1.08 0.22 0.12 1.54 0.9 1.68 1.26 0.14 0.36 -0.46 2.14 -1.12 1.86 -3.96 -1.88 -7.54 -2.64 -4.04 -4.72l-0.1 0.18Zm-21.56 2.88c2 -0.74 1 -2 0.26 -2 -5.12 0.88 -6.36 4.16 -6.22 2 0 -1.18 1.72 -2.38 3.06 -2.86a10.08 10.08 0 0 1 8 -0.38c7.44 2 4.4 0.24 9.32 2.26 11.38 4.66 12 5.32 14.32 5.6 1.24 0.14 -0.6 0.48 -0.34 5.14a15.372 15.372 0 0 1 -0.34 5.74c-0.24 0.94 -0.48 0.86 -1.44 0.8 -3.78 -0.28 -3.74 1.5 -13.22 0 -5.2 -0.82 -8.16 -3 -10 -2.96 -0.96 0 -6.52 0 -6.16 1 0.8 1.88 2.78 0.32 3 1.54 0 0.34 0.28 1.42 -0.26 1.8a3.078 3.078 0 0 1 -2.42 0.44c-1.7 -0.58 -2.64 -0.64 -3.04 -1.84a13.044 13.044 0 0 1 -0.56 -4c0 -0.64 0.5 -0.7 0.84 -0.86 5.88 -2.86 6.14 -2.82 6.42 -3.2 2 -2.54 -5.28 0.76 -7.54 1.64 -2.26 0.88 -0.22 2.66 -2.7 4.74a11.35 11.35 0 0 1 -4.12 2.18 2.366 2.366 0 0 1 -2.24 -0.32 1.012 1.012 0 0 1 -0.388 -0.79 1.006 1.006 0 0 1 0.388 -0.79c1.84 -1.2 2.38 -1.58 3.48 -2.36 2.86 -2 2.88 -3.5 4.96 -6 1.28 -1.62 3.28 -0.74 7.18 -2.5 1.7 -0.76 1.4 -2 -0.38 -1.62 -7.72 2 -6.48 0.18 -11.48 7.5 -0.18 0.26 -0.54 0.5 -0.66 0.24a11.18 11.18 0 0 1 -1.22 -3.18c0.14 -0.536 0.44 -1.018 0.86 -1.38 2.28 -2 2.52 -2.54 4.76 -2.78 4.3 -0.64 2.5 -1.02 7.98 -2.98l-0.1 0.18Zm-8 -1.28c1.06 0 0.96 0.14 0.76 0.72a3.32 3.32 0 0 0 -0.12 1.28c-0.16 0.58 -0.66 0.44 -1.04 0.5a4.464 4.464 0 0 0 -2.72 1.16c-2.52 2.4 -4.5 3.52 -3.32 6 1.44 3.18 1.32 2.94 0.7 3.46 -2.88 2.4 -3.04 2.48 -3.26 3.24 -0.52 1.66 1.6 4.56 5.42 2.8a12.886 12.886 0 0 0 3.78 -2.14c0.7 -0.68 0.24 2.32 1.8 2.9 4 1.46 4.4 1.4 5.76 1.02a3.228 3.228 0 0 0 2 -1.514 3.24 3.24 0 0 0 0.32 -2.486c-0.12 -1.58 4.68 0.76 5.36 0.98 11.52 3.74 14.84 1.28 19.64 1.48 1.42 0 -0.36 2 1.84 3.54 0.754 0.458 1.56 0.828 2.4 1.1 0.68 0.28 0.16 0.52 -0.64 0.5l-69.66 -0.8c-1.8 0 -2 -0.16 -1.16 -0.84 0.48 -0.36 8.88 -6.14 20.24 -15.74 10.02 -8.5 6.52 -7.34 11.96 -7.34l-0.06 0.18Zm-51.52 -74c4 -1.04 5.8 -1.48 7.12 -1.74 2.36 -0.48 2.38 -0.44 3.52 1.48 1.14 1.92 4.4 8.26 13.74 28.74 10 21.88 22.14 43.76 21.78 44.42 -1.42 2.52 -27.42 22.66 -30 24.42 -0.54 0.36 -0.8 0.3 -1.58 -1.16 -44.4 -83.5 -44.74 -83.98 -45.56 -86.54 -0.34 -2.28 1.02 -2.16 31.04 -9.72l-0.06 0.1Zm13.22 99.42c0.76 -1.14 1.78 -0.56 2 0.34a1.882 1.882 0 0 1 -0.7 2.16c-1.1 0.54 -2.02 -1.44 -1.24 -2.6l-0.06 0.1ZM80 156.32c-0.74 -1.5 -1.14 -2 -0.46 -3.44 1.18 -2.36 0.88 -0.48 2.32 2.3S124.8 236.36 126 238.76c0.3 0.56 0.26 0.54 -0.28 0.96 -0.54 0.42 -0.8 1.24 -1.14 0.7 0.04 -0.02 -37.2 -69.58 -44.58 -84.1Zm0.6 54c0.66 0.22 1.02 -0.14 -0.8 -1.52 -0.54 -0.4 -0.68 -0.58 0.12 -2 0.226 -0.49 0.56 -0.92 0.98 -1.26 0.3 0 0.56 0.64 0.92 1.38 0.78 1.62 1.46 1.18 0 -2.12 -1.12 -2.4 -3.1 2.44 -3.44 3.04 -0.14 0.22 -0.24 0.3 -0.96 -0.12s-0.44 -1.02 2 -4.4c0.242 -0.366 0.502 -0.72 0.78 -1.06 0.92 -1.04 1.58 -0.8 2.12 0.38a44.594 44.594 0 0 1 2.38 8.12c0.22 1.04 -1.74 0 -1.04 1.08a35.54 35.54 0 0 1 4.48 4.78c0.34 0.456 0.652 0.93 0.94 1.42 0.3 0.862 0.754 1.662 1.34 2.36 1.334 1.04 2.598 2.17 3.78 3.38 0.2 0.2 0.42 0.62 -0.38 0.68 -0.8 0.06 -1.9 -0.18 -1.32 0.94 0.34 0.64 0.62 1.14 0.76 1.48 0.14 0.34 0.62 1.56 0.22 1.44a18.814 18.814 0 0 0 -2.68 -1.12c-2.28 -0.42 0.14 2.66 -6.26 7 -1.26 0.86 -2.24 0.68 -4.22 1.48 -2.7 1.08 -8.34 2.7 -11.02 1.6 -0.38 -0.16 -5.42 -1.16 -4.58 -4.36 0.12 -0.52 -0.24 -0.7 -0.74 -0.5 -2.16 0.82 -3.02 2.94 -3.02 0.74s0.6 -2.84 0 -3.14c-0.6 -0.3 -1.78 2.38 -2.38 2.74 -0.24 0.14 -0.86 -0.92 -0.96 -2 -0.34 -3.34 1.42 -4.54 1.44 -5.78a7.172 7.172 0 0 1 0 -2 18.004 18.004 0 0 1 3.5 -8.42c0.3 -0.42 0.42 -0.92 0.2 -1.02 -0.22 -0.1 -1.8 1.3 -2.1 1.64 -0.62 0.68 -0.74 0.68 -0.86 -0.36a25.28 25.28 0 0 1 0 -8c0.24 -1.16 3.46 0 6.58 2.26 0.7 0.52 0.68 0.76 0 1.36 -1.68 1.64 -1.14 2 -0.54 1.74a18.994 18.994 0 0 1 8.12 -2.96 12.85 12.85 0 0 1 6.7 1.12l-0.06 -0.02Zm6.16 27.44c-0.32 0 -0.48 0.36 -0.36 0.8 0.1 0.63 0.1 1.27 0 1.9 0 0.84 -0.64 0.82 -1.14 1.02 -1.88 0.74 -1.14 -2.46 -2.38 -2.14 -0.76 0.2 -0.26 1.4 -0.4 2.28 0 0.16 -1.1 -0.38 -1.28 -0.82 -2 -4.76 -1.38 -2.62 3.88 -5.06 0.22 -0.12 -0.14 0 2 -1.74 0.88 -0.72 3.02 4.36 1.4 6 -1.1 1.34 -0.1 -2.36 -1.66 -2.22l-0.06 -0.02Zm-12.5 3.08c-1.3 0.24 0 2.22 -0.9 2.42 -2.38 0.58 -1.66 -2.58 -2.54 -2.26 -1.38 0.46 0.18 2.72 -0.9 2.16a3.89 3.89 0 0 1 -1.84 -3.3c0.24 -2.28 -0.52 -0.2 5.8 -0.7 1.8 -0.16 2.18 -0.66 2.42 0 0.78 2 -0.76 4.44 -1.24 3.1 -0.02 -0.26 -0.26 -1.48 -0.74 -1.4l-0.06 -0.02Zm-57.04 -9.06c0.6 -3.2 1.36 -8.34 3.24 -11.02 3.78 -5.34 5.18 -12.76 17.14 -16.2 5.66 -1.64 12.22 -4.5 20.24 -2 6.92 2.1 13.56 2.14 16.3 4.8 0.56 0.52 -0.68 0.66 -0.8 0.68 -3.14 0.14 -4.12 1.52 -5.06 0.66 -1.48 -1.34 -5.58 -4 -8.34 -3.56 -1.48 0.22 -1.32 1.08 -1.52 3.3 -0.64 7.02 0.92 8.42 0.5 10 -0.52 2 0 -0.22 -1.44 5.58 -0.22 0.94 0.38 0.6 -0.32 2.26 -0.7 1.66 -1.36 5.16 -0.2 6.78 0.44 0.62 0 0.58 -3.68 1.26 -1.74 0.32 3.16 -5.18 -1.6 -13.74a13.58 13.58 0 0 0 -5.88 -5.3 8.014 8.014 0 0 0 -8.22 -0.36c-0.64 0.2 -1.36 2.2 2.1 1.02 5.32 -1.82 16.14 6.84 11.48 18.12 -0.44 1.08 -3.9 0.98 -3.4 2.24 0.14 0.32 1.32 0.2 2.82 0 3.48 -0.4 6.76 -1.7 8.78 -1.54 0.76 0 0.66 1.3 1.12 1.84 0.46 0.54 0.66 0 2.1 -1.56 0.74 -0.8 0.36 0.62 2.36 2.12 0.394 0.224 0.752 0.508 1.06 0.84 0.8 1.24 0.7 2.78 0.28 2.34 -0.42 -0.44 -0.3 -0.38 -0.46 -0.56 -0.68 -0.82 -2.52 -1.76 -2.98 -0.72 -0.46 1.04 0.58 0.96 0.84 1.12 2.18 1.26 0.86 2.34 -1.3 1.6 -3.08 -1.04 -8 0.74 -10.92 2.12 -8.44 4 -12.8 1.86 -19.12 -3.38 -7.06 -5.84 -4.52 -6.6 -5.54 -9.68 -1.12 -3.46 -3.3 4.88 2.68 9.52 13.24 10.28 6.56 4.34 17.84 9.48 7.04 3.22 9.14 16.46 8 18.8 -0.28 0.56 -0.46 0 -1.46 -1.08s-1.18 0.16 -1.76 0.86c-1.2 1.52 -1.8 -3.22 -3.1 -0.76 -1.7 3.18 -1.4 2.42 -2.8 0.2 -0.66 -1.02 -1.48 -0.94 -1.66 0.4 -0.1 0.66 -0.2 1.12 -0.54 1.38a19.52 19.52 0 0 0 -2.6 -3.22c-0.84 -0.96 -0.66 -4.96 -6.38 -7.76a32.27 32.27 0 0 1 -4.84 -2.54c-1.72 -1.3 -7.18 -4.98 -9.54 -9.18a22.8 22.8 0 0 1 -3.42 -15.16Zm-4 21.56c6.2 -5.8 5.88 -5.72 6.3 -5.1a43.926 43.926 0 0 0 4.7 5.54c-1.08 0.22 -5.62 0 -5.62 0.12 -5.56 0.1 -6.32 0.22 -5.48 -0.56h0.1Zm23.26 8.82c-27.44 0 -24.26 0.32 -24.28 -0.5 -0.28 -6.62 -0.34 -6 0.7 -6 15.52 0 12.98 -0.64 16.64 2.12 2.4 1.82 4.84 1.88 7.08 4 -0.06 0.02 0.18 0.38 -0.24 0.38h0.1Zm2.32 15.44c-3.2 0 -2.24 2 -1.14 -12.56 0 -0.26 -0.12 -0.64 0.34 -0.72 2.3 -0.46 2 8.36 1.84 8.36 -0.1 5.32 0.16 4.92 -1.14 4.92h0.1Zm17.02 -4.88a28.96 28.96 0 0 1 -3.88 12.54 5.354 5.354 0 0 1 -7.3 2c-5.28 -3.64 -2.98 -8.34 -3.08 -12.36l0 -5.2c0 -0.14 0.12 -0.46 0.38 0 2.42 3.78 2.64 3.04 3.66 0.52 0.42 -1.04 1.58 3.58 2.8 1.38 1.04 -1.9 1.32 -3 1.82 -2 0.8 1.46 0.9 2.68 1.68 1.66 1.52 -2 1.34 -2.76 2.3 0.62 0.42 1.66 1.6 -2 1.52 0.84h0.1Zm150.84 4.66c-163.86 0.12 -150 0.54 -149.78 -0.6 1.56 -6.42 -0.68 -12.42 1.02 -12.44 2.22 0 131.56 0.26 146.34 0.38 1.72 0 1.6 0.4 1.72 1.08 2.04 12.6 2.04 11.58 0.6 11.58h0.1Zm25.4 -15.1c-5.14 0 -173.12 -0.14 -173.16 -0.14 -2.54 0 -1.38 1.32 -3.68 -6 -0.32 -0.98 173.06 -0.92 176.28 -0.92 1.24 0 1.22 0 1.22 0.78 -0.06 6.86 0.08 6.28 -0.72 6.28h0.06Zm-7.08 -8.98c-177.02 0 -170.56 1.18 -171.46 0 -6.26 -8.48 -11.44 -4 -1.8 -7.62 6.88 -2.62 6.56 -2.84 9.86 -2.24 2.2 0.4 2.82 0.78 4.28 -0.18 1.46 -0.96 1.16 -0.8 2 0.24 2.6 3.12 11.8 2.28 10 -4.52 -0.12 -0.46 0 -0.58 0.56 -0.72 1.34 -0.36 -0.14 9.04 10.64 3.66 2.94 -1.48 1.8 -5.84 0.16 -8.68 -0.94 -1.66 1.04 -1.66 1.64 -4 0.22 -0.92 2.72 1 3.74 0.7 0.44 -0.12 0.46 -1.3 0.2 -2.18 -0.6 -2 -1.3 -2 -0.28 -2.18 1.02 -0.18 1.66 -0.62 1.12 -1.44a34.124 34.124 0 0 0 -2.86 -3.1c-0.94 -1.34 2 -0.44 18.72 -0.56 1.2 0 0.28 0 12.72 22.54 0.34 0.856 0.916 1.596 1.66 2.14 2.52 1.38 8.84 0 88 2 2.4 0 3.86 -3.42 5.56 -3.08 3.49 0.582 6.866 1.716 10 3.36 2.64 1.38 3.16 1.24 3.12 2.2 -0.2 4.48 2.14 3.66 -7.68 3.66h0.1Zm-7.32 -11.42a7.852 7.852 0 0 1 -4.7 -1.78 13.662 13.662 0 0 1 -1.34 -6.28c0.32 -7.66 0.32 -8.2 2.76 -12 0.98 -1.52 1.36 -1.36 12.76 -1.44 4.36 0 4.52 1.32 10.22 1.36 6.28 0 2.78 -1.38 16.7 -3.14 1.58 -0.2 1.28 3.5 1.1 4.92 -0.36 2.96 -0.76 3.86 0.24 4.14 2 0.56 2.5 -8 0.62 -11.1 -2.58 -4.38 2.18 -5.38 6 -3.66 1.2 0.56 2.1 0 2 -1.4 0 -0.94 -1.88 -5.26 2.78 -6a19.926 19.926 0 0 1 3.84 0.32c3.74 -0.3 6.7 2.18 7.38 0.74a1.336 1.336 0 0 0 -0.58 -1.4c-1.4 -0.8 -3.58 -0.5 -3.1 -1.56 10 -22.22 13.4 -20.78 20.44 -30.44a53.318 53.318 0 0 0 5.54 -10.26c4.3 -8.22 4.48 -8 14.62 -12.8 4 -2 26.66 -4 24.78 16.18 -0.76 8 -5.36 24.34 -8.24 32 -2.42 6.36 -5.08 12.62 -7.66 17.78a250.458 250.458 0 0 1 -15.32 26.6c-1.24 1.7 -1.24 1.4 -2.9 0.54a18.442 18.442 0 0 0 -13.7 -0.76 22.018 22.018 0 0 0 -13.56 10.12c-0.94 1.44 -1.56 1.16 -18.34 0.72 -6 -0.14 -6.86 -2 -19.52 -4.5 -9.74 -1.76 -14.64 -6.78 -22.92 -6.9h0.1Zm17.54 8c22.4 4.84 15.18 2.78 2.88 6 -2.9 0.74 -3.54 1.46 -3.56 0.56 -0.18 -7.32 -0.52 -6.88 0.58 -6.64l0.1 0.08Zm-0.16 53.32c-0.14 -30 -1.22 -32 0.18 -33.3a13.4 13.4 0 0 1 3.6 -1.52 0.742 0.742 0 0 1 0.96 0.2c13.7 13.9 10.62 17.48 20.52 34.94 0.26 0.44 0.14 0.56 -0.46 0.54 -15.34 -0.12 -21.24 -0.3 -23.48 -0.2 -1.6 -0.02 -1.42 -0.36 -1.42 -0.74l0.1 0.08Zm67.18 28.68c-5.82 0.62 -43.34 -0.18 -54.7 0a31.52 31.52 0 0 1 -8 -0.28 2.916 2.916 0 0 1 -1.66 -2.24c3.62 -0.64 53.36 1.12 65.42 0 0.232 -0.018 0.468 -0.018 0.7 0 0.34 0 0.8 -0.22 0.88 0.48 -0.02 1.34 -0.02 1.66 -2.74 1.96l0.1 0.08Zm0 -4.56c-6.92 1.12 -52.16 -0.16 -65.44 -0.12 -1.7 0 -1.36 3.34 -1.54 -20.22 0 -0.66 0 -1.14 1.16 -1.12 1.16 0.02 14.48 0.38 53.8 0.38 1.4 0 1.42 -0.12 1.42 1.1 0 0 0 6.58 0.12 6.76 1.26 5.4 10.72 5.66 10.7 -2.64 0 -5.02 -0.16 -5.02 0.48 -4.82 9.66 3.04 8.06 19.14 -0.92 20.6l0.22 0.08Zm7.88 -0.62c-6.54 1.1 2.38 -0.22 1.02 -11.9 -1.2 -10.36 -8.54 -8.9 -8 -10.8a33.3 33.3 0 0 0 2.28 -7.68c0.98 -5.64 42.84 -123.78 44.6 -126.74 5.7 -9.58 10.98 -3.46 10.66 1.6 0 6.62 0.96 8.16 -8.32 40.3 -0.12 0.4 -29.26 101.28 -31.86 106.4 -2.14 4.12 -6.04 8 -10.48 8.74l0.1 0.08Zm59.06 -165.08c2.18 0.68 3.5 2.44 4.24 6 2.7 13.44 -5.3 46.82 -24 113.42 -6.34 22.64 -10 40.94 -31.64 44.5 -1.58 0.26 -0.22 -0.36 1.38 -2 4 -4 6.54 -14.14 7.88 -18.7 6.88 -23.2 6 -16.82 12 -39.88 6.24 -24.24 18.82 -60.62 22.9 -84.7a46.12 46.12 0 0 0 0.48 -10.26c0 -2.88 -1.48 -4.16 -2.26 -6 2.64 -0.38 2 -1.44 2.94 -0.92a2.28 2.28 0 0 0 3.34 -0.82c0.44 -0.58 0.32 -1.44 2.6 -0.72l0.14 0.08Zm-3.62 -11c-7.78 -0.96 -7.46 -1.32 -7.42 -4.54 0.12 -8 5.5 -25.3 12.28 -38.2 1.88 -3.56 3.88 -6.88 7.54 -6.98a13.38 13.38 0 0 1 8.54 3.68c5.06 5.58 -1.84 20.6 -5.44 29.6 -4.12 9.82 -6.74 17.48 -15.64 16.36l0.14 0.08Z" stroke-width="1"></path><path fill="#62ca7d" d="M73.8 229.22a2.48 2.48 0 0 0 0.84 2.72 2.902 2.902 0 0 0 4.8 -0.78c0.32 -0.56 0.32 -0.74 0.98 -0.5a3.45 3.45 0 0 0 2.84 -0.14c1.82 -1 2.36 -3.76 1.54 -4.4 -0.82 -0.64 -0.72 0.42 -1.04 1.56a3.78 3.78 0 0 1 -1.32 2 2.698 2.698 0 0 1 -2.64 -0.74c-1.22 -1.08 -0.88 0.76 -1.78 2a1.74 1.74 0 0 1 -1.76 0.58c-1.3 -0.34 -1.34 -1.56 -1.46 -2a0.564 0.564 0 0 0 -0.398 -0.492 0.552 0.552 0 0 0 -0.602 0.192Z" stroke-width="1"></path><path fill="#62ca7d" d="M131.46 227.16c-2.86 -0.58 -4.42 -0.66 -4.8 -1.24 0.054 -1.72 0.406 -3.42 1.04 -5.02 0.48 -1.46 -0.24 -1.56 -0.96 -1.52 -0.72 0.04 -0.76 0.38 -2.4 6.68 -0.46 1.8 0 1.74 4.46 2.74 2.94 0.66 3.7 1.02 4 -0.36 0.12 -0.72 0.06 -1 -1.34 -1.28Z" stroke-width="1"></path><path fill="#62ca7d" d="M84 223.32c0.68 0.34 1.26 -1.4 1.32 -2.18 0.06 -0.78 -0.5 -0.98 -0.86 0 -0.72 1.7 -1.08 1.88 -0.46 2.18Z" stroke-width="1"></path><path fill="#62ca7d" d="M134.82 214.56a0.46 0.46 0 0 0 -0.64 -0.28l-0.66 0.32a0.816 0.816 0 0 0 -0.46 0.8c0 1.02 1.74 11.26 2 11.84a0.66 0.66 0 0 0 0.98 0.32l0.66 -0.46a0.924 0.924 0 0 0 0.4 -0.92c-0.42 -2.18 -1.64 -9.6 -2.28 -11.62Z" stroke-width="1"></path><path fill="#62ca7d" d="M146.32 213.36c-0.56 -0.18 -4.64 -1.02 -6.18 -1.2 -0.32 0 -0.64 -0.16 -0.82 0.36a2.82 2.82 0 0 0 -0.16 1.22c0 0.38 0.3 0.34 0.86 0.46 5.36 1.18 5.54 0.86 5.24 1.72 -2.22 6.5 -2 6 -0.58 6.28a0.774 0.774 0 0 0 0.35 0.052 0.81 0.81 0 0 0 0.73 -0.672c1.92 -6.2 2.74 -7.58 0.56 -8.22Z" stroke-width="1"></path><path fill="#62ca7d" d="M118.14 208.92a1.564 1.564 0 0 0 -1.594 -1.34 1.556 1.556 0 0 0 -1.506 1.44 1.58 1.58 0 1 0 3.1 -0.1Z" stroke-width="1"></path><path fill="#62ca7d" d="M118.74 213.78a1.682 1.682 0 0 0 -0.5 2.3 1.656 1.656 0 0 0 1.036 0.726 1.628 1.628 0 0 0 1.244 -0.226 1.66 1.66 0 1 0 -1.78 -2.8Z" stroke-width="1"></path><path fill="#62ca7d" d="M345.88 151.42a6 6 0 0 1 3.26 2.92 0.9 0.9 0 0 0 1.64 -0.6c-1.26 -3.44 -3.02 -4 -9.5 -6.26a1.88 1.88 0 0 0 -1 0c-0.52 0 -0.6 0.22 -0.58 0.76 0.04 0.92 0.48 0.62 6.18 3.18Z" stroke-width="1"></path><path fill="#62ca7d" d="M115.24 184c-0.14 0.94 0 9.44 0.2 10.22a0.98 0.98 0 0 0 1.84 0c0.12 -0.78 0.26 -0.22 -0.16 -10.32 0 -0.7 -0.24 -0.9 -0.92 -0.96 -0.68 -0.06 -0.86 0.18 -0.96 1.06Z" stroke-width="1"></path><path fill="#62ca7d" d="M120.94 125.72c0.82 -0.4 -0.38 -1.52 -1.04 -6a4.2 4.2 0 0 1 1.2 -4.3c4 -3.64 13.32 -5.5 9.86 -10.42 -2.86 -4 -4.76 -5.8 -5.5 -7.54 -1.8 -4.4 -0.2 -4.5 6 -7.04 3.04 -1.24 6.38 -3.86 4.54 -6.6 -0.68 -1 -0.92 -2.5 0.12 -3.12 3.26 -2 3.88 -5.54 2.84 -5.82 -1.66 -0.44 -0.82 0.66 -1.54 2.2a6.4 6.4 0 0 1 -2.54 2.38c-1.5 0.88 -1.26 3.82 0 5.54 1.86 2.78 -8.42 5.8 -9.6 6.3 -2.22 0.92 -2.36 3.3 -1.66 5.58a30 30 0 0 0 5.76 8.88c1.66 2 0.9 1.54 -7.74 6.98 -3.02 2 -3.5 3.5 -3.5 5.74s0.94 8.18 2.8 7.24Z" stroke-width="1"></path><path fill="#62ca7d" d="M177.38 187.56C174.7 184 174 182.42 172 180.22c-2.82 -3.16 -5.66 -0.82 -10.62 -1.28 -4.96 -0.46 -4 -8.18 -6.14 -4.62 2 8 7.76 6.42 12.52 5.84 3.66 -0.44 6.34 7.5 9.4 9.84 1.7 1.32 3.44 1 3.3 -0.46 -0.14 -1.46 -1.66 -0.1 -3.08 -1.98Z" stroke-width="1"></path><path fill="#62ca7d" d="M113.52 201.8a1.456 1.456 0 0 0 -1.12 0.516 1.484 1.484 0 0 0 -0.34 1.184c0.16 1.06 0.74 1.42 1.32 1.42a1.606 1.606 0 0 0 1.36 -0.64 1.646 1.646 0 0 0 -0.46 -2.192 1.636 1.636 0 0 0 -0.76 -0.288Z" stroke-width="1"></path><path fill="#62ca7d" d="M73.74 106.84c2.24 3.04 1.4 4.12 1.78 10 0.7 10.84 11.52 0.6 10.6 4.28 -3.08 12.18 -2.38 12.84 4 12.4 4 -0.26 4.52 -0.42 4.28 -1.48 -0.12 -0.58 -0.3 -0.7 -1.44 -0.64 -1.842 0.316 -3.71 0.47 -5.58 0.46a1.28 1.28 0 0 1 -1.32 -1.04 16.76 16.76 0 0 1 1.2 -6.82c0.82 -2.66 1.56 -4.24 0.4 -5.16 -1.16 -0.92 -3.72 0.16 -7.36 1.16 -2 0.58 -3.28 0.28 -3.3 -6.46 0 -7.28 -2.66 -7.6 -4 -12 -0.2 -0.7 -2 -1.02 -1.52 1.06a11.32 11.32 0 0 0 2.26 4.24Z" stroke-width="1"></path><path fill="#62ca7d" d="M93.46 161.86c1.14 0.3 1.3 -1.88 0.74 -2 -2 -0.68 -3.22 -0.72 -3.66 -0.96 -0.76 -0.38 0.28 -1.18 1.04 -4.42 0.24 -1.06 -1.22 -1.62 -1.86 -0.26 -0.646 1.478 -1.18 3.002 -1.6 4.56 -0.62 1.96 -0.02 1.58 5.34 3.08Z" stroke-width="1"></path><path fill="#62ca7d" d="M81.62 222c0.8 0.46 1.3 -0.34 1.18 -1.22 0 -0.52 -0.4 -1.4 -0.98 -1.44 -1.04 -0.18 -1.26 1.64 -0.2 2.66Z" stroke-width="1"></path><path fill="#62ca7d" d="M76.42 226.82c1.78 0.2 2 0.9 2.52 0.68 0.52 -0.22 0.36 -0.84 0.8 -1.38 0.44 -0.54 0.82 -0.66 0.98 -1.34a1.08 1.08 0 0 0 -0.82 -1.28c-0.8 -0.18 -1.64 0.72 -2 0.88 -0.72 0.3 -1.32 0 -2 0.26 -0.98 0.28 -1.14 2 0.52 2.18Z" stroke-width="1"></path><path fill="#62ca7d" d="M62.56 208.26c-2 -0.48 -1.78 3.8 -1.62 4.44 0.16 0.64 0.62 0.34 0.66 0.1 0 -0.56 0.12 -1.48 0.26 -2.7 0.14 -1.22 1.16 -0.62 2.82 -0.16 0.78 0.2 1.32 -0.86 -2.12 -1.68Z" stroke-width="1"></path><path fill="#62ca7d" d="M72 226.62c0 -0.36 -0.3 -0.38 -0.44 -0.36a2.982 2.982 0 0 1 -2 -0.44c-0.5 -0.34 -0.88 -0.5 -0.74 0.16 0.26 1.52 3.28 1.8 3.18 0.64Z" stroke-width="1"></path><path fill="#62ca7d" d="M71.54 222.22c-0.84 0.24 -0.58 1.4 -0.28 2 0.48 1.08 2 0.86 1.54 -0.78 -0.2 -0.76 -0.52 -1.44 -1.26 -1.22Z" stroke-width="1"></path><path fill="#62ca7d" d="M142.74 143.18c2 1.36 3.18 2.92 5.2 3.18 4 0.54 5.74 -4.56 7.58 -7.68 1.1 -1.86 2.2 -2.84 4.12 -2 3.72 1.78 7.54 10 11.2 3.48 1.32 -2.38 1.56 -3.36 2.6 -3.2 1.68 0.656 3.432 1.106 5.22 1.34 2.44 0.14 3.76 -1.54 2.96 -2.6 -0.3 -0.4 -1.08 0 -1.62 0.48 -1.84 1.76 -4 0 -6 -0.6 -1.42 -0.4 -2.24 -0.6 -3.3 1.34 -1.88 3.44 -2.38 5.1 -5.82 2.22 -2.28 -2 -4.6 -5.38 -8.34 -4 -1.84 0.7 -2.46 2.58 -4.44 6 -3.04 5.22 -4 3.84 -8.8 0.58 -1.6 -1.04 -4.92 -1.44 -0.56 1.46Z" stroke-width="1"></path><path fill="#62ca7d" d="M214.38 205.14a8.14 8.14 0 0 0 8.42 7.22c7.46 -0.16 11.42 -7.2 8.64 -12.8 -1 -2 -2.32 -2.14 -1.26 -2.8 2.72 -1.64 4.9 -0.82 4.9 -2.16 0 -2 -4.3 -0.78 -6.6 1.04 -1.38 1.08 -4.56 -2.6 -10.26 1.36 -3.16 2.2 -2.68 4.18 -4 4.66a9.44 9.44 0 0 0 -4.7 3.58c-0.46 0.92 0.4 1.84 1.34 0.92 3.8 -3.74 3.38 -2.16 3.52 -1.02Zm11.86 -7.44a16.372 16.372 0 0 0 -2 3.44c-0.42 1.12 -1.18 -0.86 -5.06 -0.48a9.55 9.55 0 0 1 -2 0 7.38 7.38 0 0 1 9.06 -2.96Zm-6.58 4.82c2.66 0.48 3.38 0.4 4.18 1.54 0.8 1.14 2 0.68 2.14 -0.78a7.314 7.314 0 0 1 1.88 -4.28c0.2 -0.28 0.36 -0.28 0.64 0 4.74 4.28 0 12.26 -6.88 11.28a6.302 6.302 0 0 1 -5.42 -6.68c0 -0.92 0.7 -0.78 3.46 -1.08Z" stroke-width="1"></path><path fill="#62ca7d" d="M129.4 169.6c-2 0.64 -7.02 2.6 -24 9.56a0.66 0.66 0 0 0 -0.36 0.88c0.38 0.88 0.76 1.06 1.68 0.84 1.32 -0.32 8 -2.88 23.04 -9.02 1 -0.42 1.66 -0.64 1.48 -1.6 -0.18 -0.96 -0.74 -1.02 -1.84 -0.66Z" stroke-width="1"></path><path fill="#62ca7d" d="M101.68 172.68c-0.42 0.2 -0.4 0.98 0 1.52 0.16 0.22 0.44 0.6 1.76 0.14 4.94 -1.74 24.78 -8.92 26.1 -9.64 1.32 -0.72 0.46 -2.56 -1.1 -2 -2.74 1.12 -24.68 9 -26.76 9.98Z" stroke-width="1"></path><path fill="#62ca7d" d="M283.62 102c0.24 2.52 3.42 2.12 1.74 -0.62a0.938 0.938 0 0 0 -1.74 0.62Z" stroke-width="1"></path><path fill="#62ca7d" d="M120.48 183.4c0.2 0.12 3.28 1.26 4 1.54 1 0.42 0.94 0.84 0.58 1.52a36.24 36.24 0 0 0 -1.66 4.76c-0.3 0.54 1.36 1.7 1.82 0.4 0.82 -2.28 1.42 -4 1.72 -5.22 0.74 -2.78 -0.14 -2.68 -3.86 -4 -1.52 -0.54 -2.32 -1.56 -2.82 -0.18 -0.26 0.54 -0.26 0.84 0.22 1.18Z" stroke-width="1"></path><path fill="#62ca7d" d="M100.56 167.4c1.14 -0.38 5.24 -2 24 -8.72 2 -0.72 1.78 -3.08 -1.14 -2 -21.76 8.22 -22.5 8.22 -23.88 9.04 -0.74 0.42 -0.54 0.86 0 1.62 0.14 0.36 0.46 0.24 1.02 0.06Z" stroke-width="1"></path><path fill="#62ca7d" d="M94.12 169.26a1.54 1.54 0 0 0 2.868 -1.132 1.56 1.56 0 0 0 -0.988 -0.968c-1.38 -0.48 -2.24 1.02 -1.88 2.1Z" stroke-width="1"></path><path fill="#62ca7d" d="M97.52 160.8c0.44 0 0.9 0.12 1.14 -0.44 0.2 -1.72 0 -4.8 0.14 -8.86 0 -1.1 -2 -1.22 -2 0 0 0.2 -0.12 8 0 8.7 0.12 0.7 0.4 0.6 0.72 0.6Z" stroke-width="1"></path><path fill="#62ca7d" d="M102.14 150.86c4.9 1.02 4.56 0.6 3.88 2.78 -0.22 0.72 -0.96 2.76 -1.2 3.54 -0.34 1.1 0.78 1.44 1.48 0.96s0.66 -1.1 1.58 -4 1.66 -3.56 -0.84 -4.18c-1 -0.24 -3.82 -0.88 -4.38 -0.94 -0.56 -0.06 -1.36 0.12 -1.4 1 -0.02 0.48 0.16 0.7 0.88 0.84Z" stroke-width="1"></path><path fill="#62ca7d" d="M272.68 214c8.74 5.48 7.1 5.4 8.86 6.26 1.52 0 1.26 -1.4 0 -2.4 -2.54 -2.12 -12.18 -9.12 -12.16 -6 0.08 1.18 1.98 1.4 3.3 2.14Z" stroke-width="1"></path><path fill="#62ca7d" d="M108.92 192.46c-1.1 -0.62 -0.32 -0.24 1.46 -5.16 0.12 -0.68 -0.38 -0.72 -0.78 -0.82 -0.84 -0.24 -1.12 0.5 -1.38 1.02 -1.68 3.44 -2.9 5.4 -1.38 6.2 1.464 0.91 2.98 1.73 4.54 2.46 0.6 0.32 1.44 -1.28 0.88 -1.76 -0.56 -0.48 -1.4 -0.82 -3.34 -1.94Z" stroke-width="1"></path><path fill="#62ca7d" d="M276.3 236.34c0.24 0.96 0.18 2 1.26 2s0.84 -0.9 0.88 -1.56c-2.54 -10.56 -5.2 -13.62 -11.58 -21.58 -0.56 -0.68 -2.3 -0.18 -1.24 1.62 1.06 1.8 7.62 7.18 10.68 19.52Z" stroke-width="1"></path><path fill="#62ca7d" d="M102.14 179.88c-0.62 -0.2 -1.8 0 -1.82 1.66 -0.02 1.66 1.68 2 2.48 1.36a1.76 1.76 0 0 0 -0.66 -3.02Z" stroke-width="1"></path><path fill="#62ca7d" d="M317.64 82c0.36 0.72 1.58 0.58 1.6 -0.72 -5.16 -14.14 -9.44 -15.14 -14.94 -23.2 -0.44 -0.66 -1 -0.34 -1.18 0.24 -0.48 1.56 2.58 4.58 6.28 8.84 4.6 5.24 5.1 8.84 8.24 14.84Z" stroke-width="1"></path><path fill="#62ca7d" d="M121.26 208.94c1.78 -0.7 19.38 -10 19.44 -10 1.03 -0.432 1.988 -1.02 2.84 -1.74 0.3 -0.36 0 -0.64 -0.16 -1.2 -0.16 -0.56 -1.12 -0.4 -1.6 -0.16 -0.88 0.44 -20.3 10.48 -21.2 11.12a1.044 1.044 0 0 0 -0.12 1.93c0.25 0.122 0.538 0.14 0.8 0.05Z" stroke-width="1"></path><path fill="#62ca7d" d="M96.98 174.96a1.5 1.5 0 0 0 1.76 1.6c0.7 0 1.16 -0.6 1.14 -1.68a1.46 1.46 0 1 0 -2.9 0.08Z" stroke-width="1"></path><path fill="#62ca7d" d="M118.76 202s21.72 -10.16 22.38 -10.78a1.42 1.42 0 0 0 0.12 -1.44c-0.68 -0.88 0.94 -1.78 -23.26 10.22 -1.88 0.94 -1.44 2.96 0.76 2Z" stroke-width="1"></path><path fill="#62ca7d" d="M123.48 214.18c0.38 0.64 0.84 0.32 4.42 -1.52 3.1 -1.6 8.52 -4.24 18.72 -9.82 0.42 -0.22 1.16 -0.5 0.86 -1.36 -0.3 -0.86 -0.26 -1.42 -2 -0.4 -2.52 1.42 -12.28 6 -20.66 10.78 -2.16 1.16 -1.74 1.68 -1.34 2.32Z" stroke-width="1"></path></svg>