<svg xmlns="http://www.w3.org/2000/svg" viewBox="0 0 1000 1000" id="Twitter-Fill--Streamline-Mingcute-Fill.svg" height="1000" width="1000"><desc>Twitter Fill Streamline Icon: https://streamlinehq.com</desc><g fill="none" fill-rule="nonzero"><path d="M1000 0v1000H0V0h1000ZM524.7083333333333 969.0833333333333l-0.45833333333333326 0.08333333333333333 -2.958333333333333 1.4583333333333335 -0.8333333333333333 0.16666666666666666 -0.5833333333333333 -0.16666666666666666 -2.958333333333333 -1.4583333333333335c-0.41666666666666663 -0.16666666666666666 -0.7916666666666666 -0.041666666666666664 -1 0.20833333333333331l-0.16666666666666666 0.41666666666666663 -0.7083333333333334 17.833333333333332 0.20833333333333331 0.8333333333333333 0.41666666666666663 0.5416666666666666 4.333333333333333 3.083333333333333 0.6249999999999999 0.16666666666666666 0.5 -0.16666666666666666 4.333333333333333 -3.083333333333333 0.5 -0.6666666666666666 0.16666666666666666 -0.7083333333333334 -0.7083333333333334 -17.791666666666664c-0.08333333333333333 -0.41666666666666663 -0.37499999999999994 -0.7083333333333334 -0.7083333333333334 -0.7499999999999999Zm11.041666666666666 -4.708333333333333 -0.5416666666666666 0.08333333333333333 -7.708333333333333 3.8749999999999996 -0.41666666666666663 0.41666666666666663 -0.125 0.45833333333333326 0.7499999999999999 17.916666666666664 0.20833333333333331 0.5 0.3333333333333333 0.29166666666666663 8.375 3.8749999999999996c0.5 0.16666666666666666 0.9583333333333333 0 1.2083333333333333 -0.3333333333333333l0.16666666666666666 -0.5833333333333333 -1.4166666666666667 -25.583333333333332c-0.125 -0.5 -0.41666666666666663 -0.8333333333333333 -0.8333333333333333 -0.9166666666666665Zm-29.791666666666664 0.08333333333333333a0.9583333333333333 0.9583333333333333 0 0 0 -1.125 0.25l-0.25 0.5833333333333333 -1.4166666666666667 25.583333333333332c0 0.5 0.29166666666666663 0.8333333333333333 0.7083333333333334 1l0.6249999999999999 -0.08333333333333333 8.375 -3.8749999999999996 0.41666666666666663 -0.3333333333333333 0.16666666666666666 -0.45833333333333326 0.7083333333333334 -17.916666666666664 -0.125 -0.5 -0.41666666666666663 -0.41666666666666663 -7.666666666666666 -3.833333333333333Z" stroke-width="1"></path><path fill="#3ee922" d="M191.41666666666666 207.66666666666666a41.666666666666664 41.666666666666664 0 0 1 39.20833333333333 17.875C292.125 315.5 365.9583333333333 352.9166666666667 447.91666666666663 361.41666666666663c4 -35.041666666666664 13.458333333333332 -69.66666666666666 31.25 -100.16666666666666 26.083333333333332 -44.75 68.49999999999999 -77.66666666666667 129.08333333333331 -89.83333333333333 83.74999999999999 -16.833333333333332 147.5 13.5 184.45833333333331 50.625l74.66666666666666 -13.958333333333334a41.666666666666664 41.666666666666664 0 0 1 43.87499999999999 61.58333333333333l-71.66666666666666 125.91666666666666c6.541666666666666 181.70833333333331 -43.95833333333333 308.5416666666667 -151.62499999999997 395.9166666666667 -57.083333333333336 46.333333333333336 -138.83333333333331 72.625 -228.54166666666666 80.75 -90.41666666666666 8.166666666666666 -192.625 -1.7083333333333333 -294.2083333333333 -31.375a41.666666666666664 41.666666666666664 0 0 1 0.29166666666666663 -80.08333333333333c51.08333333333333 -14.541666666666664 90 -27.083333333333332 125.125 -49.041666666666664 -49.958333333333336 -26.5 -86.74999999999999 -61.166666666666664 -112.79166666666666 -100.66666666666666 -36.166666666666664 -54.916666666666664 -49.58333333333333 -116.16666666666666 -52.25 -171.375 -2.6666666666666665 -55.20833333333333 5.291666666666666 -106.37499999999999 13.708333333333334 -143.25 4.791666666666667 -21.041666666666664 10.375 -42.12499999999999 18.083333333333332 -62.291666666666664a41.666666666666664 41.666666666666664 0 0 1 34.08333333333333 -26.5Z" stroke-width="1"></path></g></svg>