<svg xmlns="http://www.w3.org/2000/svg" viewBox="0 0 1000 1000" id="Phone-Fill--Streamline-Mingcute-Fill.svg" height="1000" width="1000"><desc>Phone Fill Streamline Icon: https://streamlinehq.com</desc><g fill="none" fill-rule="evenodd"><path d="M1000 0v1000H0V0h1000ZM524.7083333333333 969.0833333333333l-0.45833333333333326 0.08333333333333333 -2.958333333333333 1.4583333333333335 -0.8333333333333333 0.16666666666666666 -0.5833333333333333 -0.16666666666666666 -2.958333333333333 -1.4583333333333335c-0.41666666666666663 -0.16666666666666666 -0.7916666666666666 -0.041666666666666664 -1 0.20833333333333331l-0.16666666666666666 0.41666666666666663 -0.7083333333333334 17.833333333333332 0.20833333333333331 0.8333333333333333 0.41666666666666663 0.5416666666666666 4.333333333333333 3.083333333333333 0.6249999999999999 0.16666666666666666 0.5 -0.16666666666666666 4.333333333333333 -3.083333333333333 0.5 -0.6666666666666666 0.16666666666666666 -0.7083333333333334 -0.7083333333333334 -17.791666666666664c-0.08333333333333333 -0.41666666666666663 -0.37499999999999994 -0.7083333333333334 -0.7083333333333334 -0.7499999999999999Zm11.041666666666666 -4.708333333333333 -0.5416666666666666 0.08333333333333333 -7.708333333333333 3.8749999999999996 -0.41666666666666663 0.41666666666666663 -0.125 0.45833333333333326 0.7499999999999999 17.916666666666664 0.20833333333333331 0.5 0.3333333333333333 0.29166666666666663 8.375 3.8749999999999996c0.5 0.16666666666666666 0.9583333333333333 0 1.2083333333333333 -0.3333333333333333l0.16666666666666666 -0.5833333333333333 -1.4166666666666667 -25.583333333333332c-0.125 -0.5 -0.41666666666666663 -0.8333333333333333 -0.8333333333333333 -0.9166666666666665Zm-29.791666666666664 0.08333333333333333a0.9583333333333333 0.9583333333333333 0 0 0 -1.125 0.25l-0.25 0.5833333333333333 -1.4166666666666667 25.583333333333332c0 0.5 0.29166666666666663 0.8333333333333333 0.7083333333333334 1l0.6249999999999999 -0.08333333333333333 8.375 -3.8749999999999996 0.41666666666666663 -0.3333333333333333 0.16666666666666666 -0.45833333333333326 0.7083333333333334 -17.916666666666664 -0.125 -0.5 -0.41666666666666663 -0.41666666666666663 -7.666666666666666 -3.833333333333333Z" stroke-width="1"></path><path fill="#3ee922" d="M689.6666666666666 922.2083333333333c-59.99999999999999 -2.208333333333333 -230.04166666666666 -25.708333333333332 -408.125 -203.74999999999997 -178.04166666666666 -178.08333333333331 -201.5 -348.08333333333326 -203.74999999999997 -408.125 -3.333333333333333 -91.5 66.75 -180.37499999999997 147.70833333333331 -215.08333333333331a61.24999999999999 61.24999999999999 0 0 1 60.208333333333336 6.625c66.66666666666667 48.58333333333333 112.66666666666667 122.08333333333333 152.16666666666666 179.875a62.666666666666664 62.666666666666664 0 0 1 -10.666666666666666 82.75l-81.29166666666667 60.375a19.999999999999996 19.999999999999996 0 0 0 -5.916666666666666 25.666666666666664c18.416666666666664 33.458333333333336 51.166666666666664 83.29166666666667 88.66666666666667 120.79166666666666 37.541666666666664 37.5 89.70833333333333 72.41666666666666 125.5 92.91666666666666a20.125 20.125 0 0 0 26.833333333333332 -6.75l52.916666666666664 -80.54166666666666a62.62499999999999 62.62499999999999 0 0 1 85.66666666666666 -13.833333333333334c58.625 40.58333333333333 127.04166666666666 85.79166666666667 177.125 149.91666666666666a61.24999999999999 61.24999999999999 0 0 1 7.875 61.875c-34.875 81.375 -123.125 150.66666666666666 -214.91666666666666 147.29166666666666Z" stroke-width="1"></path></g></svg>