<svg xmlns="http://www.w3.org/2000/svg" fill="none" viewBox="0 0 400 400" id="Coding-Learning-2--Streamline-Ux.svg" height="400" width="400"><desc>Coding Learning 2 Streamline Illustration: https://streamlinehq.com</desc><path stroke="#3ee922" stroke-linecap="round" stroke-linejoin="round" d="M41.9844 84.58v43.968" stroke-width="3"></path><path stroke="#3ee922" stroke-linecap="round" stroke-linejoin="round" d="M41.9844 139.5392v65.956" stroke-width="3"></path><path stroke="#3ee922" stroke-linecap="round" stroke-linejoin="round" d="M179.3876 101.068c1.4576 0 2.8556 -0.5788 3.8864 -1.6096 1.0304 -1.0308 1.6096 -2.4284 1.6096 -3.8864 0 -1.4576 -0.5792 -2.8552 -1.6096 -3.886 -1.0308 -1.0308 -2.4288 -1.61 -3.8864 -1.61h-120.916c-1.4576 0 -2.8556 0.5792 -3.8864 1.61 -1.0304 1.0308 -1.6096 2.4284 -1.6096 3.886 0 1.458 0.5792 2.8556 1.6096 3.8864 1.0308 1.0308 2.4288 1.6096 3.8864 1.6096h120.916Z" stroke-width="3"></path><path stroke="#3ee922" stroke-linecap="round" stroke-linejoin="round" d="M135.4196 156.0312c1.4576 0 2.8556 -0.5792 3.8864 -1.61 1.0304 -1.0304 1.6096 -2.4284 1.6096 -3.886 0 -1.4576 -0.5792 -2.8556 -1.6096 -3.8864 -1.0308 -1.0308 -2.4288 -1.6096 -3.8864 -1.6096h-76.948c-1.4576 0 -2.8556 0.5788 -3.8864 1.6096 -1.0304 1.0308 -1.6096 2.4288 -1.6096 3.8864 0 1.4576 0.5792 2.8556 1.6096 3.886 1.0308 1.0308 2.4288 1.61 3.8864 1.61h76.948Z" stroke-width="3"></path><path stroke="#3ee922" stroke-linecap="round" stroke-linejoin="round" d="M107.9396 200c1.4576 0 2.8556 -0.5792 3.8864 -1.61 1.0304 -1.0308 1.6096 -2.4284 1.6096 -3.886 0 -1.458 -0.5792 -2.8556 -1.6096 -3.8864 -1.0308 -1.0308 -2.4288 -1.6096 -3.8864 -1.6096h-49.468c-1.4576 0 -2.8556 0.5788 -3.8864 1.6096 -1.0304 1.0308 -1.6096 2.4284 -1.6096 3.8864 0 1.4576 0.5792 2.8552 1.6096 3.886 1.0308 1.0308 2.4288 1.61 3.8864 1.61h49.468Z" stroke-width="3"></path><path stroke="#3ee922" stroke-linecap="round" stroke-linejoin="round" d="M157.4036 178c1.4576 0 2.8556 -0.5792 3.8864 -1.61 1.0304 -1.0308 1.6096 -2.4284 1.6096 -3.886 0 -1.458 -0.5792 -2.8556 -1.6096 -3.8864 -1.0308 -1.0308 -2.4288 -1.6096 -3.8864 -1.6096h-98.932c-0.7216 0 -1.4364 0.142 -2.1032 0.418 -0.6668 0.2764 -1.2728 0.6812 -1.7832 1.1916s-0.9152 1.116 -1.1912 1.7828c-0.2764 0.6668 -0.4184 1.3816 -0.4184 2.1036 0 0.7216 0.142 1.4364 0.4184 2.1032 0.276 0.6668 0.6808 1.2724 1.1912 1.7828 0.5104 0.5104 1.1164 0.9152 1.7832 1.1916 0.6668 0.276 1.3816 0.4184 2.1032 0.4184h98.932Z" stroke-width="3"></path><path stroke="#3ee922" stroke-linecap="round" stroke-linejoin="round" d="M85.9556 123.0524c1.4576 0 2.8556 -0.5788 3.8864 -1.6096 1.0304 -1.0308 1.6096 -2.4288 1.6096 -3.8864 0 -1.4576 -0.5792 -2.8556 -1.6096 -3.886 -1.0308 -1.0308 -2.4288 -1.61 -3.8864 -1.61h-27.484c-1.4576 0 -2.8556 0.5792 -3.8864 1.61 -1.0304 1.0304 -1.6096 2.4284 -1.6096 3.886 0 1.4576 0.5792 2.8556 1.6096 3.8864 1.0308 1.0308 2.4288 1.6096 3.8864 1.6096h27.484Z" stroke-width="3"></path><path stroke="#3ee922" stroke-linecap="round" stroke-linejoin="round" d="M157.4044 123.0524c1.4576 0 2.8556 -0.5788 3.886 -1.6096 1.0308 -1.0308 1.61 -2.4288 1.61 -3.8864 0 -1.4576 -0.5792 -2.8556 -1.61 -3.886 -1.0304 -1.0308 -2.4284 -1.61 -3.886 -1.61h-49.464c-1.4576 0 -2.8556 0.5792 -3.8864 1.61 -1.0308 1.0304 -1.6096 2.4284 -1.6096 3.886 0 1.4576 0.5788 2.8556 1.6096 3.8864 1.0308 1.0308 2.4288 1.6096 3.8864 1.6096h49.464Z" stroke-width="3"></path><path stroke="#3ee922" stroke-linecap="round" stroke-linejoin="round" d="M110.852 282.4432h-19.4c-0.0028 -2.1664 0.4212 -4.3116 1.2488 -6.3136 0.8276 -2.0016 2.042 -3.8208 3.5736 -5.3524s3.3504 -2.746 5.3524 -3.5736c2.0016 -0.8272 4.1472 -1.2516 6.3132 -1.2484h4.504" stroke-width="3"></path><path stroke="#3ee922" stroke-linecap="round" stroke-linejoin="round" d="M118.9316 255.8968v-11.928h38.472v2.748" stroke-width="3"></path><path stroke="#3ee922" stroke-linecap="round" stroke-linejoin="round" d="M256.3364 216.4884h-37.812" stroke-width="3"></path><path stroke="#3ee922" stroke-linecap="round" stroke-linejoin="round" d="M180.16 243.9684H36.488c-2.16612 0.0032 -4.31156 -0.4212 -6.3134 -1.2488 -2.00184 -0.8276 -3.82072 -2.042 -5.3524 -3.5736 -1.53168 -1.5316 -2.74608 -3.3504 -3.57356 -5.3524 -0.82748 -2.0016 -1.2518 -4.1472 -1.24864 -6.3132v-10.992h169.172" stroke-width="3"></path><path stroke="#3ee922" stroke-linecap="round" stroke-linejoin="round" d="M141.2268 232.5596c-0.7056 0.3576 -1.5016 0.4976 -2.2868 0.4028 -0.7856 -0.0948 -1.5252 -0.4204 -2.1252 -0.9356 -0.6004 -0.5152 -1.0344 -1.1968 -1.2472 -1.9588 -0.2132 -0.762 -0.1952 -1.5696 0.0512 -2.3216 0.2464 -0.7516 0.71 -1.4136 1.3324 -1.9016 0.6224 -0.4884 1.3756 -0.7808 2.1644 -0.8412 0.7888 -0.06 1.578 0.1152 2.2672 0.5036 0.6892 0.3884 1.2476 0.972 1.6052 1.678 0.2372 0.4684 0.3804 0.9792 0.4204 1.5028 0.04 0.5236 -0.0236 1.0504 -0.1872 1.5496 -0.1636 0.4988 -0.424 0.9608 -0.766 1.3596 -0.3424 0.3984 -0.7596 0.7256 -1.2284 0.9624v0Z" stroke-width="3"></path><path stroke="#3ee922" stroke-linecap="round" stroke-linejoin="round" d="M256.336 95.5724c0 -5.8348 -2.318 -11.4308 -6.4436 -15.5564 -4.126 -4.126 -9.7216 -6.4436 -15.5564 -6.4436H42c-5.83476 0 -11.43056 2.3176 -15.55636 6.4436C22.31784 84.1416 20 89.7376 20 95.5724v120.916h169.172" stroke-width="3"></path><path stroke="#3ee922" stroke-linecap="round" stroke-linejoin="round" d="M218.5244 216.4884h37.812" stroke-width="3"></path><path stroke="#3ee922" stroke-linecap="round" stroke-linejoin="round" d="M330.536 167.0236H237.1l-4.82 43.376c-0.0856 0.7684 -0.008 1.546 0.2276 2.2824 0.2356 0.7364 0.624 1.4148 1.1396 1.9912 0.5156 0.576 1.1472 1.0368 1.8528 1.352 0.706 0.3156 1.4708 0.4784 2.244 0.4784h92.148c0.7728 -0.0004 1.5372 -0.164 2.2428 -0.4796s1.3368 -0.7764 1.8524 -1.3524c0.5156 -0.5756 0.904 -1.254 1.1396 -1.99 0.236 -0.7364 0.314 -1.514 0.2292 -2.282l-4.82 -43.376Z" stroke-width="3"></path><path stroke="#3ee922" stroke-linecap="round" stroke-linejoin="round" d="M374.504 167.0232c0.7216 0 1.4364 -0.142 2.1032 -0.4184 0.6668 -0.276 1.2724 -0.6808 1.7828 -1.1912 0.5104 -0.5104 0.9152 -1.1164 1.1916 -1.7832 0.276 -0.6668 0.4184 -1.3816 0.4184 -2.1032 0 -0.7216 -0.1424 -1.4364 -0.4184 -2.1032 -0.2764 -0.6668 -0.6812 -1.2728 -1.1916 -1.7832 -0.5104 -0.51 -1.116 -0.9148 -1.7828 -1.1912 -0.6668 -0.276 -1.3816 -0.4184 -2.1032 -0.4184H193.128c-0.722 0 -1.4364 0.1424 -2.1036 0.4184 -0.6668 0.2764 -1.2724 0.6812 -1.7828 1.1912 -0.5104 0.5104 -0.9152 1.1164 -1.1916 1.7832 -0.276 0.6668 -0.418 1.3816 -0.418 2.1032 0 0.7216 0.142 1.4364 0.418 2.1032 0.2764 0.6668 0.6812 1.2728 1.1916 1.7832s1.116 0.9152 1.7828 1.1912c0.6672 0.2764 1.3816 0.4184 2.1036 0.4184h181.376Z" stroke-width="3"></path><path stroke="#3ee922" stroke-linecap="round" stroke-linejoin="round" d="M297.556 153.2832c0 -4.552 -6.148 -8.244 -13.74 -8.244 -7.592 0 -13.74 3.692 -13.74 8.244v2.748h27.48v-2.748Z" stroke-width="3"></path><path stroke="#3ee922" stroke-linecap="round" stroke-linejoin="round" d="M355.2684 194.5036c4.5532 0 8.244 -3.6908 8.244 -8.244s-3.6908 -8.244 -8.244 -8.244 -8.244 3.6908 -8.244 8.244 3.6908 8.244 8.244 8.244Z" stroke-width="3"></path><path stroke="#3ee922" stroke-linecap="round" stroke-linejoin="round" d="M363.5124 202.748c0 -2.1864 -0.8684 -4.2836 -2.4144 -5.8296 -1.5464 -1.546 -3.6432 -2.4144 -5.8296 -2.4144s-4.2832 0.8684 -5.8292 2.4144c-1.5464 1.546 -2.4148 3.6432 -2.4148 5.8296V222l16.488 10.992v-30.244Z" stroke-width="3"></path><path stroke="#3ee922" stroke-linecap="round" stroke-linejoin="round" d="M355.2676 178.0152v-27.48" stroke-width="3"></path><path stroke="#3ee922" stroke-linecap="round" stroke-linejoin="round" d="M236.7676 265.9552h58.372c1.4576 0 2.8556 0.5788 3.8864 1.6096 1.0304 1.0308 1.6096 2.4288 1.6096 3.8864 0 1.4576 -0.5792 2.8556 -1.6096 3.886 -1.0308 1.0308 -2.4288 1.61 -3.8864 1.61h-58.372" stroke-width="3"></path><path stroke="#3ee922" stroke-linecap="round" stroke-linejoin="round" d="M227.2004 304.4276h67.94c1.4576 0 2.8556 0.5792 3.8864 1.61 1.0304 1.0304 1.6096 2.4284 1.6096 3.886 0 1.4576 -0.5792 2.8556 -1.6096 3.8864 -1.0308 1.0308 -2.4288 1.6096 -3.8864 1.6096h-69.364" stroke-width="3"></path><path stroke="#3ee922" stroke-linecap="round" stroke-linejoin="round" d="M212.036 315.42h-24.072" stroke-width="3"></path><path stroke="#3ee922" stroke-linecap="round" stroke-linejoin="round" d="M212.036 304.4276h-24.072" stroke-width="3"></path><path stroke="#3ee922" stroke-linecap="round" stroke-linejoin="round" d="M188.292 304.4276h23.744" stroke-width="3"></path><path stroke="#3ee922" stroke-linecap="round" stroke-linejoin="round" d="M227.208 304.4284h68.26v-27.48H236.768" stroke-width="3"></path><path stroke="#3ee922" stroke-linecap="round" stroke-linejoin="round" d="M295.4964 287.9404h-38.472" stroke-width="3"></path><path stroke="#3ee922" stroke-linecap="round" stroke-linejoin="round" d="M246.032 287.9404H235.04" stroke-width="3"></path><path stroke="#3ee922" stroke-linecap="round" stroke-linejoin="round" d="M233.252 254.9608h81.452c1.4324 0.0388 2.7932 0.6348 3.7928 1.662 0.9996 1.0268 1.5588 2.4032 1.5588 3.836 0 1.4332 -0.5592 2.8096 -1.5588 3.8364 -0.9996 1.0268 -2.3604 1.6232 -3.7928 1.6616H236.768" stroke-width="3"></path><path stroke="#3ee922" stroke-linecap="round" stroke-linejoin="round" d="M205.936 246.7164c-0.7708 -1.7292 -1.1648 -3.6028 -1.156 -5.496 0.0024 -3.6444 1.4512 -7.1384 4.028 -9.7148 2.5772 -2.5764 6.072 -4.0244 9.716 -4.0252h96.18c1.4576 0 2.8556 -0.5792 3.8864 -1.61 1.0308 -1.0304 1.6096 -2.4284 1.6096 -3.886 0 -1.4576 -0.5788 -2.8556 -1.6096 -3.8864 -1.0308 -1.0308 -2.4288 -1.6096 -3.8864 -1.6096H218.524c-6.5596 0 -12.8508 2.6056 -17.4896 7.2436s-7.2452 10.9284 -7.2464 17.4884" stroke-width="3"></path><path stroke="#3ee922" stroke-linecap="round" stroke-linejoin="round" d="M233.252 254.9604h81.452v-27.48H218.524c-3.6408 0.0064 -7.13 1.4564 -9.7032 4.0324 -2.5728 2.576 -4.0188 6.0672 -4.0208 9.7076 -0.0088 1.8932 0.3852 3.7668 1.156 5.496" stroke-width="3"></path><path stroke="#3ee922" stroke-linecap="round" stroke-linejoin="round" d="M314.7316 238.4728h-38.472" stroke-width="3"></path><path stroke="#3ee922" stroke-linecap="round" stroke-linejoin="round" d="M265.2684 238.4728h-10.992" stroke-width="3"></path><path stroke="#3ee922" stroke-linecap="round" stroke-linejoin="round" d="M124.0844 309.9236c-0.0008 -0.7236 0.142 -1.44 0.4192 -2.1084 0.2772 -0.6684 0.6836 -1.2756 1.1964 -1.786 0.5124 -0.5108 1.1208 -0.9152 1.7904 -1.19 0.6692 -0.2748 1.3864 -0.4148 2.11 -0.4116h82.424v-5.496c0.0004 -0.722 -0.1412 -1.4368 -0.4172 -2.104 -0.276 -0.6668 -0.6812 -1.2732 -1.1916 -1.7836s-1.1164 -0.9152 -1.7836 -1.1912c-0.6668 -0.276 -1.382 -0.4176 -2.1036 -0.4172h-76.928c-4.3728 0 -8.5668 1.7372 -11.6588 4.8292 -3.092 3.092 -4.8292 7.286 -4.8292 11.6588s1.7372 8.5668 4.8292 11.6588c3.092 3.092 7.286 4.8292 11.6588 4.8292h76.928c1.4576 0 2.8556 -0.5792 3.886 -1.61 1.0308 -1.0304 1.61 -2.4284 1.61 -3.886v-5.496h-82.424" stroke-width="3"></path><path stroke="#3ee922" stroke-linecap="round" stroke-linejoin="round" d="M124.4276 309.9236c-0.0004 0.722 0.1416 1.4368 0.4176 2.104s0.6808 1.2732 1.1912 1.7836c0.5104 0.5104 1.1164 0.9152 1.7836 1.1912 0.6668 0.276 1.382 0.418 2.1036 0.4172h76.948v-10.992h-76.948" stroke-width="3"></path><path stroke="#3ee922" stroke-linecap="round" stroke-linejoin="round" d="M140.572 260.4608c-4.3728 0 -8.5668 1.7372 -11.6588 4.8292 -3.092 3.0924 -4.8292 7.286 -4.8292 11.6588 0 4.3732 1.7372 8.5668 4.8292 11.6588 3.092 3.0924 7.286 4.8292 11.6588 4.8292H217.52c1.4576 0 2.8556 -0.5788 3.8864 -1.6096 1.0304 -1.0308 1.6096 -2.4288 1.6096 -3.8864v-5.496H140.572c-1.4576 0 -2.8556 -0.5788 -3.8864 -1.6096 -1.0304 -1.0308 -1.6096 -2.4288 -1.6096 -3.8864 0 -1.4576 0.5792 -2.8556 1.6096 -3.886 1.0308 -1.0308 2.4288 -1.61 3.8864 -1.61h82.444v-5.496c0.0004 -0.7216 -0.1412 -1.4368 -0.4172 -2.1036 -0.276 -0.6672 -0.6808 -1.2732 -1.1912 -1.7836 -0.5108 -0.5104 -1.1168 -0.9152 -1.7836 -1.1912 -0.6672 -0.276 -1.382 -0.418 -2.104 -0.4176H140.572Z" stroke-width="3"></path><path stroke="#3ee922" stroke-linecap="round" stroke-linejoin="round" d="M140.916 282.4432h76.948v-10.992H140.916" stroke-width="3"></path><path stroke="#3ee922" stroke-linecap="round" stroke-linejoin="round" d="M256.336 142.2884v-46.716" stroke-width="3"></path><path stroke="#3ee922" stroke-linecap="round" stroke-linejoin="round" d="M194.4 246.7168c-0.3968 -1.8052 -0.5992 -3.6476 -0.604 -5.496" stroke-width="3"></path></svg>