<svg xmlns="http://www.w3.org/2000/svg" viewBox="0 0 1000 1000" id="Linkedin-Fill--Streamline-Mingcute-Fill.svg" height="1000" width="1000"><desc>Linkedin Fill Streamline Icon: https://streamlinehq.com</desc><g fill="none" fill-rule="evenodd"><path d="M1000 0v1000H0V0h1000ZM524.7083333333333 969.0833333333333l-0.45833333333333326 0.08333333333333333 -2.958333333333333 1.4583333333333335 -0.8333333333333333 0.16666666666666666 -0.5833333333333333 -0.16666666666666666 -2.958333333333333 -1.4583333333333335c-0.41666666666666663 -0.16666666666666666 -0.7916666666666666 -0.041666666666666664 -1 0.20833333333333331l-0.16666666666666666 0.41666666666666663 -0.7083333333333334 17.833333333333332 0.20833333333333331 0.8333333333333333 0.41666666666666663 0.5416666666666666 4.333333333333333 3.083333333333333 0.6249999999999999 0.16666666666666666 0.5 -0.16666666666666666 4.333333333333333 -3.083333333333333 0.5 -0.6666666666666666 0.16666666666666666 -0.7083333333333334 -0.7083333333333334 -17.791666666666664c-0.08333333333333333 -0.41666666666666663 -0.37499999999999994 -0.7083333333333334 -0.7083333333333334 -0.7499999999999999Zm11.041666666666666 -4.708333333333333 -0.5416666666666666 0.08333333333333333 -7.708333333333333 3.8749999999999996 -0.41666666666666663 0.41666666666666663 -0.125 0.45833333333333326 0.7499999999999999 17.916666666666664 0.20833333333333331 0.5 0.3333333333333333 0.29166666666666663 8.375 3.8749999999999996c0.5 0.16666666666666666 0.9583333333333333 0 1.2083333333333333 -0.3333333333333333l0.16666666666666666 -0.5833333333333333 -1.4166666666666667 -25.583333333333332c-0.125 -0.5 -0.41666666666666663 -0.8333333333333333 -0.8333333333333333 -0.9166666666666665Zm-29.791666666666664 0.08333333333333333a0.9583333333333333 0.9583333333333333 0 0 0 -1.125 0.25l-0.25 0.5833333333333333 -1.4166666666666667 25.583333333333332c0 0.5 0.29166666666666663 0.8333333333333333 0.7083333333333334 1l0.6249999999999999 -0.08333333333333333 8.375 -3.8749999999999996 0.41666666666666663 -0.3333333333333333 0.16666666666666666 -0.45833333333333326 0.7083333333333334 -17.916666666666664 -0.125 -0.5 -0.41666666666666663 -0.41666666666666663 -7.666666666666666 -3.833333333333333Z" stroke-width="1"></path><path fill="#3ee922" d="M750 125a125 125 0 0 1 125 125v500a125 125 0 0 1 -125 125H250a125 125 0 0 1 -125 -125V250a125 125 0 0 1 125 -125h500ZM333.3333333333333 416.66666666666663a41.666666666666664 41.666666666666664 0 0 0 -41.666666666666664 41.666666666666664v208.33333333333331a41.666666666666664 41.666666666666664 0 1 0 83.33333333333333 0v-208.33333333333331a41.666666666666664 41.666666666666664 0 0 0 -41.666666666666664 -41.666666666666664Zm125 -41.666666666666664a41.666666666666664 41.666666666666664 0 0 0 -41.666666666666664 41.666666666666664v250a41.666666666666664 41.666666666666664 0 1 0 83.33333333333333 0v-152.5c12.708333333333332 -14.333333333333332 34.166666666666664 -31.166666666666664 58.041666666666664 -41.375 13.875 -5.916666666666666 34.75 -8.333333333333334 49.24999999999999 -3.7499999999999996 6.333333333333333 2 9.999999999999998 4.833333333333333 12.208333333333332 7.833333333333333 2.1666666666666665 2.916666666666667 5.5 9.416666666666666 5.5 23.125v166.66666666666666a41.666666666666664 41.666666666666664 0 0 0 83.33333333333333 0v-166.66666666666666c0 -27.916666666666668 -7.083333333333333 -52.75 -21.833333333333332 -72.66666666666666a105.83333333333333 105.83333333333333 0 0 0 -54.20833333333333 -37.791666666666664c-37.583333333333336 -11.791666666666664 -79.20833333333333 -5.25 -107 6.666666666666666a242.5 242.5 0 0 0 -25.958333333333332 13A41.666666666666664 41.666666666666664 0 0 0 458.3333333333333 375ZM333.3333333333333 291.66666666666663a41.666666666666664 41.666666666666664 0 1 0 0 83.33333333333333 41.666666666666664 41.666666666666664 0 0 0 0 -83.33333333333333Z" stroke-width="1"></path></g></svg>