<svg viewBox="-2.5 -2.5 500 500" xmlns="http://www.w3.org/2000/svg" id="Responsive-Ui-1--Streamline-Ux.svg" height="500" width="500"><desc>Responsive Ui 1 Streamline Illustration: https://streamlinehq.com</desc><path d="M207.63765 360.06795h62.53830000000001v37.521H207.63765z" fill="none" stroke="#3ee922" stroke-linecap="round" stroke-linejoin="round" stroke-width="5"></path><path d="M293.64885000000004 422.60625H157.608a25.01235 25.01235 0 0 1 25.017300000000002 -25.01235H286.11" fill="none" stroke="#3ee922" stroke-linecap="round" stroke-linejoin="round" stroke-width="5"></path><path d="M432.77850000000007 195.56955000000002V103.66290000000001a31.269150000000003 31.269150000000003 0 0 0 -31.269150000000003 -31.269150000000003h-325.21500000000003A31.269150000000003 31.269150000000003 0 0 0 45.045 103.66290000000001v151.4403" fill="none" stroke="#3ee922" stroke-linecap="round" stroke-linejoin="round" stroke-width="5"></path><path d="m289.01565 310.0383 -165.5676 0" fill="none" stroke="#3ee922" stroke-linecap="round" stroke-linejoin="round" stroke-width="5"></path><path d="m125.99235 360.06795 163.0233 0" fill="none" stroke="#3ee922" stroke-linecap="round" stroke-linejoin="round" stroke-width="5"></path><path d="M238.90680000000003 332.5905a2.475 2.475 0 1 1 -2.475 2.475 2.475 2.475 0 0 1 2.475 -2.475m0 -4.95a7.425000000000001 7.425000000000001 0 1 0 7.425000000000001 7.425000000000001 7.425000000000001 7.425000000000001 0 0 0 -7.425000000000001 -7.425000000000001Z" fill="#3ee922" stroke-width="5"></path><path d="m82.6254 101.7522 312.5628 0 0 43.9164 -312.5628 0Z" fill="none" stroke="#3ee922" stroke-linecap="round" stroke-linejoin="round" stroke-width="5"></path><path d="M307.2366 199.6236v-21.2157a7.425000000000001 7.425000000000001 0 0 1 7.425000000000001 -7.425000000000001h73.11645a7.425000000000001 7.425000000000001 0 0 1 7.425000000000001 7.425000000000001v17.16165" fill="none" stroke="#3ee922" stroke-linecap="round" stroke-linejoin="round" stroke-width="5"></path><path d="m82.6254 170.9928 195.39135 0 0 43.9164 -195.39135 0Z" fill="none" stroke="#3ee922" stroke-linecap="round" stroke-linejoin="round" stroke-width="5"></path><path d="m196.37145 240.23835000000003 81.6453 0 0 43.9164 -81.6453 0Z" fill="none" stroke="#3ee922" stroke-linecap="round" stroke-linejoin="round" stroke-width="5"></path><path d="M82.6254 254.75670000000002v-7.103250000000001a7.425000000000001 7.425000000000001 0 0 1 7.425000000000001 -7.425000000000001h66.825a7.425000000000001 7.425000000000001 0 0 1 7.425000000000001 7.425000000000001v29.09115a7.425000000000001 7.425000000000001 0 0 1 -7.425000000000001 7.425000000000001H124.938" fill="none" stroke="#3ee922" stroke-linecap="round" stroke-linejoin="round" stroke-width="5"></path><path d="m307.11285 214.91415 163.13715000000002 0 0 207.6921 -163.13715000000002 0Z" fill="none" stroke="#3ee922" stroke-linecap="round" stroke-linejoin="round" stroke-width="5"></path><path d="M326.20995 241.52040000000002h124.94295V396H326.20995z" fill="none" stroke="#3ee922" stroke-linecap="round" stroke-linejoin="round" stroke-width="5"></path><path d="m344.58930000000004 260.46405 88.1892 0 0 27.7101 -88.1892 0Z" fill="none" stroke="#3ee922" stroke-linecap="round" stroke-linejoin="round" stroke-width="5"></path><path d="m406.6227 304.90515 26.1558 0 0 72.1512 -26.1558 0Z" fill="none" stroke="#3ee922" stroke-linecap="round" stroke-linejoin="round" stroke-width="5"></path><path d="m344.58930000000004 304.90515 44.0946 0 0 27.7101 -44.0946 0Z" fill="none" stroke="#3ee922" stroke-linecap="round" stroke-linejoin="round" stroke-width="5"></path><path d="m344.58930000000004 349.3413 44.0946 0 0 27.7101 -44.0946 0Z" fill="none" stroke="#3ee922" stroke-linecap="round" stroke-linejoin="round" stroke-width="5"></path><path d="m24.75 272.59155000000004 81.82845 0 0 150.0147 -81.82845 0Z" fill="none" stroke="#3ee922" stroke-linecap="round" stroke-linejoin="round" stroke-width="5"></path><path d="M88.86240000000001 313.06275a8.16255 8.16255 0 0 1 -8.1774 8.16255h-30.061350000000004a8.16255 8.16255 0 0 1 0 -16.335H80.685a8.1576 8.1576 0 0 1 8.1774 8.17245Z" fill="none" stroke="#3ee922" stroke-linecap="round" stroke-linejoin="round" stroke-width="5"></path><path d="m42.46605 339.4413 46.39635 0 0 50.351400000000005 -46.39635 0Z" fill="none" stroke="#3ee922" stroke-linecap="round" stroke-linejoin="round" stroke-width="5"></path><path d="M24.75 289.63935h81.82845v115.92405000000001H24.75z" fill="none" stroke="#3ee922" stroke-linecap="round" stroke-linejoin="round" stroke-width="5"></path></svg>