<svg xmlns="http://www.w3.org/2000/svg" fill="none" viewBox="-2.5 -2.5 500 500" id="Keyboard-Typing-1--Streamline-Ux.svg" height="500" width="500"><desc>Keyboard Typing 1 Streamline Illustration: https://streamlinehq.com</desc><path stroke="#3ee922" stroke-linecap="round" stroke-linejoin="round" d="M243.1638 202.692105v-20.59695c0 -7.188885 2.855655 -14.08374 7.939305000000001 -19.166895 5.083155 -5.08365 11.97801 -7.939305000000001 19.166895 -7.939305000000001 3.559545 0.000495 7.083945000000001 -0.69993 10.372724999999999 -2.061675 3.28878 -1.3617450000000002 6.2766 -3.3575850000000003 8.793675 -5.8741650000000005 2.5175700000000005 -2.5170749999999997 4.513905 -5.504895 5.876145 -8.79318 1.3622400000000001 -3.288285 2.0636550000000002 -6.812685000000001 2.0636550000000002 -10.372230000000002v-33.6105" stroke-width="5"></path><path stroke="#3ee922" stroke-linecap="round" stroke-linejoin="round" d="M355.9347 211.36599c-0.006435 -2.29779 -0.922185 -4.500045 -2.5472699999999997 -6.12513 -1.625085 -1.62459 -3.826845 -2.54034 -6.12513 -2.5472699999999997H130.4325c-2.298285 0.00297 -4.50153 0.91773 -6.12612 2.5438050000000003 -1.624095 1.6260750000000002 -2.53638 3.8303100000000003 -2.53638 6.128595v21.0771" stroke-width="5"></path><path stroke="#3ee922" stroke-linecap="round" stroke-linejoin="round" d="M185.37750000000003 280.75311h75.15090000000001v17.3448H169.68105000000003" stroke-width="5"></path><path stroke="#3ee922" stroke-linecap="round" stroke-linejoin="round" d="M186.80804999999998 267.74055v-17.3448h-11.4048" stroke-width="5"></path><path stroke="#3ee922" stroke-linecap="round" stroke-linejoin="round" d="M204.13305 250.39575000000002h-17.3448v17.3448h17.3448v-17.3448Z" stroke-width="5"></path><path stroke="#3ee922" stroke-linecap="round" stroke-linejoin="round" d="M221.47785000000002 250.39575000000002h-17.3448v17.3448h17.3448v-17.3448Z" stroke-width="5"></path><path stroke="#3ee922" stroke-linecap="round" stroke-linejoin="round" d="M238.8276 250.39575000000002h-17.3448v17.3448h17.3448v-17.3448Z" stroke-width="5"></path><path stroke="#3ee922" stroke-linecap="round" stroke-linejoin="round" d="M256.17240000000004 250.39575000000002h-17.3448v17.3448h17.3448v-17.3448Z" stroke-width="5"></path><path stroke="#3ee922" stroke-linecap="round" stroke-linejoin="round" d="M273.5172 250.39575000000002h-17.3448v17.3448h17.3448v-17.3448Z" stroke-width="5"></path><path stroke="#3ee922" stroke-linecap="round" stroke-linejoin="round" d="M290.862 250.39575000000002h-17.3448v17.3448h17.3448v-17.3448Z" stroke-width="5"></path><path stroke="#3ee922" stroke-linecap="round" stroke-linejoin="round" d="M152.11350000000002 234.090945v-1.0395h-1.08405" stroke-width="5"></path><path stroke="#3ee922" stroke-linecap="round" stroke-linejoin="round" d="M152.11350000000002 234.090945v-1.0395h17.34975v7.370550000000001" stroke-width="5"></path><path stroke="#3ee922" stroke-linecap="round" stroke-linejoin="round" d="M186.80804999999998 250.396245v-17.3448h-17.3448v7.370550000000001" stroke-width="5"></path><path stroke="#3ee922" stroke-linecap="round" stroke-linejoin="round" d="M204.13305 233.051445h-17.3448v17.3448h17.3448v-17.3448Z" stroke-width="5"></path><path stroke="#3ee922" stroke-linecap="round" stroke-linejoin="round" d="M221.47785000000002 233.051445h-17.3448v17.3448h17.3448v-17.3448Z" stroke-width="5"></path><path stroke="#3ee922" stroke-linecap="round" stroke-linejoin="round" d="M238.8276 233.051445h-17.3448v17.3448h17.3448v-17.3448Z" stroke-width="5"></path><path stroke="#3ee922" stroke-linecap="round" stroke-linejoin="round" d="M256.17240000000004 233.051445h-17.3448v17.3448h17.3448v-17.3448Z" stroke-width="5"></path><path stroke="#3ee922" stroke-linecap="round" stroke-linejoin="round" d="M273.5172 233.051445h-17.3448v17.3448h17.3448v-17.3448Z" stroke-width="5"></path><path stroke="#3ee922" stroke-linecap="round" stroke-linejoin="round" d="M290.862 233.051445h-17.3448v17.3448h17.3448v-17.3448Z" stroke-width="5"></path><path stroke="#3ee922" stroke-linecap="round" stroke-linejoin="round" d="M308.21175 233.051445h-17.3448v17.3448h17.3448v-17.3448Z" stroke-width="5"></path><path stroke="#3ee922" stroke-linecap="round" stroke-linejoin="round" d="M319.1166 250.396245h-10.88505v-17.3448h17.34975v2.94525" stroke-width="5"></path><path stroke="#3ee922" stroke-linecap="round" stroke-linejoin="round" d="M330.21945 233.051445h-4.63815v2.94525" stroke-width="5"></path><path stroke="#3ee922" stroke-linecap="round" stroke-linejoin="round" d="M134.7687 228.40884v-12.706650000000002h17.3448v17.34975h-1.08405" stroke-width="5"></path><path stroke="#3ee922" stroke-linecap="round" stroke-linejoin="round" d="M169.4385 215.70219h-17.3448v17.3448h17.3448v-17.3448Z" stroke-width="5"></path><path stroke="#3ee922" stroke-linecap="round" stroke-linejoin="round" d="M186.78825 215.70219h-17.3448v17.3448h17.3448v-17.3448Z" stroke-width="5"></path><path stroke="#3ee922" stroke-linecap="round" stroke-linejoin="round" d="M204.13305 215.70219h-17.3448v17.3448h17.3448v-17.3448Z" stroke-width="5"></path><path stroke="#3ee922" stroke-linecap="round" stroke-linejoin="round" d="M221.47785000000002 215.70219h-17.3448v17.3448h17.3448v-17.3448Z" stroke-width="5"></path><path stroke="#3ee922" stroke-linecap="round" stroke-linejoin="round" d="M238.8276 215.70219h-17.3448v17.3448h17.3448v-17.3448Z" stroke-width="5"></path><path stroke="#3ee922" stroke-linecap="round" stroke-linejoin="round" d="M256.17240000000004 215.70219h-17.3448v17.3448h17.3448v-17.3448Z" stroke-width="5"></path><path stroke="#3ee922" stroke-linecap="round" stroke-linejoin="round" d="M273.5172 215.70219h-17.3448v17.3448h17.3448v-17.3448Z" stroke-width="5"></path><path stroke="#3ee922" stroke-linecap="round" stroke-linejoin="round" d="M290.862 215.70219h-17.3448v17.3448h17.3448v-17.3448Z" stroke-width="5"></path><path stroke="#3ee922" stroke-linecap="round" stroke-linejoin="round" d="M308.21175 215.70219h-17.3448v17.3448h17.3448v-17.3448Z" stroke-width="5"></path><path stroke="#3ee922" stroke-linecap="round" stroke-linejoin="round" d="M325.55655 215.70219h-17.3448v17.3448h17.3448v-17.3448Z" stroke-width="5"></path><path stroke="#3ee922" stroke-linecap="round" stroke-linejoin="round" d="M330.21945 233.05194000000003h-4.63815v-17.34975h17.3448v14.008500000000002" stroke-width="5"></path><path stroke="#3ee922" stroke-linecap="round" stroke-linejoin="round" d="M277.8534 280.75311h-17.3448v17.3448h17.3448v-17.3448Z" stroke-width="5"></path><path stroke="#3ee922" stroke-linecap="round" stroke-linejoin="round" d="M329.87295000000006 298.099395h-4.29165v-4.1184" stroke-width="5"></path><path stroke="#3ee922" stroke-linecap="round" stroke-linejoin="round" d="M325.5813 293.97951v4.1184h-17.34975v-17.3448h3.77685" stroke-width="5"></path><path stroke="#3ee922" stroke-linecap="round" stroke-linejoin="round" d="M312.0084 280.753605h-3.77685v-17.34975h0.95535" stroke-width="5"></path><path stroke="#3ee922" stroke-linecap="round" stroke-linejoin="round" d="M308.21175 280.75311h-17.3448v17.3448h17.3448v-17.3448Z" stroke-width="5"></path><path stroke="#3ee922" stroke-linecap="round" stroke-linejoin="round" d="M24.75 361.41929999999996 37.42695 346.00500000000005c0.6733485000000001 -0.816255 1.6431525000000002 -1.33254 2.6965125 -1.43451 1.0533105 -0.10197 2.104146 0.2178 2.9217375000000003 0.89001l41.580000000000005 34.22925c0.40491 0.333135 0.740025 0.7425 0.986535 1.205325 0.24651 0.46233 0.39946499999999996 0.96921 0.449955 1.4909400000000002 0.05049000000000001 0.52173 -0.00198 1.04841 -0.15542999999999998 1.549845 -0.152955 0.5014350000000001 -0.40342500000000003 0.9677250000000001 -0.73656 1.3721400000000001l-12.67695 15.40935" stroke-width="5"></path><path stroke="#3ee922" stroke-linecap="round" stroke-linejoin="round" d="m84.64500000000001 379.694205 5.0688 -6.1578c0.333135 -0.40441499999999997 0.583605 -0.8707050000000001 0.73656 -1.3721400000000001 0.15345 -0.5014350000000001 0.20592 -1.02762 0.15542999999999998 -1.549845 -0.05049000000000001 -0.52173 -0.203445 -1.0281150000000001 -0.449955 -1.4909400000000002 -0.24651 -0.46233 -0.581625 -0.87219 -0.986535 -1.205325l-35.43705 -29.16045c-0.40293 -0.33610500000000004 -0.8682300000000001 -0.58905 -1.3696650000000001 -0.743985 -0.5014350000000001 -0.15493500000000002 -1.02861 -0.208395 -1.5508350000000002 -0.157905 -0.522225 0.050985 -1.029105 0.20493 -1.491633 0.452925 -0.46223100000000006 0.24849000000000002 -0.8705565000000001 0.58608 -1.2011669999999999 0.9934649999999999L43.065 345.464955l41.580000000000005 34.22925Z" stroke-width="5"></path><path stroke="#3ee922" stroke-linecap="round" stroke-linejoin="round" d="M159.05339999999998 339.653655c-0.10147500000000001 -1.042965 -0.40788 -2.055735 -0.9009 -2.980395 -0.49302 -0.92466 -1.163745 -1.742895 -1.97307 -2.40867 -0.8093250000000001 -0.6657750000000001 -1.741905 -1.16523 -2.744775 -1.47015 -1.002375 -0.305415 -2.05524 -0.40986 -3.098205 -0.308385 -1.9800000000000002 0.1881 -16.6221 2.475 -18.34965 0.89595 -3.7026000000000003 -3.4105499999999997 -1.36125 -13.09275 5.5242 -19.478250000000003l35.7984 -34.2738c1.5755850000000002 -1.4171850000000001 2.5230150000000005 -3.4021350000000004 2.634885 -5.517765000000001 0.11187 -2.116125 -0.621225 -4.190175 -2.0384100000000003 -5.76576 -1.4171850000000001 -1.5750899999999999 -3.4021350000000004 -2.5230150000000005 -5.518260000000001 -2.634885 -2.116125 -0.11187 -4.18968 0.621225 -5.765265 2.0384100000000003l-34.021350000000005 31.84335 34.254 -39.5703c0.72072 -0.76032 1.28502 -1.6552799999999999 1.659735 -2.6338950000000003 0.37521000000000004 -0.978615 0.553905 -2.02158 0.52569 -3.069 -0.028215 -1.04742 -0.26235 -2.079 -0.68904 -3.03633 -0.42669 -0.956835 -1.0380150000000001 -1.82061 -1.798335 -2.541825 -0.76032 -0.72072 -1.6557750000000002 -1.2845250000000001 -2.6343900000000002 -1.659735 -0.97812 -0.374715 -2.0210850000000002 -0.55341 -3.068505 -0.525195 -1.047915 0.02772 -2.079495 0.261855 -3.03633 0.6885450000000001 -0.95733 0.42669 -1.8211050000000002 1.0380150000000001 -2.541825 1.798335l-34.65 40.66425 28.254600000000003 -38.18925c1.2276 -1.724085 1.71963 -3.8654550000000003 1.36818 -5.95287 -0.35145 -2.087415 -1.517175 -3.9496050000000005 -3.2417550000000004 -5.177205000000001 -0.8538749999999999 -0.607365 -1.819125 -1.040985 -2.84031 -1.2761099999999999 -1.0216800000000001 -0.23463 -2.079495 -0.265815 -3.11256 -0.09207 -2.087415 0.35145 -3.9496050000000005 1.51767 -5.177205000000001 3.2417550000000004l-6.2766 8.815949999999999c0.07227 -1.746855 -0.43213500000000005 -3.46896 -1.43649 -4.9005 -1.00386 -1.43154 -2.451735 -2.4923249999999997 -4.118895 -3.019005 -1.66716 -0.52668 -3.4615350000000005 -0.49005000000000004 -5.105925000000001 0.10494 -1.643895 0.59499 -3.0467250000000003 1.71468 -3.9906900000000003 3.1863150000000005l-30.0564 45.178650000000005c-8.39223 11.06721 -15.02424 23.364495 -19.6614 36.45675l-8.113050000000001 9.8505 35.43705 29.16045c6.0489 -7.3458000000000006 17.7705 -8.3457 63.36000000000001 -18.72585 2.1012750000000002 -0.21235500000000002 4.03326 -1.2493800000000002 5.37174 -2.88288 1.3389750000000002 -1.633995 1.975545 -3.731805 1.7711100000000002 -5.8340700000000005v0Z" stroke-width="5"></path><path stroke="#3ee922" stroke-linecap="round" stroke-linejoin="round" d="m125.56665000000001 251.07934500000002 -21.1266 30.9276" stroke-width="5"></path><path stroke="#3ee922" stroke-linecap="round" stroke-linejoin="round" d="m470.25 357.07815 -12.67695 -15.4044c-0.33363000000000004 -0.40491 -0.74349 -0.7405200000000001 -1.206315 -0.98703 -0.46332 -0.24651 -0.9702000000000001 -0.39946499999999996 -1.4924250000000001 -0.449955 -0.522225 -0.05049000000000001 -1.0494 0.002475 -1.5508350000000002 0.15542999999999998 -0.50193 0.152955 -0.9687150000000001 0.40342500000000003 -1.373625 0.737055L410.355 375.3585c-0.405405 0.33264 -0.741015 0.742005 -0.98802 1.20483 -0.247005 0.46233 -0.39996 0.96921 -0.45045 1.491435 -0.05049000000000001 0.52173 0.002475 1.04841 0.15542999999999998 1.549845 0.15345 0.5014350000000001 0.40441499999999997 0.9677250000000001 0.73854 1.3721400000000001l12.67695 15.40935" stroke-width="5"></path><path stroke="#3ee922" stroke-linecap="round" stroke-linejoin="round" d="m410.355 375.358005 -5.0737499999999995 -6.1578c-0.670725 -0.8177400000000001 -0.9900000000000001 -1.868625 -0.8880300000000001 -2.92149 0.10197 -1.052865 0.6172650000000001 -2.02257 1.43253 -2.69676l35.43705 -29.16045c0.40441499999999997 -0.333135 0.8707050000000001 -0.583605 1.3721400000000001 -0.73656 0.5014350000000001 -0.152955 1.0281150000000001 -0.20592 1.549845 -0.15542999999999998 0.52173 0.050985 1.02861 0.203445 1.4909400000000002 0.449955 0.46282500000000004 0.24651 0.87219 0.581625 1.205325 0.986535l5.0539499999999995 6.162750000000001 -41.580000000000005 34.22925Z" stroke-width="5"></path><path stroke="#3ee922" stroke-linecap="round" stroke-linejoin="round" d="M335.9466 335.31696c0.10098000000000001 -1.042965 0.40639500000000006 -2.055735 0.8994150000000001 -2.980395 0.49252500000000005 -0.92466 1.16226 -1.742895 1.971585 -2.40867 0.8088299999999999 -0.6657750000000001 1.7414100000000001 -1.16523 2.74329 -1.470645 1.002375 -0.30492 2.054745 -0.40986 3.09771 -0.30789 1.9800000000000002 0.1881 16.6221 2.475 18.34965 0.89595 3.7075500000000003 -3.4105499999999997 1.3662 -13.09275 -5.51925 -19.478250000000003l-35.7984 -34.2738c-0.7801199999999999 -0.70191 -1.414215 -1.55034 -1.86615 -2.4972749999999997 -0.45243 -0.946935 -0.71379 -1.97307 -0.768735 -3.020985 -0.05544 -1.047915 0.09603 -2.096325 0.4455 -3.0853349999999997 0.349965 -0.989505 0.891 -1.89981 1.5929099999999998 -2.67993 0.70191 -0.7801199999999999 1.55034 -1.414215 2.4967799999999998 -1.866645 0.946935 -0.45193500000000003 1.973565 -0.713295 3.0214800000000004 -0.768735 1.047915 -0.05544 2.096325 0.09603 3.0853349999999997 0.44599500000000003 0.9890100000000001 0.349965 1.89981 0.891 2.67993 1.5929099999999998l34.0164 31.82355 -34.24905 -39.5505c-0.72072 -0.760815 -1.28502 -1.6557750000000002 -1.659735 -2.6343900000000002 -0.37521000000000004 -0.978615 -0.553905 -2.0210850000000002 -0.52569 -3.069 0.028215 -1.04742 0.26235 -2.079 0.68904 -3.03633 0.42669 -0.956835 1.0380150000000001 -1.82061 1.798335 -2.54133 0.76032 -0.721215 1.6557750000000002 -1.28502 2.6343900000000002 -1.6602299999999999 0.97812 -0.374715 2.0210850000000002 -0.55341 3.068505 -0.525195 1.047915 0.02772 2.079495 0.261855 3.03633 0.68904 0.95733 0.42669 1.8211050000000002 1.03752 2.541825 1.798335l34.65 40.6593 -28.254600000000003 -38.1843c-0.6222150000000001 -0.8528850000000001 -1.0692 -1.82061 -1.31472 -2.84724 -0.24552 -1.02663 -0.28512 -2.09187 -0.116325 -3.133845 0.16929000000000002 -1.04247 0.54351 -2.04039 1.10088 -2.9368350000000003 0.55737 -0.896445 1.287495 -1.6731000000000003 2.14731 -2.28591 0.859815 -0.612315 1.83249 -1.047915 2.8620900000000002 -1.2815550000000002 1.0296 -0.23364000000000001 2.095335 -0.260865 3.1353299999999997 -0.079695 1.039995 0.18117 2.0334600000000003 0.566775 2.92347 1.1345399999999999 0.89001 0.56826 1.6582500000000002 1.3068000000000002 2.260665 2.17404l6.2766 8.815949999999999c-0.07029 -1.746855 0.436095 -3.46797 1.4409450000000001 -4.89852 1.00485 -1.430055 2.45223 -2.490345 4.118895 -3.0165300000000004 1.66716 -0.52668 3.460545 -0.49005000000000004 5.104439999999999 0.10395000000000001 1.64439 0.594 3.0472200000000003 1.7127 3.99267 3.18285l30.0564 45.1737c8.39916 11.061765000000001 15.041070000000001 23.353605 19.691100000000002 36.441900000000004l8.1081 9.8505 -35.43705 29.1654c-6.0192 -7.3359000000000005 -17.76555 -8.3259 -63.35505 -18.7209 -2.105235 -0.20443500000000003 -4.043655 -1.236015 -5.3885700000000005 -2.86902 -1.344915 -1.63251 -1.9869299999999999 -3.7323 -1.7839800000000001 -5.83803v0Z" stroke-width="5"></path><path stroke="#3ee922" stroke-linecap="round" stroke-linejoin="round" d="m369.4284 246.74364 21.1266 30.9276" stroke-width="5"></path><path stroke="#3ee922" stroke-linecap="round" stroke-linejoin="round" d="M343.4013 311.107995H156.10320000000002" stroke-width="5"></path><path stroke="#3ee922" stroke-linecap="round" stroke-linejoin="round" d="M355.9347 223.72614000000002v-12.360149999999999" stroke-width="5"></path><path stroke="#3ee922" stroke-linecap="round" stroke-linejoin="round" d="M186.80804999999998 267.74005500000004h-0.9949500000000001" stroke-width="5"></path><path stroke="#3ee922" stroke-linecap="round" stroke-linejoin="round" d="M150.1632 250.39575000000002h-0.04455" stroke-width="5"></path><path stroke="#3ee922" stroke-linecap="round" stroke-linejoin="round" d="M186.80804999999998 250.39575000000002h-11.4048" stroke-width="5"></path></svg>