<svg viewBox="-2.5 -2.5 500 500" xmlns="http://www.w3.org/2000/svg" id="Phone-Repairing-2--Streamline-Ux.svg" height="500" width="500"><desc>Phone Repairing 2 Streamline Illustration: https://streamlinehq.com</desc><path d="M60.5583 418.89375v9.9a26.329050000000002 26.329050000000002 0 0 0 26.334000000000003 26.329050000000002h357.0138A26.329050000000002 26.329050000000002 0 0 0 470.25 428.79375v-9.9" fill="none" stroke="#3ee922" stroke-linecap="round" stroke-linejoin="round" stroke-width="5"></path><path d="M184.56074999999998 332.46675000000005h-71.775a23.40855 23.40855 0 0 0 -21.388949999999998 13.8996L62.092800000000004 412.335a17.552699999999998 17.552699999999998 0 0 0 16.038 24.685650000000003H452.6775a17.552699999999998 17.552699999999998 0 0 0 16.038 -24.685650000000003l-29.31885 -65.96865a23.40855 23.40855 0 0 0 -21.388949999999998 -13.8996" fill="none" stroke="#3ee922" stroke-linecap="round" stroke-linejoin="round" stroke-width="5"></path><path d="m105.33105 356.06835000000007 -9.3654 23.5224" fill="none" stroke="#3ee922" stroke-linecap="round" stroke-linejoin="round" stroke-width="5"></path><path d="M87.3477 399.64320000000004a0.90585 0.90585 0 1 1 -0.9009 0.9009 0.9009 0.9009 0 0 1 0.9009 -0.9009m0 -4.95a5.85585 5.85585 0 0 0 0 11.706750000000001 5.85585 5.85585 0 0 0 0 -11.706750000000001Z" fill="#3ee922" stroke-width="5"></path><path d="M426.37440625065005 390.21113599776004a12.87495 9.60795 0.118 1 0 0.039574897065 -19.21585924764 12.87495 9.60795 0.118 1 0 -0.03957489756 19.21585924764Z" fill="none" stroke="#3ee922" stroke-linecap="round" stroke-linejoin="round" stroke-width="5"></path><path d="m184.92705 344.20815000000005 -62.7066 0 -22.6017 78.80895 311.88465 0 -18.216 -78.80895 -23.85405 0" fill="none" stroke="#3ee922" stroke-linecap="round" stroke-linejoin="round" stroke-width="5"></path><path d="M201.23235 371.4777h111.90960000000001v17.552699999999998H201.23235z" fill="none" stroke="#3ee922" stroke-linecap="round" stroke-linejoin="round" stroke-width="5"></path><path d="m242.4609 371.4777 29.4525 0 0 17.552699999999998 -29.4525 0Z" fill="none" stroke="#3ee922" stroke-linecap="round" stroke-linejoin="round" stroke-width="5"></path><path d="m201.4353 371.4777 55.954800000000006 0" fill="none" stroke="#3ee922" stroke-linecap="round" stroke-linejoin="round" stroke-width="5"></path><path d="M89.5257 168.3c4.55895 42.41655000000001 15.983550000000001 68.0328 56.51415 85.2489 2.97 1.2573 5.148000000000001 2.20275 6.8557500000000005 2.8809" fill="none" stroke="#3ee922" stroke-linecap="round" stroke-linejoin="round" stroke-width="5"></path><path d="M162.12240000000003 231.2937c-30.9969 -12.048300000000001 -40.5207 -33.561 -44.708400000000005 -63.68175" fill="none" stroke="#3ee922" stroke-linecap="round" stroke-linejoin="round" stroke-width="5"></path><path d="m237.94155000000003 208.99890000000002 -0.14355 0h-15.998400000000002a55.85085 55.85085 0 0 0 -37.6992 14.602500000000001 20.384100000000004 20.384100000000004 0 0 1 -17.46855 5.0539499999999995 4.02435 4.02435 0 0 0 -4.455 2.5542000000000002l-8.91 23.89365a5.85585 5.85585 0 0 0 4.1382 7.75665c0.9900000000000001 0.2376 2.04435 0.4455 3.0789 0.6336a56.925000000000004 56.925000000000004 0 0 0 9.94455 0.8811 55.316250000000004 55.316250000000004 0 0 0 30.77415 -9.405v116.50815h112.0086" fill="none" stroke="#3ee922" stroke-linecap="round" stroke-linejoin="round" stroke-width="5"></path><path d="M201.16305000000003 389.0304h112.0482v33.9867H201.16305000000003z" fill="none" stroke="#3ee922" stroke-linecap="round" stroke-linejoin="round" stroke-width="5"></path><path d="M240.88185 219.0078a102.96000000000001 102.96000000000001 0 0 1 -4.33125 -15.90435v-5.5588500000000005" fill="none" stroke="#3ee922" stroke-linecap="round" stroke-linejoin="round" stroke-width="5"></path><path d="m277.8336 196.85655 0 0.68805" fill="none" stroke="#3ee922" stroke-linecap="round" stroke-linejoin="round" stroke-width="5"></path><path d="M196.86150000000004 132.3333a11.127600000000001 11.127600000000001 0 0 0 3.8511 21.5622c0.23265 0 0.45045 -0.05445 0.6831 -0.0693a55.54395 55.54395 0 0 0 109.89 0c0.23265 0 0.45045 0.0693 0.6831 0.0693a11.127600000000001 11.127600000000001 0 0 0 3.8511 -21.5622" fill="none" stroke="#3ee922" stroke-linecap="round" stroke-linejoin="round" stroke-width="5"></path><path d="M239.58 169.40879999999999a24.255000000000003 24.255000000000003 0 0 0 33.466950000000004 0" fill="none" stroke="#3ee922" stroke-linecap="round" stroke-linejoin="round" stroke-width="5"></path><path d="M315.95355 90.64935a35.33805 35.33805 0 0 0 -16.98345 -28.9575c-5.48955 -12.61755 -22.49775 -21.81465 -42.63435 -21.81465s-37.125 9.1971 -42.639300000000006 21.81465a35.33805 35.33805 0 0 0 -16.98345 28.9575l-1.3365000000000002 37.4814a6.0786 6.0786 0 0 0 6.0885 6.2964 5.5588500000000005 5.5588500000000005 0 0 0 5.50935 -4.7718l2.1037500000000002 -14.751000000000001a22.606650000000002 22.606650000000002 0 0 1 21.70575 -19.399050000000003 61.612649999999995 61.612649999999995 0 0 0 51.128550000000004 0 22.606650000000002 22.606650000000002 0 0 1 21.70575 19.399050000000003l2.1037500000000002 14.74605a5.5638000000000005 5.5638000000000005 0 0 0 5.50935 4.77675 6.0786 6.0786 0 0 0 6.063750000000001 -6.2964Z" fill="none" stroke="#3ee922" stroke-linecap="round" stroke-linejoin="round" stroke-width="5"></path><path d="M213.69645 61.691849999999995a21.25035 21.25035 0 0 0 -1.089 14.355" fill="none" stroke="#3ee922" stroke-linecap="round" stroke-linejoin="round" stroke-width="5"></path><path d="M298.98 61.691849999999995a21.25035 21.25035 0 0 1 1.089 14.355" fill="none" stroke="#3ee922" stroke-linecap="round" stroke-linejoin="round" stroke-width="5"></path><path d="M281.89755 95.5053a42.629400000000004 42.629400000000004 0 0 0 8.7615 -5.5737" fill="none" stroke="#3ee922" stroke-linecap="round" stroke-linejoin="round" stroke-width="5"></path><path d="M230.769 95.5053a42.629400000000004 42.629400000000004 0 0 1 -8.7615 -5.5737" fill="none" stroke="#3ee922" stroke-linecap="round" stroke-linejoin="round" stroke-width="5"></path><path d="M289.7532 134.4222a9.0684 9.0684 0 0 0 -16.73595 0" fill="none" stroke="#3ee922" stroke-linecap="round" stroke-linejoin="round" stroke-width="5"></path><path d="M222.91335 134.4222a9.0684 9.0684 0 0 1 16.73595 0" fill="none" stroke="#3ee922" stroke-linecap="round" stroke-linejoin="round" stroke-width="5"></path><path d="M209.05335 134.42715a22.25025 22.25025 0 1 0 44.5005 0 22.25025 22.25025 0 1 0 -44.5005 0Z" fill="none" stroke="#3ee922" stroke-linecap="round" stroke-linejoin="round" stroke-width="5"></path><path d="M259.1127 134.42715a22.25025 22.25025 0 1 0 44.5005 0 22.25025 22.25025 0 1 0 -44.5005 0Z" fill="none" stroke="#3ee922" stroke-linecap="round" stroke-linejoin="round" stroke-width="5"></path><path d="M418.01265 314.2062V221.4333a11.7018 11.7018 0 0 0 -11.7018 -11.7018H265.14675a11.69685 11.69685 0 0 0 -11.706750000000001 11.7018v92.7729" fill="none" stroke="#3ee922" stroke-linecap="round" stroke-linejoin="round" stroke-width="5"></path><path d="M366.14160000000004 314.2062h63.463950000000004a2.92545 2.92545 0 0 1 2.92545 2.92545v9.37035a6.063750000000001 6.063750000000001 0 0 1 -5.841 5.9895H366.3" fill="none" stroke="#3ee922" stroke-linecap="round" stroke-linejoin="round" stroke-width="5"></path><path d="M304.3359 332.49150000000003H244.77255a6.063750000000001 6.063750000000001 0 0 1 -5.8509 -5.9895v-9.37035a2.9304 2.9304 0 0 1 2.92545 -2.92545h62.6076" fill="none" stroke="#3ee922" stroke-linecap="round" stroke-linejoin="round" stroke-width="5"></path><path d="m70.70580000000001 156.97935 -13.55805 5.445a20.0772 20.0772 0 1 0 7.4745 18.636750000000003l11.4147 -4.5738m61.6869 -24.75 3.09375 -1.24245a23.373900000000003 23.373900000000003 0 0 0 24.556950000000004 4.57875 21.027600000000003 21.027600000000003 0 0 0 2.1582 -1.0197 2.9205 2.9205 0 0 0 -0.24750000000000003 -5.256900000000001l-10.2267 -4.3758a10.0386 10.0386 0 1 1 7.89525 -18.458550000000002l10.2267 4.37085a2.92545 2.92545 0 0 0 3.9600000000000004 -3.465 21.3642 21.3642 0 0 0 -0.75735 -2.2671 23.37885 23.37885 0 0 0 -45.045 7.2468l-1.3860000000000001 0.55935M38.61 180.675a6.692400000000001 6.692400000000001 0 1 1 8.7021 3.7224A6.692400000000001 6.692400000000001 0 0 1 38.61 180.675Z" fill="none" stroke="#3ee922" stroke-linecap="round" stroke-linejoin="round" stroke-width="5"></path><path d="M112.73625 132.7293a6.3607499999999995 6.3607499999999995 0 0 1 6.0142500000000005 4.6926l3.8808000000000002 14.201550000000001a15.29055 15.29055 0 0 1 -10.716750000000001 18.7803l-7.375500000000001 2.01465a15.29055 15.29055 0 0 1 -18.7803 -10.716750000000001l-3.8808000000000002 -14.206500000000002a6.3756 6.3756 0 0 1 2.79675 -7.0983 51.480000000000004 51.480000000000004 0 0 1 28.06155 -7.66755Z" fill="none" stroke="#3ee922" stroke-linecap="round" stroke-linejoin="round" stroke-width="5"></path><path d="M312.63210000000004 289.575a5.841 5.841 0 0 1 -3.84615 -1.44045l-18.0675 -15.7707a5.85585 5.85585 0 0 1 0 -8.8209l18.0675 -15.7707a5.8509 5.8509 0 0 1 7.6923 8.815949999999999l-13.0185 11.385 13.0185 11.385a5.8509 5.8509 0 0 1 -3.84615 10.256400000000001Z" fill="none" stroke="#3ee922" stroke-linecap="round" stroke-linejoin="round" stroke-width="5"></path><path d="M358.82055 289.575a5.8509 5.8509 0 0 1 -3.84615 -10.256400000000001l13.0185 -11.385 -13.0185 -11.385a5.8509 5.8509 0 0 1 7.6923 -8.815949999999999l18.07245 15.7707a5.85585 5.85585 0 0 1 0 8.8209l-18.07245 15.7707a5.841 5.841 0 0 1 -3.84615 1.48005Z" fill="none" stroke="#3ee922" stroke-linecap="round" stroke-linejoin="round" stroke-width="5"></path><path d="M323.6805 293.89140000000003a5.85585 5.85585 0 0 1 -5.014349999999999 -8.86545l24.0867 -40.14945a5.8509 5.8509 0 0 1 10.033650000000002 6.024150000000001L328.68000000000006 291.06a5.84595 5.84595 0 0 1 -4.9995 2.8314Z" fill="none" stroke="#3ee922" stroke-linecap="round" stroke-linejoin="round" stroke-width="5"></path><path d="M406.395 314.2062V227.205a5.8509 5.8509 0 0 0 -5.8509 -5.8509H270.9135a5.8509 5.8509 0 0 0 -5.8509 5.8509v87.00120000000001" fill="none" stroke="#3ee922" stroke-linecap="round" stroke-linejoin="round" stroke-width="5"></path><path d="M321.13125 344.6289a6.3657 6.3657 0 0 1 -4.5441 -6.1281l0.0594 -14.721300000000001a15.2856 15.2856 0 0 1 15.345 -15.23115l7.6428 0.02475a15.29055 15.29055 0 0 1 15.23115 15.345l-0.05445 14.721300000000001a6.3657 6.3657 0 0 1 -4.58865 6.093450000000001 51.4206 51.4206 0 0 1 -29.09115 -0.1089Z" fill="none" stroke="#3ee922" stroke-linecap="round" stroke-linejoin="round" stroke-width="5"></path><path d="m313.21125 371.4777 0 -16.9785" fill="none" stroke="#3ee922" stroke-linecap="round" stroke-linejoin="round" stroke-width="5"></path></svg>