<svg xmlns="http://www.w3.org/2000/svg" fill="none" viewBox="-5 -5 4000 4000" stroke-linecap="round" stroke-linejoin="round" stroke="#24ff00" id="Globe--Streamline-Mynaui.svg" height="4000" width="4000"><desc>Globe Streamline Icon: https://streamlinehq.com</desc><path d="M1995 3697.549625C3305.631875 3697.549625 4124.76225 2278.7554999999998 3469.454625 1143.716875C3165.316875 616.95375 2603.258875 292.450375 1995 292.450375M1995 3697.549625C684.3681250000001 3697.549625 -134.76225 2278.7554999999998 520.545375 1143.716875C824.6831249999999 616.95375 1386.741125 292.450375 1995 292.450375M1995 3697.549625C2517.307625 3697.549625 2740.5315 2720.8475 2740.5315 1995C2740.5315 1269.135875 2517.307625 292.450375 1995 292.450375M1995 3697.549625C1472.692375 3697.549625 1249.4685 2720.8475 1249.4685 1995C1249.4685 1269.135875 1472.692375 292.450375 1995 292.450375M387.03 1427.4889999999998H3602.9700000000003M387.03 2562.511H3602.9700000000003" stroke-width="200"></path></svg>