<svg xmlns="http://www.w3.org/2000/svg" fill="none" viewBox="-2.5 -2.5 500 500" id="App-Building-1--Streamline-Ux.svg" height="500" width="500"><desc>App Building 1 Streamline Illustration: https://streamlinehq.com</desc><path stroke="#3ee922" stroke-linecap="round" stroke-linejoin="round" d="M417.41122500000006 231.05065500000003V154.431585C417.40182 151.14428999999998 416.09155499999997 147.99411 413.76753 145.669095C411.442515 143.34507000000002 408.29233500000004 142.034805 405.00504 142.02540000000002H291.29809500000005C288.558765 142.01748 285.933285 140.92551 283.995855 138.98808C282.058425 137.05065000000002 280.966455 134.42517 280.95853500000004 131.685345V30.35538C280.94912999999997 27.06462 279.63639 23.911965000000002 277.30791 21.586455C274.97943000000004 19.26144 271.824795 17.95365 268.534035 17.949195H32.782365C29.51982 17.9388 26.286975 18.573390000000003 23.27094 19.816335000000002C20.254905 21.05928 17.513595000000002 22.886325 15.20541 25.192035C12.89772 27.497745000000002 11.067705 30.23658 9.822285 33.252615C8.57637 36.26766000000001 7.938315 39.499515 7.945245 42.761565000000004V290.91447C7.9373249999999995 294.17553000000004 8.57439 297.406395 9.818325 300.42144C11.062755000000001 303.43599 12.891285 306.17532 15.196995000000001 308.481525C17.5032 310.787235 20.242034999999998 312.615765 23.257080000000002 313.85970000000003C26.271630000000002 315.10413 29.502990000000004 315.741195 32.76405 315.733275H188.70439500000003" stroke-width="5"></path><path stroke="#3ee922" stroke-linecap="round" stroke-linejoin="round" d="M280.91646000000003 42.753645000000006H417.39340500000003" stroke-width="5"></path><path stroke="#3ee922" stroke-linecap="round" stroke-linejoin="round" d="M280.91646000000003 92.39175H417.39340500000003" stroke-width="5"></path><path stroke="#3ee922" stroke-linecap="round" stroke-linejoin="round" d="M330.54219 17.943255V142.01946" stroke-width="5"></path><path stroke="#3ee922" stroke-linecap="round" stroke-linejoin="round" d="M380.174355 17.943255V142.01946" stroke-width="5"></path><path stroke="#3ee922" stroke-linecap="round" stroke-linejoin="round" d="M32.76405 17.943255C29.505465 17.94177 26.278065 18.58329 23.26698 19.830195C20.255895000000002 21.076605 17.519535 22.90464 15.214815000000002 25.208370000000002C12.910095 27.512594999999997 11.08206 30.24846 9.83466 33.25905C8.58726 36.270135 7.945245 39.49704 7.945245 42.75612V79.98111000000002H280.91646000000003V30.35538C280.91646000000003 27.06858 279.61312499999997 23.915430000000004 277.291575 21.588929999999998C274.97052 19.261935 271.82133000000005 17.95068 268.534035 17.943255H32.76405Z" stroke-width="5"></path><path stroke="#3ee922" stroke-linecap="round" stroke-linejoin="round" d="M69.983595 48.961439999999996C69.983595 51.415155000000006 69.25545 53.813925 67.892715 55.854315C66.52948500000001 57.894705 64.592055 59.484645 62.32446 60.42366C60.057854999999996 61.362675 57.563055 61.608195 55.15686 61.129529999999995C52.749674999999996 60.650865 50.539500000000004 59.4693 48.804525000000005 57.73383C47.069055000000006 55.99935000000001 45.88749000000001 53.78868000000001 45.40882500000001 51.381495C44.93016 48.975300000000004 45.176175 46.480995 46.114695000000005 44.213895C47.054205 41.9463 48.644145 40.009365 50.684535000000004 38.64564C52.724925000000006 37.282905 55.1232 36.555255 57.57691500000001 36.555255C60.867180000000005 36.556740000000005 64.021815 37.86453 66.34782000000001 40.190535000000004C68.67382500000001 42.517035 69.981615 45.67167 69.983595 48.961439999999996Z" stroke-width="5"></path><path stroke="#3ee922" stroke-linecap="round" stroke-linejoin="round" d="M125.82157500000001 48.961439999999996C125.82256500000001 51.417135 125.09541 53.817389999999996 123.73267500000001 55.85926500000001C122.36895 57.901140000000005 120.431025 59.49306000000001 118.16293500000002 60.43356C115.894845 61.37406 113.39856 61.62057000000001 110.990385 61.14190500000001C108.5832 60.66423 106.37055000000001 59.48217 104.63409000000001 57.746700000000004C102.89713499999999 56.011230000000005 101.71458000000001 53.79957 101.234925 51.391394999999996C100.75576500000001 48.98322 101.001285 46.48743 101.94079500000001 44.218845C102.87981 41.950755 104.47123500000001 40.01184 106.51212000000001 38.64762C108.5535 37.2834 110.95326 36.555255 113.408955 36.555255C116.69872500000001 36.556740000000005 119.85435000000001 37.864035 122.18134500000001 40.190039999999996C124.50883500000002 42.51654 125.817615 45.670680000000004 125.82108 48.961439999999996Z" stroke-width="5"></path><path stroke="#3ee922" stroke-linecap="round" stroke-linejoin="round" d="M175.447305 48.961439999999996C175.447305 51.415155000000006 174.71916 53.813925 173.35593 55.854315C171.9927 57.894705 170.054775 59.484645 167.78817 60.42366C165.52156499999998 61.362675 163.026765 61.608195 160.620075 61.129529999999995C158.213385 60.650865 156.002715 59.4693 154.268235 57.73383C152.53276499999998 55.99935000000001 151.3512 53.78868000000001 150.872535 51.381495C150.39387 48.975300000000004 150.63939000000002 46.480995 151.578405 44.213895C152.51742 41.9463 154.10736 40.009365 156.14775 38.64564C158.18814 37.282905 160.58691000000002 36.555255 163.040625 36.555255C166.330395 36.556740000000005 169.48503000000002 37.86453 171.81153 40.190535000000004C174.13753499999999 42.517035 175.445325 45.67167 175.44681000000003 48.961439999999996Z" stroke-width="5"></path><path stroke="#3ee922" stroke-linecap="round" stroke-linejoin="round" d="M331.27330500000005 353.76709500000004L286.85349 309.34134L313.16967 283.0311L357.59592000000004 327.439035" stroke-width="5"></path><path stroke="#3ee922" stroke-linecap="round" stroke-linejoin="round" d="M392.69488500000006 362.51820000000004L466.708275 436.55535000000003C468.43632 438.28389 469.806975 440.335665 470.74302 442.59336C471.67807500000004 444.85155000000003 472.15971 447.2721 472.15971 449.71641C472.15971 452.16072 471.67807500000004 454.580775 470.74302 456.83946000000003C469.806975 459.097155 468.43632 461.14893 466.708275 462.877965C464.97924 464.60601 462.92746500000004 465.976665 460.66977 466.91271C458.411085 467.84776500000004 455.99103 468.32939999999996 453.547215 468.32939999999996C451.10241 468.32939999999996 448.68186 467.84776500000004 446.42367 466.91271C444.16597500000006 465.976665 442.11420000000004 464.60601 440.38516500000003 462.877965L366.36633000000006 388.876455" stroke-width="5"></path><path stroke="#3ee922" stroke-linecap="round" stroke-linejoin="round" d="M314.6616 266.93865C316.599525 268.878555 317.68803 271.50849 317.68803 274.250295C317.68803 276.991605 316.599525 279.62154 314.6616 281.56194L285.409575 310.80159000000003C284.451255 311.76288 283.311765 312.525675 282.05793 313.046415C280.8036 313.56666 279.45918 313.83495000000005 278.1009 313.83495000000005C276.74361000000005 313.83495000000005 275.39869500000003 313.56666 274.14486000000005 313.046415C272.891025 312.525675 271.751535 311.76288 270.79272 310.80159000000003L232.77078 272.78559C230.83533000000003 270.84618 229.747815 268.217235 229.747815 265.476915C229.747815 262.736595 230.83533000000003 260.10814500000004 232.77078 258.16824L261.99261 228.92908500000001C262.952415 227.966805 264.09141 227.204505 265.34673000000004 226.683765C266.60106 226.16302500000003 267.945975 225.89523 269.304255 225.89523C270.662535 225.89523 272.00745 226.16302500000003 273.26178 226.683765C274.5171 227.204505 275.65659 227.966805 276.615405 228.92908500000001L314.6616 266.93865Z" stroke-width="5"></path><path stroke="#3ee922" stroke-linecap="round" stroke-linejoin="round" d="M234.20826 274.252275C227.871765 280.589265 222.844545 288.112275 219.41469 296.39115000000004C215.98533 304.67052 214.219665 313.54488 214.219665 322.50636000000003C214.219665 331.46784 215.98533 340.341705 219.41469 348.62157C222.844545 356.90094000000005 227.871765 364.42395 234.20826 370.75995C234.80968500000003 371.37969000000004 235.58733 371.79747000000003 236.435265 371.95883999999995C237.282705 372.11971500000004 238.15984500000002 372.01527000000004 238.945905 371.65936500000004C239.73147 371.30346000000003 240.38932499999999 370.713915 240.82789499999998 369.97092000000004C241.26646499999998 369.22742999999997 241.46545500000002 368.367615 241.397145 367.507305C240.61455 356.004 242.31141 344.46654000000007 246.37288500000003 333.67554C250.43436 322.88503499999996 256.76640000000003 313.09195500000004 264.93984 304.960095L234.20826 274.252275Z" stroke-width="5"></path><path stroke="#3ee922" stroke-linecap="round" stroke-linejoin="round" d="M295.629345 195.29334000000003C292.76577 209.59290000000001 290.123955 218.344995 279.80865 228.65485500000003L278.07714 230.37993000000003L308.78496 261.09963L310.515975 259.36218C320.831775 249.05232 329.57793000000004 246.40456500000002 343.87749 243.54693L295.629345 195.29334000000003Z" stroke-width="5"></path><path stroke="#3ee922" stroke-linecap="round" stroke-linejoin="round" d="M367.269705 214.29540000000003C368.23148999999995 215.25619500000002 368.99379000000005 216.39667500000002 369.514035 217.65249C370.03477499999997 218.90780999999998 370.302075 220.25322000000003 370.302075 221.61249C370.302075 222.97176000000002 370.03428 224.317665 369.514035 225.57298500000002C368.99379000000005 226.8288 368.23148999999995 227.96928000000003 367.269705 228.93007500000002L355.57632 240.61752C354.61651500000005 241.57782000000003 353.47653 242.33913 352.22220000000004 242.859375C350.96787000000006 243.37863000000002 349.622955 243.646425 348.264675 243.646425C346.90738500000003 243.646425 345.56246999999996 243.37863000000002 344.30814 242.859375C343.05381 242.33913 341.913825 241.57782000000003 340.95352499999996 240.61752L294.161175 193.82566500000001C293.20137 192.86586000000003 292.44006 191.72637 291.92031 190.47253500000002C291.40056 189.218205 291.133755 187.87428 291.133755 186.51699C291.133755 185.1597 291.40056 183.81528 291.92031 182.56144500000002C292.44006 181.30761 293.20137 180.16812 294.161175 179.208315L305.8605 167.50305C306.8208 166.54275 307.96078500000004 165.78144 309.21560999999997 165.26119500000001C310.46994 164.74194 311.814855 164.474145 313.172145 164.474145C314.530425 164.474145 315.87534 164.74194 317.12967 165.26119500000001C318.38399999999996 165.78144 319.523985 166.54275 320.48379000000006 167.50305L367.269705 214.29540000000003Z" stroke-width="5"></path><path stroke="#3ee922" stroke-linecap="round" stroke-linejoin="round" d="M269.360685 415.695555L251.80848 468.33484500000003L304.45371 450.78264L269.360685 415.695555Z" stroke-width="5"></path><path stroke="#3ee922" stroke-linecap="round" stroke-linejoin="round" d="M427.31518500000004 257.727195L269.37999 415.63467L304.47202500000003 450.73215000000005L462.40623000000005 292.82517L427.31518500000004 257.727195Z" stroke-width="5"></path><path stroke="#3ee922" stroke-linecap="round" stroke-linejoin="round" d="M462.37653000000006 292.861305L427.284 257.76283500000005L444.830265 240.22845C449.49514500000004 235.63386000000003 455.78758500000004 233.069265 462.33495 233.09351999999998C468.88281 233.11827 475.15545000000003 235.72989 479.78568 240.359625C484.41640500000005 244.988865 487.02852 251.262 487.05426000000006 257.809365C487.08000000000004 264.357225 484.51689 270.64966499999997 479.922795 275.31504L462.37653000000006 292.861305Z" stroke-width="5"></path><path stroke="#3ee922" stroke-linecap="round" stroke-linejoin="round" d="M242.720775 477.05674500000003L252.221805 467.55571499999996" stroke-width="5"></path></svg>