<svg xmlns="http://www.w3.org/2000/svg" fill="none" viewBox="-2.5 -2.5 500 500" id="Work-Call--Streamline-Bangalore.svg" height="500" width="500"><desc>Work Call Streamline Illustration: https://streamlinehq.com</desc><g id="work-call--work-call"><g id="circle"><path id="Vector" stroke="#3ee922" stroke-linecap="round" stroke-linejoin="round" d="M295.32195 176.18287500000002a91.770525 91.770525 0 0 0 -36.528525 28.908" stroke-width="5"></path><path id="Vector_2" stroke="#3ee922" stroke-linecap="round" stroke-linejoin="round" d="M422.88840000000005 269.223075c0.3069 -3.0615750000000004 0.46035000000000004 -6.138 0.46035000000000004 -9.2169a91.161675 91.161675 0 0 0 -6.662700000000001 -34.32825" stroke-width="5"></path><path id="Vector_3" stroke="#3ee922" stroke-linecap="round" stroke-linejoin="round" d="M258.793425 314.919a91.6443 91.6443 0 0 0 43.72582500000001 31.697325000000003" stroke-width="5"></path></g><g id="chat bubble"><path id="Vector_4" stroke="#3ee922" stroke-linecap="round" stroke-linejoin="round" d="M295.32195 126.63832500000001v99.0396h128.974725l26.133525 37.99125V126.63832500000001h-155.10825Z" stroke-width="5"></path><path id="Vector_5" stroke="#3ee922" stroke-linecap="round" stroke-linejoin="round" d="M335.785725 158.29605h76.428" stroke-width="5"></path><path id="Vector_6" stroke="#3ee922" stroke-linecap="round" stroke-linejoin="round" d="M335.785725 176.84122499999998h76.428" stroke-width="5"></path><path id="Vector_7" stroke="#3ee922" stroke-linecap="round" stroke-linejoin="round" d="M335.785725 195.15375h76.428" stroke-width="5"></path></g><g id="phone"><path id="Vector_8" stroke="#3ee922" stroke-linecap="round" stroke-linejoin="round" d="M141.6888 389.319975c71.41860000000001 0 129.3138 -57.8952 129.3138 -129.3138 0 -71.41860000000001 -57.8952 -129.3138 -129.3138 -129.3138C70.2702 130.692375 12.375 188.58757500000002 12.375 260.006175c0 71.41860000000001 57.8952 129.3138 129.3138 129.3138Z" stroke-width="5"></path><path id="Vector_9" fill="#00000000" d="M174.455325 286.74855c-2.03445 1.5147 -2.178 1.819125 -14.515875000000001 14.159475a151.309125 151.309125 0 0 1 -58.6575 -58.6575c13.246200000000002 -13.241249999999999 12.77595 -12.659625 14.159475 -14.515875000000001l-38.61 -38.61a41.4315 41.4315 0 0 0 -10.446975 22.064625c-4.175325 25.35885 9.42975 59.565825000000004 37.22895 87.36749999999999 27.7992 27.801675000000003 62.006175000000006 41.40675 87.36749999999999 37.231425a41.42655 41.42655 0 0 0 22.064625 -10.446975l-38.5902 -38.592675Z" stroke-width="5"></path><path id="Vector_10" stroke="#3ee922" stroke-linecap="round" stroke-linejoin="round" d="M174.455325 286.74855c-2.03445 1.5147 -2.178 1.819125 -14.515875000000001 14.159475a151.309125 151.309125 0 0 1 -58.6575 -58.6575c13.246200000000002 -13.241249999999999 12.77595 -12.659625 14.159475 -14.515875000000001l-38.61 -38.61a41.4315 41.4315 0 0 0 -10.446975 22.064625c-4.175325 25.35885 9.42975 59.565825000000004 37.22895 87.36749999999999 27.7992 27.801675000000003 62.006175000000006 41.40675 87.36749999999999 37.231425a41.42655 41.42655 0 0 0 22.064625 -10.446975l-38.5902 -38.592675Z" stroke-width="5"></path><path id="Vector_11" fill="#00000000" d="m218.22817500000002 293.88645 -8.971875 -8.971875a23.579325 23.579325 0 0 0 -30.69 -2.277l38.61 38.61c9.0189 -8.521425 5.9994 -22.411125 1.0518750000000001 -27.361125Z" stroke-width="5"></path><path id="Vector_12" stroke="#3ee922" stroke-linecap="round" stroke-linejoin="round" d="m218.22817500000002 293.88645 -8.971875 -8.971875a23.579325 23.579325 0 0 0 -30.69 -2.277l38.61 38.61c9.0189 -8.521425 5.9994 -22.411125 1.0518750000000001 -27.361125Z" stroke-width="5"></path><path id="Vector_13" fill="#00000000" d="m117.282825 192.9411 -8.971875 -8.971875c-5.0440499999999995 -5.041575 -18.834750000000003 -7.9818750000000005 -27.348750000000003 1.0543500000000001l38.61 38.61a23.569425 23.569425 0 0 0 -2.289375 -30.69Z" stroke-width="5"></path><path id="Vector_14" stroke="#3ee922" stroke-linecap="round" stroke-linejoin="round" d="m117.282825 192.9411 -8.971875 -8.971875c-5.0440499999999995 -5.041575 -18.834750000000003 -7.9818750000000005 -27.348750000000003 1.0543500000000001l38.61 38.61a23.569425 23.569425 0 0 0 -2.289375 -30.69v0Z" stroke-width="5"></path><g id="Group"><path id="Vector_15" stroke="#3ee922" stroke-linecap="round" stroke-linejoin="round" d="M65.35485 370.386225c0.7425 -4.160475 0.606375 -8.432325 -0.398475 -12.540825000000002 -0.9009 -3.809025 -2.7225 -6.642900000000001 -4.061475000000001 -6.323625000000001 -1.3389750000000002 0.31927500000000003 -1.700325 3.6630000000000003 -0.799425 7.4745a30.311325 30.311325 0 0 0 5.259375 11.38995v0Z" stroke-width="5"></path><path id="Vector_16" stroke="#3ee922" stroke-linecap="round" stroke-linejoin="round" d="M41.721075 376.98705000000007a29.786625 29.786625 0 0 0 -0.1584 -13.6125c-0.9009 -3.8115 -2.927925 -6.593400000000001 -4.52925 -6.2147250000000005 -1.601325 0.378675 -2.1681 3.774375 -1.2672 7.585875a29.791575 29.791575 0 0 0 5.95485 12.24135v0Z" stroke-width="5"></path><path id="Vector_17" stroke="#3ee922" stroke-linecap="round" stroke-linejoin="round" d="M89.721225 364.38682500000004c0.6930000000000001 -4.08375 0.5445 -8.268975000000001 -0.438075 -12.293325 -0.9009 -3.809025 -2.6779500000000005 -6.652800000000001 -3.9600000000000004 -6.3459 -1.2820500000000001 0.3069 -1.6087500000000001 3.640725 -0.70785 7.452225a30.393 30.393 0 0 0 5.105925000000001 11.187v0Z" stroke-width="5"></path><path id="Vector_18" stroke="#3ee922" stroke-linecap="round" stroke-linejoin="round" d="M137.587725 353.30872500000004a30.36825 30.36825 0 0 0 -0.398475 -12.540825000000002c-0.9009 -3.809025 -2.7225 -6.642900000000001 -4.061475000000001 -6.323625000000001 -1.3389750000000002 0.31927500000000003 -1.700325 3.6630000000000003 -0.799425 7.472025a30.308850000000003 30.308850000000003 0 0 0 5.259375 11.392425v0Z" stroke-width="5"></path><path id="Vector_19" stroke="#3ee922" stroke-linecap="round" stroke-linejoin="round" d="M113.95395 359.90955a29.786625 29.786625 0 0 0 -0.1584 -13.6125c-0.9009 -3.8115 -2.927925 -6.593400000000001 -4.52925 -6.2147250000000005 -1.601325 0.378675 -2.1681 3.774375 -1.2672 7.5834a29.8287 29.8287 0 0 0 5.95485 12.243825000000001v0Z" stroke-width="5"></path><path id="Vector_20" stroke="#3ee922" stroke-linecap="round" stroke-linejoin="round" d="M12.375 370.277325c2.8289250000000004 11.971575 11.659725000000002 20.129175 19.718325 18.223425000000002 4.794075 -1.13355 8.219475000000001 -5.5836 9.62775 -11.5137 8.947125000000002 10.679625000000001 21.010275000000004 7.1775 23.633775 -6.6008249999999995 8.8902 11.6325 21.747825000000002 8.526375 24.366375 -5.9994 8.541225 11.40975 21.005325000000003 9.12285 24.232725000000002 -4.477275 8.947125000000002 10.679625000000001 21.010275000000004 7.1775 23.633775 -6.6008249999999995 3.997125 5.23215 9.377775000000002 8.033850000000001 14.45895 6.833475000000001 8.37045 -1.9800000000000002 12.622499999999999 -14.030775 9.11295 -26.504775" stroke-width="5"></path></g></g><g id="laptop"><path id="Vector_21" stroke="#3ee922" stroke-linecap="round" stroke-linejoin="round" d="m473.77934999999997 269.470575 -12.016125 70.366725 -40.4712 40.22865 -151.9947 -0.42569999999999997a6.437475 6.437475 0 0 0 6.412725000000001 6.4350000000000005l138.795525 0.3861a16.382025 16.382025 0 0 0 11.600325000000002 -4.764375l35.144999999999996 -34.9272a21.193425 21.193425 0 0 0 5.9796000000000005 -11.607750000000001l8.986725 -54.623250000000006a15.322725 15.322725 0 0 0 -2.437875 -11.068200000000001v0Z" stroke-width="5"></path><path id="Vector_22" stroke="#3ee922" stroke-linecap="round" stroke-linejoin="round" d="m461.76322500000003 339.83729999999997 -151.997175 -0.42569999999999997 -40.468725 40.22865 151.9947 0.42569999999999997 40.4712 -40.22865Z" stroke-width="5"></path><path id="Vector_23" stroke="#3ee922" stroke-linecap="round" stroke-linejoin="round" d="m352.863225 345.319425 -27.096300000000003 -0.076725 -14.429250000000001 14.3451 27.096300000000003 0.07425 14.429250000000001 -14.342625Z" stroke-width="5"></path><path id="Vector_24" fill="#00000000" d="m379.95952500000004 345.39615000000003 -27.096300000000003 -0.076725 -14.429250000000001 14.342625 27.096300000000003 0.076725 14.429250000000001 -14.342625Z" stroke-width="5"></path><path id="Vector_25" stroke="#3ee922" stroke-linecap="round" stroke-linejoin="round" d="m379.95952500000004 345.39615000000003 -27.096300000000003 -0.076725 -14.429250000000001 14.342625 27.096300000000003 0.076725 14.429250000000001 -14.342625Z" stroke-width="5"></path><path id="Vector_26" stroke="#3ee922" stroke-linecap="round" stroke-linejoin="round" d="m407.055825 345.47040000000004 -27.096300000000003 -0.07425 -14.429250000000001 14.342625 27.096300000000003 0.076725 14.429250000000001 -14.3451Z" stroke-width="5"></path><path id="Vector_27" stroke="#3ee922" stroke-linecap="round" stroke-linejoin="round" d="m434.152125 345.54712500000005 -27.096300000000003 -0.076725 -14.429250000000001 14.3451 27.096300000000003 0.07425 14.429250000000001 -14.342625Z" stroke-width="5"></path><path id="Vector_28" fill="#00000000" d="m338.43397500000003 359.66205 -27.096300000000003 -0.07425 -14.429250000000001 14.342625 27.096300000000003 0.076725 14.429250000000001 -14.3451Z" stroke-width="5"></path><path id="Vector_29" stroke="#3ee922" stroke-linecap="round" stroke-linejoin="round" d="m338.43397500000003 359.66205 -27.096300000000003 -0.07425 -14.429250000000001 14.342625 27.096300000000003 0.076725 14.429250000000001 -14.3451Z" stroke-width="5"></path><path id="Vector_30" stroke="#3ee922" stroke-linecap="round" stroke-linejoin="round" d="m365.530275 359.738775 -27.096300000000003 -0.076725 -14.429250000000001 14.3451 27.096300000000003 0.07425 14.429250000000001 -14.342625Z" stroke-width="5"></path><path id="Vector_31" stroke="#3ee922" stroke-linecap="round" stroke-linejoin="round" d="m392.626575 359.8155 -27.096300000000003 -0.076725 -14.429250000000001 14.342625 27.096300000000003 0.076725 14.429250000000001 -14.342625Z" stroke-width="5"></path><path id="Vector_32" fill="#00000000" d="m419.72287500000004 359.88975 -27.096300000000003 -0.07425 -14.429250000000001 14.342625 27.096300000000003 0.07425 14.429250000000001 -14.342625Z" stroke-width="5"></path><path id="Vector_33" stroke="#3ee922" stroke-linecap="round" stroke-linejoin="round" d="m419.72287500000004 359.88975 -27.096300000000003 -0.07425 -14.429250000000001 14.342625 27.096300000000003 0.07425 14.429250000000001 -14.342625Z" stroke-width="5"></path><path id="Vector_34" stroke="#3ee922" stroke-linecap="round" stroke-linejoin="round" d="m473.77934999999997 269.470575 -152.29665 -0.7425 -11.71665 70.683525 151.997175 0.42569999999999997 12.016125 -70.366725Z" stroke-width="5"></path><g id="Group_2"><path id="Vector_35" fill="#fecfc400" d="m426.42765 339.73830000000004 -84.741525 -0.32670000000000005 8.288775000000001 -56.35080000000001 84.177225 0.41827500000000006 -7.724475 56.25922500000001Z" stroke-width="5"></path><path id="Vector_36" stroke="#3ee922" stroke-linecap="round" stroke-linejoin="round" d="m426.42765 339.73830000000004 -84.741525 -0.32670000000000005 8.288775000000001 -56.35080000000001 84.177225 0.41827500000000006 -7.724475 56.25922500000001Z" stroke-width="5"></path><path id="Vector_37" stroke="#3ee922" stroke-linecap="round" stroke-linejoin="round" d="M368.0028 300.32392500000003h38.882250000000006" stroke-width="5"></path><path id="Vector_38" stroke="#3ee922" stroke-linecap="round" stroke-linejoin="round" d="M366.8445 309.758625h38.882250000000006" stroke-width="5"></path><path id="Vector_39" stroke="#3ee922" stroke-linecap="round" stroke-linejoin="round" d="M365.698575 319.077h38.884725" stroke-width="5"></path></g></g><g id="mouse"><path id="Vector_40" stroke="#3ee922" stroke-linecap="round" stroke-linejoin="round" d="M441.37912500000004 397.9107c5.237100000000001 2.2869 12.154725 1.769625 15.99345 -2.475 3.838725 -4.244625 3.314025 -12.469050000000001 -1.7325 -15.260850000000001 -12.2364 -6.779025 -28.252125 11.617650000000001 -14.26095 17.735850000000003Z" stroke-width="5"></path><path id="Vector_41" stroke="#3ee922" stroke-linecap="round" stroke-linejoin="round" d="M454.353075 379.56600000000003a6.397875 6.397875 0 0 0 -5.883075 3.9600000000000004" stroke-width="5"></path><path id="Vector_42" stroke="#3ee922" stroke-linecap="round" stroke-linejoin="round" d="M482.625 343.9359c-4.0169250000000005 -0.398475 -8.5635 2.8041750000000003 -9.600525000000001 10.080675000000001 -0.348975 2.45025 -0.314325 5.7741750000000005 -3.898125 7.87545 -2.135925 1.254825 -4.848525 1.3835250000000001 -6.8111999999999995 2.89575 -4.60845 3.54915 -2.264625 11.686950000000001 -6.6651750000000005 15.399450000000002" stroke-width="5"></path></g><g id="elements"><path id="Vector_43" stroke="#3ee922" stroke-linecap="round" stroke-linejoin="round" d="m471.950325 232.2936 8.917425000000001 8.9199" stroke-width="5"></path><path id="Vector_44" stroke="#3ee922" stroke-linecap="round" stroke-linejoin="round" d="m471.950325 241.21349999999998 8.917425000000001 -8.9199" stroke-width="5"></path><path id="Vector_45" stroke="#3ee922" stroke-linecap="round" stroke-linejoin="round" d="m398.73735 101.97494999999999 7.645275 12.610125 8.9892 -18.837225" stroke-width="5"></path><path id="Vector_46" stroke="#3ee922" stroke-linecap="round" stroke-linejoin="round" d="M225.534375 130.692375h24.727725" stroke-width="5"></path><path id="Vector_47" stroke="#3ee922" stroke-linecap="round" stroke-linejoin="round" d="M237.89700000000002 143.055v-24.725250000000003" stroke-width="5"></path><path id="Vector_48" stroke="#3ee922" stroke-linecap="round" stroke-linejoin="round" d="M188.627175 195.15375h13.488750000000001" stroke-width="5"></path><path id="Vector_49" stroke="#3ee922" stroke-linecap="round" stroke-linejoin="round" d="M195.37155 201.89812500000002v-13.488750000000001" stroke-width="5"></path></g></g></svg>