<svg xmlns="http://www.w3.org/2000/svg" viewBox="0 0 1000 1000" id="Facebook-Fill--Streamline-Mingcute-Fill.svg" height="1000" width="1000"><desc>Facebook Fill Streamline Icon: https://streamlinehq.com</desc><g fill="none" fill-rule="nonzero"><path d="M1000 0v1000H0V0h1000ZM524.7083333333333 969.0833333333333l-0.45833333333333326 0.08333333333333333 -2.958333333333333 1.4583333333333335 -0.8333333333333333 0.16666666666666666 -0.5833333333333333 -0.16666666666666666 -2.958333333333333 -1.4583333333333335c-0.41666666666666663 -0.16666666666666666 -0.7916666666666666 -0.041666666666666664 -1 0.20833333333333331l-0.16666666666666666 0.41666666666666663 -0.7083333333333334 17.833333333333332 0.20833333333333331 0.8333333333333333 0.41666666666666663 0.5416666666666666 4.333333333333333 3.083333333333333 0.6249999999999999 0.16666666666666666 0.5 -0.16666666666666666 4.333333333333333 -3.083333333333333 0.5 -0.6666666666666666 0.16666666666666666 -0.7083333333333334 -0.7083333333333334 -17.791666666666664c-0.08333333333333333 -0.41666666666666663 -0.37499999999999994 -0.7083333333333334 -0.7083333333333334 -0.7499999999999999Zm11.041666666666666 -4.708333333333333 -0.5416666666666666 0.08333333333333333 -7.708333333333333 3.8749999999999996 -0.41666666666666663 0.41666666666666663 -0.125 0.45833333333333326 0.7499999999999999 17.916666666666664 0.20833333333333331 0.5 0.3333333333333333 0.29166666666666663 8.375 3.8749999999999996c0.5 0.16666666666666666 0.9583333333333333 0 1.2083333333333333 -0.3333333333333333l0.16666666666666666 -0.5833333333333333 -1.4166666666666667 -25.583333333333332c-0.125 -0.5 -0.41666666666666663 -0.8333333333333333 -0.8333333333333333 -0.9166666666666665Zm-29.791666666666664 0.08333333333333333a0.9583333333333333 0.9583333333333333 0 0 0 -1.125 0.25l-0.25 0.5833333333333333 -1.4166666666666667 25.583333333333332c0 0.5 0.29166666666666663 0.8333333333333333 0.7083333333333334 1l0.6249999999999999 -0.08333333333333333 8.375 -3.8749999999999996 0.41666666666666663 -0.3333333333333333 0.16666666666666666 -0.45833333333333326 0.7083333333333334 -17.916666666666664 -0.125 -0.5 -0.41666666666666663 -0.41666666666666663 -7.666666666666666 -3.833333333333333Z" stroke-width="1"></path><path fill="#3ee922" d="M562.5 912C762.9583333333333 881.8333333333334 916.6666666666666 708.875 916.6666666666666 500c0 -230.12499999999997 -186.54166666666666 -416.66666666666663 -416.66666666666663 -416.66666666666663S83.33333333333333 269.875 83.33333333333333 500c0 208.87499999999997 153.70833333333331 381.87499999999994 354.16666666666663 412V625H375a62.5 62.5 0 0 1 0 -125h62.5v-83.33333333333333A145.83333333333331 145.83333333333331 0 0 1 583.3333333333333 270.8333333333333h20.833333333333332a62.5 62.5 0 0 1 0 125H583.3333333333333a20.833333333333332 20.833333333333332 0 0 0 -20.833333333333332 20.833333333333332v83.33333333333333H625a62.5 62.5 0 0 1 0 125h-62.5v287Z" stroke-width="1"></path></g></svg>